G04 #@! TF.GenerationSoftware,KiCad,Pcbnew,8.0.9-8.0.9-0~ubuntu20.04.1*
G04 #@! TF.CreationDate,2025-06-05T20:20:58+01:00*
G04 #@! TF.ProjectId,keyboard-pcb-rpi-pico-1x25,6b657962-6f61-4726-942d-7063622d7270,rev?*
G04 #@! TF.SameCoordinates,Original*
G04 #@! TF.FileFunction,Legend,Top*
G04 #@! TF.FilePolarity,Positive*
%FSLAX46Y46*%
G04 Gerber Fmt 4.6, Leading zero omitted, Abs format (unit mm)*
G04 Created by KiCad (PCBNEW 8.0.9-8.0.9-0~ubuntu20.04.1) date 2025-06-05 20:20:58*
%MOMM*%
%LPD*%
G01*
G04 APERTURE LIST*
%ADD10C,0.150000*%
%ADD11C,0.120000*%
%ADD12C,1.700000*%
%ADD13C,4.000000*%
%ADD14C,2.200000*%
%ADD15C,6.400000*%
%ADD16R,1.700000X1.700000*%
%ADD17O,1.700000X1.700000*%
G04 APERTURE END LIST*
D10*
X54546667Y-100483200D02*
X54689524Y-100530819D01*
X54689524Y-100530819D02*
X54927619Y-100530819D01*
X54927619Y-100530819D02*
X55022857Y-100483200D01*
X55022857Y-100483200D02*
X55070476Y-100435580D01*
X55070476Y-100435580D02*
X55118095Y-100340342D01*
X55118095Y-100340342D02*
X55118095Y-100245104D01*
X55118095Y-100245104D02*
X55070476Y-100149866D01*
X55070476Y-100149866D02*
X55022857Y-100102247D01*
X55022857Y-100102247D02*
X54927619Y-100054628D01*
X54927619Y-100054628D02*
X54737143Y-100007009D01*
X54737143Y-100007009D02*
X54641905Y-99959390D01*
X54641905Y-99959390D02*
X54594286Y-99911771D01*
X54594286Y-99911771D02*
X54546667Y-99816533D01*
X54546667Y-99816533D02*
X54546667Y-99721295D01*
X54546667Y-99721295D02*
X54594286Y-99626057D01*
X54594286Y-99626057D02*
X54641905Y-99578438D01*
X54641905Y-99578438D02*
X54737143Y-99530819D01*
X54737143Y-99530819D02*
X54975238Y-99530819D01*
X54975238Y-99530819D02*
X55118095Y-99578438D01*
X55451429Y-99530819D02*
X55689524Y-100530819D01*
X55689524Y-100530819D02*
X55880000Y-99816533D01*
X55880000Y-99816533D02*
X56070476Y-100530819D01*
X56070476Y-100530819D02*
X56308572Y-99530819D01*
X57118095Y-99864152D02*
X57118095Y-100530819D01*
X56880000Y-99483200D02*
X56641905Y-100197485D01*
X56641905Y-100197485D02*
X57260952Y-100197485D01*
X54070476Y-344323200D02*
X54213333Y-344370819D01*
X54213333Y-344370819D02*
X54451428Y-344370819D01*
X54451428Y-344370819D02*
X54546666Y-344323200D01*
X54546666Y-344323200D02*
X54594285Y-344275580D01*
X54594285Y-344275580D02*
X54641904Y-344180342D01*
X54641904Y-344180342D02*
X54641904Y-344085104D01*
X54641904Y-344085104D02*
X54594285Y-343989866D01*
X54594285Y-343989866D02*
X54546666Y-343942247D01*
X54546666Y-343942247D02*
X54451428Y-343894628D01*
X54451428Y-343894628D02*
X54260952Y-343847009D01*
X54260952Y-343847009D02*
X54165714Y-343799390D01*
X54165714Y-343799390D02*
X54118095Y-343751771D01*
X54118095Y-343751771D02*
X54070476Y-343656533D01*
X54070476Y-343656533D02*
X54070476Y-343561295D01*
X54070476Y-343561295D02*
X54118095Y-343466057D01*
X54118095Y-343466057D02*
X54165714Y-343418438D01*
X54165714Y-343418438D02*
X54260952Y-343370819D01*
X54260952Y-343370819D02*
X54499047Y-343370819D01*
X54499047Y-343370819D02*
X54641904Y-343418438D01*
X54975238Y-343370819D02*
X55213333Y-344370819D01*
X55213333Y-344370819D02*
X55403809Y-343656533D01*
X55403809Y-343656533D02*
X55594285Y-344370819D01*
X55594285Y-344370819D02*
X55832381Y-343370819D01*
X56737142Y-344370819D02*
X56165714Y-344370819D01*
X56451428Y-344370819D02*
X56451428Y-343370819D01*
X56451428Y-343370819D02*
X56356190Y-343513676D01*
X56356190Y-343513676D02*
X56260952Y-343608914D01*
X56260952Y-343608914D02*
X56165714Y-343656533D01*
X57594285Y-343370819D02*
X57403809Y-343370819D01*
X57403809Y-343370819D02*
X57308571Y-343418438D01*
X57308571Y-343418438D02*
X57260952Y-343466057D01*
X57260952Y-343466057D02*
X57165714Y-343608914D01*
X57165714Y-343608914D02*
X57118095Y-343799390D01*
X57118095Y-343799390D02*
X57118095Y-344180342D01*
X57118095Y-344180342D02*
X57165714Y-344275580D01*
X57165714Y-344275580D02*
X57213333Y-344323200D01*
X57213333Y-344323200D02*
X57308571Y-344370819D01*
X57308571Y-344370819D02*
X57499047Y-344370819D01*
X57499047Y-344370819D02*
X57594285Y-344323200D01*
X57594285Y-344323200D02*
X57641904Y-344275580D01*
X57641904Y-344275580D02*
X57689523Y-344180342D01*
X57689523Y-344180342D02*
X57689523Y-343942247D01*
X57689523Y-343942247D02*
X57641904Y-343847009D01*
X57641904Y-343847009D02*
X57594285Y-343799390D01*
X57594285Y-343799390D02*
X57499047Y-343751771D01*
X57499047Y-343751771D02*
X57308571Y-343751771D01*
X57308571Y-343751771D02*
X57213333Y-343799390D01*
X57213333Y-343799390D02*
X57165714Y-343847009D01*
X57165714Y-343847009D02*
X57118095Y-343942247D01*
X54546667Y-43333200D02*
X54689524Y-43380819D01*
X54689524Y-43380819D02*
X54927619Y-43380819D01*
X54927619Y-43380819D02*
X55022857Y-43333200D01*
X55022857Y-43333200D02*
X55070476Y-43285580D01*
X55070476Y-43285580D02*
X55118095Y-43190342D01*
X55118095Y-43190342D02*
X55118095Y-43095104D01*
X55118095Y-43095104D02*
X55070476Y-42999866D01*
X55070476Y-42999866D02*
X55022857Y-42952247D01*
X55022857Y-42952247D02*
X54927619Y-42904628D01*
X54927619Y-42904628D02*
X54737143Y-42857009D01*
X54737143Y-42857009D02*
X54641905Y-42809390D01*
X54641905Y-42809390D02*
X54594286Y-42761771D01*
X54594286Y-42761771D02*
X54546667Y-42666533D01*
X54546667Y-42666533D02*
X54546667Y-42571295D01*
X54546667Y-42571295D02*
X54594286Y-42476057D01*
X54594286Y-42476057D02*
X54641905Y-42428438D01*
X54641905Y-42428438D02*
X54737143Y-42380819D01*
X54737143Y-42380819D02*
X54975238Y-42380819D01*
X54975238Y-42380819D02*
X55118095Y-42428438D01*
X55451429Y-42380819D02*
X55689524Y-43380819D01*
X55689524Y-43380819D02*
X55880000Y-42666533D01*
X55880000Y-42666533D02*
X56070476Y-43380819D01*
X56070476Y-43380819D02*
X56308572Y-42380819D01*
X57213333Y-43380819D02*
X56641905Y-43380819D01*
X56927619Y-43380819D02*
X56927619Y-42380819D01*
X56927619Y-42380819D02*
X56832381Y-42523676D01*
X56832381Y-42523676D02*
X56737143Y-42618914D01*
X56737143Y-42618914D02*
X56641905Y-42666533D01*
X55118095Y-135319819D02*
X55118095Y-134319819D01*
X55118095Y-134796009D02*
X55689523Y-134796009D01*
X55689523Y-135319819D02*
X55689523Y-134319819D01*
X56689523Y-135319819D02*
X56118095Y-135319819D01*
X56403809Y-135319819D02*
X56403809Y-134319819D01*
X56403809Y-134319819D02*
X56308571Y-134462676D01*
X56308571Y-134462676D02*
X56213333Y-134557914D01*
X56213333Y-134557914D02*
X56118095Y-134605533D01*
X55118095Y-436309819D02*
X55118095Y-435309819D01*
X55118095Y-435786009D02*
X55689523Y-435786009D01*
X55689523Y-436309819D02*
X55689523Y-435309819D01*
X56070476Y-435309819D02*
X56689523Y-435309819D01*
X56689523Y-435309819D02*
X56356190Y-435690771D01*
X56356190Y-435690771D02*
X56499047Y-435690771D01*
X56499047Y-435690771D02*
X56594285Y-435738390D01*
X56594285Y-435738390D02*
X56641904Y-435786009D01*
X56641904Y-435786009D02*
X56689523Y-435881247D01*
X56689523Y-435881247D02*
X56689523Y-436119342D01*
X56689523Y-436119342D02*
X56641904Y-436214580D01*
X56641904Y-436214580D02*
X56594285Y-436262200D01*
X56594285Y-436262200D02*
X56499047Y-436309819D01*
X56499047Y-436309819D02*
X56213333Y-436309819D01*
X56213333Y-436309819D02*
X56118095Y-436262200D01*
X56118095Y-436262200D02*
X56070476Y-436214580D01*
X54070476Y-263043200D02*
X54213333Y-263090819D01*
X54213333Y-263090819D02*
X54451428Y-263090819D01*
X54451428Y-263090819D02*
X54546666Y-263043200D01*
X54546666Y-263043200D02*
X54594285Y-262995580D01*
X54594285Y-262995580D02*
X54641904Y-262900342D01*
X54641904Y-262900342D02*
X54641904Y-262805104D01*
X54641904Y-262805104D02*
X54594285Y-262709866D01*
X54594285Y-262709866D02*
X54546666Y-262662247D01*
X54546666Y-262662247D02*
X54451428Y-262614628D01*
X54451428Y-262614628D02*
X54260952Y-262567009D01*
X54260952Y-262567009D02*
X54165714Y-262519390D01*
X54165714Y-262519390D02*
X54118095Y-262471771D01*
X54118095Y-262471771D02*
X54070476Y-262376533D01*
X54070476Y-262376533D02*
X54070476Y-262281295D01*
X54070476Y-262281295D02*
X54118095Y-262186057D01*
X54118095Y-262186057D02*
X54165714Y-262138438D01*
X54165714Y-262138438D02*
X54260952Y-262090819D01*
X54260952Y-262090819D02*
X54499047Y-262090819D01*
X54499047Y-262090819D02*
X54641904Y-262138438D01*
X54975238Y-262090819D02*
X55213333Y-263090819D01*
X55213333Y-263090819D02*
X55403809Y-262376533D01*
X55403809Y-262376533D02*
X55594285Y-263090819D01*
X55594285Y-263090819D02*
X55832381Y-262090819D01*
X56737142Y-263090819D02*
X56165714Y-263090819D01*
X56451428Y-263090819D02*
X56451428Y-262090819D01*
X56451428Y-262090819D02*
X56356190Y-262233676D01*
X56356190Y-262233676D02*
X56260952Y-262328914D01*
X56260952Y-262328914D02*
X56165714Y-262376533D01*
X57118095Y-262186057D02*
X57165714Y-262138438D01*
X57165714Y-262138438D02*
X57260952Y-262090819D01*
X57260952Y-262090819D02*
X57499047Y-262090819D01*
X57499047Y-262090819D02*
X57594285Y-262138438D01*
X57594285Y-262138438D02*
X57641904Y-262186057D01*
X57641904Y-262186057D02*
X57689523Y-262281295D01*
X57689523Y-262281295D02*
X57689523Y-262376533D01*
X57689523Y-262376533D02*
X57641904Y-262519390D01*
X57641904Y-262519390D02*
X57070476Y-263090819D01*
X57070476Y-263090819D02*
X57689523Y-263090819D01*
X54546667Y-81433200D02*
X54689524Y-81480819D01*
X54689524Y-81480819D02*
X54927619Y-81480819D01*
X54927619Y-81480819D02*
X55022857Y-81433200D01*
X55022857Y-81433200D02*
X55070476Y-81385580D01*
X55070476Y-81385580D02*
X55118095Y-81290342D01*
X55118095Y-81290342D02*
X55118095Y-81195104D01*
X55118095Y-81195104D02*
X55070476Y-81099866D01*
X55070476Y-81099866D02*
X55022857Y-81052247D01*
X55022857Y-81052247D02*
X54927619Y-81004628D01*
X54927619Y-81004628D02*
X54737143Y-80957009D01*
X54737143Y-80957009D02*
X54641905Y-80909390D01*
X54641905Y-80909390D02*
X54594286Y-80861771D01*
X54594286Y-80861771D02*
X54546667Y-80766533D01*
X54546667Y-80766533D02*
X54546667Y-80671295D01*
X54546667Y-80671295D02*
X54594286Y-80576057D01*
X54594286Y-80576057D02*
X54641905Y-80528438D01*
X54641905Y-80528438D02*
X54737143Y-80480819D01*
X54737143Y-80480819D02*
X54975238Y-80480819D01*
X54975238Y-80480819D02*
X55118095Y-80528438D01*
X55451429Y-80480819D02*
X55689524Y-81480819D01*
X55689524Y-81480819D02*
X55880000Y-80766533D01*
X55880000Y-80766533D02*
X56070476Y-81480819D01*
X56070476Y-81480819D02*
X56308572Y-80480819D01*
X56594286Y-80480819D02*
X57213333Y-80480819D01*
X57213333Y-80480819D02*
X56880000Y-80861771D01*
X56880000Y-80861771D02*
X57022857Y-80861771D01*
X57022857Y-80861771D02*
X57118095Y-80909390D01*
X57118095Y-80909390D02*
X57165714Y-80957009D01*
X57165714Y-80957009D02*
X57213333Y-81052247D01*
X57213333Y-81052247D02*
X57213333Y-81290342D01*
X57213333Y-81290342D02*
X57165714Y-81385580D01*
X57165714Y-81385580D02*
X57118095Y-81433200D01*
X57118095Y-81433200D02*
X57022857Y-81480819D01*
X57022857Y-81480819D02*
X56737143Y-81480819D01*
X56737143Y-81480819D02*
X56641905Y-81433200D01*
X56641905Y-81433200D02*
X56594286Y-81385580D01*
X54546667Y-143663200D02*
X54689524Y-143710819D01*
X54689524Y-143710819D02*
X54927619Y-143710819D01*
X54927619Y-143710819D02*
X55022857Y-143663200D01*
X55022857Y-143663200D02*
X55070476Y-143615580D01*
X55070476Y-143615580D02*
X55118095Y-143520342D01*
X55118095Y-143520342D02*
X55118095Y-143425104D01*
X55118095Y-143425104D02*
X55070476Y-143329866D01*
X55070476Y-143329866D02*
X55022857Y-143282247D01*
X55022857Y-143282247D02*
X54927619Y-143234628D01*
X54927619Y-143234628D02*
X54737143Y-143187009D01*
X54737143Y-143187009D02*
X54641905Y-143139390D01*
X54641905Y-143139390D02*
X54594286Y-143091771D01*
X54594286Y-143091771D02*
X54546667Y-142996533D01*
X54546667Y-142996533D02*
X54546667Y-142901295D01*
X54546667Y-142901295D02*
X54594286Y-142806057D01*
X54594286Y-142806057D02*
X54641905Y-142758438D01*
X54641905Y-142758438D02*
X54737143Y-142710819D01*
X54737143Y-142710819D02*
X54975238Y-142710819D01*
X54975238Y-142710819D02*
X55118095Y-142758438D01*
X55451429Y-142710819D02*
X55689524Y-143710819D01*
X55689524Y-143710819D02*
X55880000Y-142996533D01*
X55880000Y-142996533D02*
X56070476Y-143710819D01*
X56070476Y-143710819D02*
X56308572Y-142710819D01*
X57118095Y-142710819D02*
X56927619Y-142710819D01*
X56927619Y-142710819D02*
X56832381Y-142758438D01*
X56832381Y-142758438D02*
X56784762Y-142806057D01*
X56784762Y-142806057D02*
X56689524Y-142948914D01*
X56689524Y-142948914D02*
X56641905Y-143139390D01*
X56641905Y-143139390D02*
X56641905Y-143520342D01*
X56641905Y-143520342D02*
X56689524Y-143615580D01*
X56689524Y-143615580D02*
X56737143Y-143663200D01*
X56737143Y-143663200D02*
X56832381Y-143710819D01*
X56832381Y-143710819D02*
X57022857Y-143710819D01*
X57022857Y-143710819D02*
X57118095Y-143663200D01*
X57118095Y-143663200D02*
X57165714Y-143615580D01*
X57165714Y-143615580D02*
X57213333Y-143520342D01*
X57213333Y-143520342D02*
X57213333Y-143282247D01*
X57213333Y-143282247D02*
X57165714Y-143187009D01*
X57165714Y-143187009D02*
X57118095Y-143139390D01*
X57118095Y-143139390D02*
X57022857Y-143091771D01*
X57022857Y-143091771D02*
X56832381Y-143091771D01*
X56832381Y-143091771D02*
X56737143Y-143139390D01*
X56737143Y-143139390D02*
X56689524Y-143187009D01*
X56689524Y-143187009D02*
X56641905Y-143282247D01*
X54070476Y-243993200D02*
X54213333Y-244040819D01*
X54213333Y-244040819D02*
X54451428Y-244040819D01*
X54451428Y-244040819D02*
X54546666Y-243993200D01*
X54546666Y-243993200D02*
X54594285Y-243945580D01*
X54594285Y-243945580D02*
X54641904Y-243850342D01*
X54641904Y-243850342D02*
X54641904Y-243755104D01*
X54641904Y-243755104D02*
X54594285Y-243659866D01*
X54594285Y-243659866D02*
X54546666Y-243612247D01*
X54546666Y-243612247D02*
X54451428Y-243564628D01*
X54451428Y-243564628D02*
X54260952Y-243517009D01*
X54260952Y-243517009D02*
X54165714Y-243469390D01*
X54165714Y-243469390D02*
X54118095Y-243421771D01*
X54118095Y-243421771D02*
X54070476Y-243326533D01*
X54070476Y-243326533D02*
X54070476Y-243231295D01*
X54070476Y-243231295D02*
X54118095Y-243136057D01*
X54118095Y-243136057D02*
X54165714Y-243088438D01*
X54165714Y-243088438D02*
X54260952Y-243040819D01*
X54260952Y-243040819D02*
X54499047Y-243040819D01*
X54499047Y-243040819D02*
X54641904Y-243088438D01*
X54975238Y-243040819D02*
X55213333Y-244040819D01*
X55213333Y-244040819D02*
X55403809Y-243326533D01*
X55403809Y-243326533D02*
X55594285Y-244040819D01*
X55594285Y-244040819D02*
X55832381Y-243040819D01*
X56737142Y-244040819D02*
X56165714Y-244040819D01*
X56451428Y-244040819D02*
X56451428Y-243040819D01*
X56451428Y-243040819D02*
X56356190Y-243183676D01*
X56356190Y-243183676D02*
X56260952Y-243278914D01*
X56260952Y-243278914D02*
X56165714Y-243326533D01*
X57689523Y-244040819D02*
X57118095Y-244040819D01*
X57403809Y-244040819D02*
X57403809Y-243040819D01*
X57403809Y-243040819D02*
X57308571Y-243183676D01*
X57308571Y-243183676D02*
X57213333Y-243278914D01*
X57213333Y-243278914D02*
X57118095Y-243326533D01*
X54070476Y-482753200D02*
X54213333Y-482800819D01*
X54213333Y-482800819D02*
X54451428Y-482800819D01*
X54451428Y-482800819D02*
X54546666Y-482753200D01*
X54546666Y-482753200D02*
X54594285Y-482705580D01*
X54594285Y-482705580D02*
X54641904Y-482610342D01*
X54641904Y-482610342D02*
X54641904Y-482515104D01*
X54641904Y-482515104D02*
X54594285Y-482419866D01*
X54594285Y-482419866D02*
X54546666Y-482372247D01*
X54546666Y-482372247D02*
X54451428Y-482324628D01*
X54451428Y-482324628D02*
X54260952Y-482277009D01*
X54260952Y-482277009D02*
X54165714Y-482229390D01*
X54165714Y-482229390D02*
X54118095Y-482181771D01*
X54118095Y-482181771D02*
X54070476Y-482086533D01*
X54070476Y-482086533D02*
X54070476Y-481991295D01*
X54070476Y-481991295D02*
X54118095Y-481896057D01*
X54118095Y-481896057D02*
X54165714Y-481848438D01*
X54165714Y-481848438D02*
X54260952Y-481800819D01*
X54260952Y-481800819D02*
X54499047Y-481800819D01*
X54499047Y-481800819D02*
X54641904Y-481848438D01*
X54975238Y-481800819D02*
X55213333Y-482800819D01*
X55213333Y-482800819D02*
X55403809Y-482086533D01*
X55403809Y-482086533D02*
X55594285Y-482800819D01*
X55594285Y-482800819D02*
X55832381Y-481800819D01*
X56165714Y-481896057D02*
X56213333Y-481848438D01*
X56213333Y-481848438D02*
X56308571Y-481800819D01*
X56308571Y-481800819D02*
X56546666Y-481800819D01*
X56546666Y-481800819D02*
X56641904Y-481848438D01*
X56641904Y-481848438D02*
X56689523Y-481896057D01*
X56689523Y-481896057D02*
X56737142Y-481991295D01*
X56737142Y-481991295D02*
X56737142Y-482086533D01*
X56737142Y-482086533D02*
X56689523Y-482229390D01*
X56689523Y-482229390D02*
X56118095Y-482800819D01*
X56118095Y-482800819D02*
X56737142Y-482800819D01*
X57070476Y-481800819D02*
X57689523Y-481800819D01*
X57689523Y-481800819D02*
X57356190Y-482181771D01*
X57356190Y-482181771D02*
X57499047Y-482181771D01*
X57499047Y-482181771D02*
X57594285Y-482229390D01*
X57594285Y-482229390D02*
X57641904Y-482277009D01*
X57641904Y-482277009D02*
X57689523Y-482372247D01*
X57689523Y-482372247D02*
X57689523Y-482610342D01*
X57689523Y-482610342D02*
X57641904Y-482705580D01*
X57641904Y-482705580D02*
X57594285Y-482753200D01*
X57594285Y-482753200D02*
X57499047Y-482800819D01*
X57499047Y-482800819D02*
X57213333Y-482800819D01*
X57213333Y-482800819D02*
X57118095Y-482753200D01*
X57118095Y-482753200D02*
X57070476Y-482705580D01*
X54546667Y-162713200D02*
X54689524Y-162760819D01*
X54689524Y-162760819D02*
X54927619Y-162760819D01*
X54927619Y-162760819D02*
X55022857Y-162713200D01*
X55022857Y-162713200D02*
X55070476Y-162665580D01*
X55070476Y-162665580D02*
X55118095Y-162570342D01*
X55118095Y-162570342D02*
X55118095Y-162475104D01*
X55118095Y-162475104D02*
X55070476Y-162379866D01*
X55070476Y-162379866D02*
X55022857Y-162332247D01*
X55022857Y-162332247D02*
X54927619Y-162284628D01*
X54927619Y-162284628D02*
X54737143Y-162237009D01*
X54737143Y-162237009D02*
X54641905Y-162189390D01*
X54641905Y-162189390D02*
X54594286Y-162141771D01*
X54594286Y-162141771D02*
X54546667Y-162046533D01*
X54546667Y-162046533D02*
X54546667Y-161951295D01*
X54546667Y-161951295D02*
X54594286Y-161856057D01*
X54594286Y-161856057D02*
X54641905Y-161808438D01*
X54641905Y-161808438D02*
X54737143Y-161760819D01*
X54737143Y-161760819D02*
X54975238Y-161760819D01*
X54975238Y-161760819D02*
X55118095Y-161808438D01*
X55451429Y-161760819D02*
X55689524Y-162760819D01*
X55689524Y-162760819D02*
X55880000Y-162046533D01*
X55880000Y-162046533D02*
X56070476Y-162760819D01*
X56070476Y-162760819D02*
X56308572Y-161760819D01*
X56594286Y-161760819D02*
X57260952Y-161760819D01*
X57260952Y-161760819D02*
X56832381Y-162760819D01*
X55118095Y-335979819D02*
X55118095Y-334979819D01*
X55118095Y-335456009D02*
X55689523Y-335456009D01*
X55689523Y-335979819D02*
X55689523Y-334979819D01*
X56118095Y-335075057D02*
X56165714Y-335027438D01*
X56165714Y-335027438D02*
X56260952Y-334979819D01*
X56260952Y-334979819D02*
X56499047Y-334979819D01*
X56499047Y-334979819D02*
X56594285Y-335027438D01*
X56594285Y-335027438D02*
X56641904Y-335075057D01*
X56641904Y-335075057D02*
X56689523Y-335170295D01*
X56689523Y-335170295D02*
X56689523Y-335265533D01*
X56689523Y-335265533D02*
X56641904Y-335408390D01*
X56641904Y-335408390D02*
X56070476Y-335979819D01*
X56070476Y-335979819D02*
X56689523Y-335979819D01*
X54070476Y-463703200D02*
X54213333Y-463750819D01*
X54213333Y-463750819D02*
X54451428Y-463750819D01*
X54451428Y-463750819D02*
X54546666Y-463703200D01*
X54546666Y-463703200D02*
X54594285Y-463655580D01*
X54594285Y-463655580D02*
X54641904Y-463560342D01*
X54641904Y-463560342D02*
X54641904Y-463465104D01*
X54641904Y-463465104D02*
X54594285Y-463369866D01*
X54594285Y-463369866D02*
X54546666Y-463322247D01*
X54546666Y-463322247D02*
X54451428Y-463274628D01*
X54451428Y-463274628D02*
X54260952Y-463227009D01*
X54260952Y-463227009D02*
X54165714Y-463179390D01*
X54165714Y-463179390D02*
X54118095Y-463131771D01*
X54118095Y-463131771D02*
X54070476Y-463036533D01*
X54070476Y-463036533D02*
X54070476Y-462941295D01*
X54070476Y-462941295D02*
X54118095Y-462846057D01*
X54118095Y-462846057D02*
X54165714Y-462798438D01*
X54165714Y-462798438D02*
X54260952Y-462750819D01*
X54260952Y-462750819D02*
X54499047Y-462750819D01*
X54499047Y-462750819D02*
X54641904Y-462798438D01*
X54975238Y-462750819D02*
X55213333Y-463750819D01*
X55213333Y-463750819D02*
X55403809Y-463036533D01*
X55403809Y-463036533D02*
X55594285Y-463750819D01*
X55594285Y-463750819D02*
X55832381Y-462750819D01*
X56165714Y-462846057D02*
X56213333Y-462798438D01*
X56213333Y-462798438D02*
X56308571Y-462750819D01*
X56308571Y-462750819D02*
X56546666Y-462750819D01*
X56546666Y-462750819D02*
X56641904Y-462798438D01*
X56641904Y-462798438D02*
X56689523Y-462846057D01*
X56689523Y-462846057D02*
X56737142Y-462941295D01*
X56737142Y-462941295D02*
X56737142Y-463036533D01*
X56737142Y-463036533D02*
X56689523Y-463179390D01*
X56689523Y-463179390D02*
X56118095Y-463750819D01*
X56118095Y-463750819D02*
X56737142Y-463750819D01*
X57118095Y-462846057D02*
X57165714Y-462798438D01*
X57165714Y-462798438D02*
X57260952Y-462750819D01*
X57260952Y-462750819D02*
X57499047Y-462750819D01*
X57499047Y-462750819D02*
X57594285Y-462798438D01*
X57594285Y-462798438D02*
X57641904Y-462846057D01*
X57641904Y-462846057D02*
X57689523Y-462941295D01*
X57689523Y-462941295D02*
X57689523Y-463036533D01*
X57689523Y-463036533D02*
X57641904Y-463179390D01*
X57641904Y-463179390D02*
X57070476Y-463750819D01*
X57070476Y-463750819D02*
X57689523Y-463750819D01*
X54546667Y-200813200D02*
X54689524Y-200860819D01*
X54689524Y-200860819D02*
X54927619Y-200860819D01*
X54927619Y-200860819D02*
X55022857Y-200813200D01*
X55022857Y-200813200D02*
X55070476Y-200765580D01*
X55070476Y-200765580D02*
X55118095Y-200670342D01*
X55118095Y-200670342D02*
X55118095Y-200575104D01*
X55118095Y-200575104D02*
X55070476Y-200479866D01*
X55070476Y-200479866D02*
X55022857Y-200432247D01*
X55022857Y-200432247D02*
X54927619Y-200384628D01*
X54927619Y-200384628D02*
X54737143Y-200337009D01*
X54737143Y-200337009D02*
X54641905Y-200289390D01*
X54641905Y-200289390D02*
X54594286Y-200241771D01*
X54594286Y-200241771D02*
X54546667Y-200146533D01*
X54546667Y-200146533D02*
X54546667Y-200051295D01*
X54546667Y-200051295D02*
X54594286Y-199956057D01*
X54594286Y-199956057D02*
X54641905Y-199908438D01*
X54641905Y-199908438D02*
X54737143Y-199860819D01*
X54737143Y-199860819D02*
X54975238Y-199860819D01*
X54975238Y-199860819D02*
X55118095Y-199908438D01*
X55451429Y-199860819D02*
X55689524Y-200860819D01*
X55689524Y-200860819D02*
X55880000Y-200146533D01*
X55880000Y-200146533D02*
X56070476Y-200860819D01*
X56070476Y-200860819D02*
X56308572Y-199860819D01*
X56737143Y-200860819D02*
X56927619Y-200860819D01*
X56927619Y-200860819D02*
X57022857Y-200813200D01*
X57022857Y-200813200D02*
X57070476Y-200765580D01*
X57070476Y-200765580D02*
X57165714Y-200622723D01*
X57165714Y-200622723D02*
X57213333Y-200432247D01*
X57213333Y-200432247D02*
X57213333Y-200051295D01*
X57213333Y-200051295D02*
X57165714Y-199956057D01*
X57165714Y-199956057D02*
X57118095Y-199908438D01*
X57118095Y-199908438D02*
X57022857Y-199860819D01*
X57022857Y-199860819D02*
X56832381Y-199860819D01*
X56832381Y-199860819D02*
X56737143Y-199908438D01*
X56737143Y-199908438D02*
X56689524Y-199956057D01*
X56689524Y-199956057D02*
X56641905Y-200051295D01*
X56641905Y-200051295D02*
X56641905Y-200289390D01*
X56641905Y-200289390D02*
X56689524Y-200384628D01*
X56689524Y-200384628D02*
X56737143Y-200432247D01*
X56737143Y-200432247D02*
X56832381Y-200479866D01*
X56832381Y-200479866D02*
X57022857Y-200479866D01*
X57022857Y-200479866D02*
X57118095Y-200432247D01*
X57118095Y-200432247D02*
X57165714Y-200384628D01*
X57165714Y-200384628D02*
X57213333Y-200289390D01*
X54546667Y-181763200D02*
X54689524Y-181810819D01*
X54689524Y-181810819D02*
X54927619Y-181810819D01*
X54927619Y-181810819D02*
X55022857Y-181763200D01*
X55022857Y-181763200D02*
X55070476Y-181715580D01*
X55070476Y-181715580D02*
X55118095Y-181620342D01*
X55118095Y-181620342D02*
X55118095Y-181525104D01*
X55118095Y-181525104D02*
X55070476Y-181429866D01*
X55070476Y-181429866D02*
X55022857Y-181382247D01*
X55022857Y-181382247D02*
X54927619Y-181334628D01*
X54927619Y-181334628D02*
X54737143Y-181287009D01*
X54737143Y-181287009D02*
X54641905Y-181239390D01*
X54641905Y-181239390D02*
X54594286Y-181191771D01*
X54594286Y-181191771D02*
X54546667Y-181096533D01*
X54546667Y-181096533D02*
X54546667Y-181001295D01*
X54546667Y-181001295D02*
X54594286Y-180906057D01*
X54594286Y-180906057D02*
X54641905Y-180858438D01*
X54641905Y-180858438D02*
X54737143Y-180810819D01*
X54737143Y-180810819D02*
X54975238Y-180810819D01*
X54975238Y-180810819D02*
X55118095Y-180858438D01*
X55451429Y-180810819D02*
X55689524Y-181810819D01*
X55689524Y-181810819D02*
X55880000Y-181096533D01*
X55880000Y-181096533D02*
X56070476Y-181810819D01*
X56070476Y-181810819D02*
X56308572Y-180810819D01*
X56832381Y-181239390D02*
X56737143Y-181191771D01*
X56737143Y-181191771D02*
X56689524Y-181144152D01*
X56689524Y-181144152D02*
X56641905Y-181048914D01*
X56641905Y-181048914D02*
X56641905Y-181001295D01*
X56641905Y-181001295D02*
X56689524Y-180906057D01*
X56689524Y-180906057D02*
X56737143Y-180858438D01*
X56737143Y-180858438D02*
X56832381Y-180810819D01*
X56832381Y-180810819D02*
X57022857Y-180810819D01*
X57022857Y-180810819D02*
X57118095Y-180858438D01*
X57118095Y-180858438D02*
X57165714Y-180906057D01*
X57165714Y-180906057D02*
X57213333Y-181001295D01*
X57213333Y-181001295D02*
X57213333Y-181048914D01*
X57213333Y-181048914D02*
X57165714Y-181144152D01*
X57165714Y-181144152D02*
X57118095Y-181191771D01*
X57118095Y-181191771D02*
X57022857Y-181239390D01*
X57022857Y-181239390D02*
X56832381Y-181239390D01*
X56832381Y-181239390D02*
X56737143Y-181287009D01*
X56737143Y-181287009D02*
X56689524Y-181334628D01*
X56689524Y-181334628D02*
X56641905Y-181429866D01*
X56641905Y-181429866D02*
X56641905Y-181620342D01*
X56641905Y-181620342D02*
X56689524Y-181715580D01*
X56689524Y-181715580D02*
X56737143Y-181763200D01*
X56737143Y-181763200D02*
X56832381Y-181810819D01*
X56832381Y-181810819D02*
X57022857Y-181810819D01*
X57022857Y-181810819D02*
X57118095Y-181763200D01*
X57118095Y-181763200D02*
X57165714Y-181715580D01*
X57165714Y-181715580D02*
X57213333Y-181620342D01*
X57213333Y-181620342D02*
X57213333Y-181429866D01*
X57213333Y-181429866D02*
X57165714Y-181334628D01*
X57165714Y-181334628D02*
X57118095Y-181287009D01*
X57118095Y-181287009D02*
X57022857Y-181239390D01*
X54070476Y-382423200D02*
X54213333Y-382470819D01*
X54213333Y-382470819D02*
X54451428Y-382470819D01*
X54451428Y-382470819D02*
X54546666Y-382423200D01*
X54546666Y-382423200D02*
X54594285Y-382375580D01*
X54594285Y-382375580D02*
X54641904Y-382280342D01*
X54641904Y-382280342D02*
X54641904Y-382185104D01*
X54641904Y-382185104D02*
X54594285Y-382089866D01*
X54594285Y-382089866D02*
X54546666Y-382042247D01*
X54546666Y-382042247D02*
X54451428Y-381994628D01*
X54451428Y-381994628D02*
X54260952Y-381947009D01*
X54260952Y-381947009D02*
X54165714Y-381899390D01*
X54165714Y-381899390D02*
X54118095Y-381851771D01*
X54118095Y-381851771D02*
X54070476Y-381756533D01*
X54070476Y-381756533D02*
X54070476Y-381661295D01*
X54070476Y-381661295D02*
X54118095Y-381566057D01*
X54118095Y-381566057D02*
X54165714Y-381518438D01*
X54165714Y-381518438D02*
X54260952Y-381470819D01*
X54260952Y-381470819D02*
X54499047Y-381470819D01*
X54499047Y-381470819D02*
X54641904Y-381518438D01*
X54975238Y-381470819D02*
X55213333Y-382470819D01*
X55213333Y-382470819D02*
X55403809Y-381756533D01*
X55403809Y-381756533D02*
X55594285Y-382470819D01*
X55594285Y-382470819D02*
X55832381Y-381470819D01*
X56737142Y-382470819D02*
X56165714Y-382470819D01*
X56451428Y-382470819D02*
X56451428Y-381470819D01*
X56451428Y-381470819D02*
X56356190Y-381613676D01*
X56356190Y-381613676D02*
X56260952Y-381708914D01*
X56260952Y-381708914D02*
X56165714Y-381756533D01*
X57308571Y-381899390D02*
X57213333Y-381851771D01*
X57213333Y-381851771D02*
X57165714Y-381804152D01*
X57165714Y-381804152D02*
X57118095Y-381708914D01*
X57118095Y-381708914D02*
X57118095Y-381661295D01*
X57118095Y-381661295D02*
X57165714Y-381566057D01*
X57165714Y-381566057D02*
X57213333Y-381518438D01*
X57213333Y-381518438D02*
X57308571Y-381470819D01*
X57308571Y-381470819D02*
X57499047Y-381470819D01*
X57499047Y-381470819D02*
X57594285Y-381518438D01*
X57594285Y-381518438D02*
X57641904Y-381566057D01*
X57641904Y-381566057D02*
X57689523Y-381661295D01*
X57689523Y-381661295D02*
X57689523Y-381708914D01*
X57689523Y-381708914D02*
X57641904Y-381804152D01*
X57641904Y-381804152D02*
X57594285Y-381851771D01*
X57594285Y-381851771D02*
X57499047Y-381899390D01*
X57499047Y-381899390D02*
X57308571Y-381899390D01*
X57308571Y-381899390D02*
X57213333Y-381947009D01*
X57213333Y-381947009D02*
X57165714Y-381994628D01*
X57165714Y-381994628D02*
X57118095Y-382089866D01*
X57118095Y-382089866D02*
X57118095Y-382280342D01*
X57118095Y-382280342D02*
X57165714Y-382375580D01*
X57165714Y-382375580D02*
X57213333Y-382423200D01*
X57213333Y-382423200D02*
X57308571Y-382470819D01*
X57308571Y-382470819D02*
X57499047Y-382470819D01*
X57499047Y-382470819D02*
X57594285Y-382423200D01*
X57594285Y-382423200D02*
X57641904Y-382375580D01*
X57641904Y-382375580D02*
X57689523Y-382280342D01*
X57689523Y-382280342D02*
X57689523Y-382089866D01*
X57689523Y-382089866D02*
X57641904Y-381994628D01*
X57641904Y-381994628D02*
X57594285Y-381947009D01*
X57594285Y-381947009D02*
X57499047Y-381899390D01*
X54070476Y-501803200D02*
X54213333Y-501850819D01*
X54213333Y-501850819D02*
X54451428Y-501850819D01*
X54451428Y-501850819D02*
X54546666Y-501803200D01*
X54546666Y-501803200D02*
X54594285Y-501755580D01*
X54594285Y-501755580D02*
X54641904Y-501660342D01*
X54641904Y-501660342D02*
X54641904Y-501565104D01*
X54641904Y-501565104D02*
X54594285Y-501469866D01*
X54594285Y-501469866D02*
X54546666Y-501422247D01*
X54546666Y-501422247D02*
X54451428Y-501374628D01*
X54451428Y-501374628D02*
X54260952Y-501327009D01*
X54260952Y-501327009D02*
X54165714Y-501279390D01*
X54165714Y-501279390D02*
X54118095Y-501231771D01*
X54118095Y-501231771D02*
X54070476Y-501136533D01*
X54070476Y-501136533D02*
X54070476Y-501041295D01*
X54070476Y-501041295D02*
X54118095Y-500946057D01*
X54118095Y-500946057D02*
X54165714Y-500898438D01*
X54165714Y-500898438D02*
X54260952Y-500850819D01*
X54260952Y-500850819D02*
X54499047Y-500850819D01*
X54499047Y-500850819D02*
X54641904Y-500898438D01*
X54975238Y-500850819D02*
X55213333Y-501850819D01*
X55213333Y-501850819D02*
X55403809Y-501136533D01*
X55403809Y-501136533D02*
X55594285Y-501850819D01*
X55594285Y-501850819D02*
X55832381Y-500850819D01*
X56165714Y-500946057D02*
X56213333Y-500898438D01*
X56213333Y-500898438D02*
X56308571Y-500850819D01*
X56308571Y-500850819D02*
X56546666Y-500850819D01*
X56546666Y-500850819D02*
X56641904Y-500898438D01*
X56641904Y-500898438D02*
X56689523Y-500946057D01*
X56689523Y-500946057D02*
X56737142Y-501041295D01*
X56737142Y-501041295D02*
X56737142Y-501136533D01*
X56737142Y-501136533D02*
X56689523Y-501279390D01*
X56689523Y-501279390D02*
X56118095Y-501850819D01*
X56118095Y-501850819D02*
X56737142Y-501850819D01*
X57594285Y-501184152D02*
X57594285Y-501850819D01*
X57356190Y-500803200D02*
X57118095Y-501517485D01*
X57118095Y-501517485D02*
X57737142Y-501517485D01*
X54070476Y-301143200D02*
X54213333Y-301190819D01*
X54213333Y-301190819D02*
X54451428Y-301190819D01*
X54451428Y-301190819D02*
X54546666Y-301143200D01*
X54546666Y-301143200D02*
X54594285Y-301095580D01*
X54594285Y-301095580D02*
X54641904Y-301000342D01*
X54641904Y-301000342D02*
X54641904Y-300905104D01*
X54641904Y-300905104D02*
X54594285Y-300809866D01*
X54594285Y-300809866D02*
X54546666Y-300762247D01*
X54546666Y-300762247D02*
X54451428Y-300714628D01*
X54451428Y-300714628D02*
X54260952Y-300667009D01*
X54260952Y-300667009D02*
X54165714Y-300619390D01*
X54165714Y-300619390D02*
X54118095Y-300571771D01*
X54118095Y-300571771D02*
X54070476Y-300476533D01*
X54070476Y-300476533D02*
X54070476Y-300381295D01*
X54070476Y-300381295D02*
X54118095Y-300286057D01*
X54118095Y-300286057D02*
X54165714Y-300238438D01*
X54165714Y-300238438D02*
X54260952Y-300190819D01*
X54260952Y-300190819D02*
X54499047Y-300190819D01*
X54499047Y-300190819D02*
X54641904Y-300238438D01*
X54975238Y-300190819D02*
X55213333Y-301190819D01*
X55213333Y-301190819D02*
X55403809Y-300476533D01*
X55403809Y-300476533D02*
X55594285Y-301190819D01*
X55594285Y-301190819D02*
X55832381Y-300190819D01*
X56737142Y-301190819D02*
X56165714Y-301190819D01*
X56451428Y-301190819D02*
X56451428Y-300190819D01*
X56451428Y-300190819D02*
X56356190Y-300333676D01*
X56356190Y-300333676D02*
X56260952Y-300428914D01*
X56260952Y-300428914D02*
X56165714Y-300476533D01*
X57594285Y-300524152D02*
X57594285Y-301190819D01*
X57356190Y-300143200D02*
X57118095Y-300857485D01*
X57118095Y-300857485D02*
X57737142Y-300857485D01*
X54070476Y-401473200D02*
X54213333Y-401520819D01*
X54213333Y-401520819D02*
X54451428Y-401520819D01*
X54451428Y-401520819D02*
X54546666Y-401473200D01*
X54546666Y-401473200D02*
X54594285Y-401425580D01*
X54594285Y-401425580D02*
X54641904Y-401330342D01*
X54641904Y-401330342D02*
X54641904Y-401235104D01*
X54641904Y-401235104D02*
X54594285Y-401139866D01*
X54594285Y-401139866D02*
X54546666Y-401092247D01*
X54546666Y-401092247D02*
X54451428Y-401044628D01*
X54451428Y-401044628D02*
X54260952Y-400997009D01*
X54260952Y-400997009D02*
X54165714Y-400949390D01*
X54165714Y-400949390D02*
X54118095Y-400901771D01*
X54118095Y-400901771D02*
X54070476Y-400806533D01*
X54070476Y-400806533D02*
X54070476Y-400711295D01*
X54070476Y-400711295D02*
X54118095Y-400616057D01*
X54118095Y-400616057D02*
X54165714Y-400568438D01*
X54165714Y-400568438D02*
X54260952Y-400520819D01*
X54260952Y-400520819D02*
X54499047Y-400520819D01*
X54499047Y-400520819D02*
X54641904Y-400568438D01*
X54975238Y-400520819D02*
X55213333Y-401520819D01*
X55213333Y-401520819D02*
X55403809Y-400806533D01*
X55403809Y-400806533D02*
X55594285Y-401520819D01*
X55594285Y-401520819D02*
X55832381Y-400520819D01*
X56737142Y-401520819D02*
X56165714Y-401520819D01*
X56451428Y-401520819D02*
X56451428Y-400520819D01*
X56451428Y-400520819D02*
X56356190Y-400663676D01*
X56356190Y-400663676D02*
X56260952Y-400758914D01*
X56260952Y-400758914D02*
X56165714Y-400806533D01*
X57213333Y-401520819D02*
X57403809Y-401520819D01*
X57403809Y-401520819D02*
X57499047Y-401473200D01*
X57499047Y-401473200D02*
X57546666Y-401425580D01*
X57546666Y-401425580D02*
X57641904Y-401282723D01*
X57641904Y-401282723D02*
X57689523Y-401092247D01*
X57689523Y-401092247D02*
X57689523Y-400711295D01*
X57689523Y-400711295D02*
X57641904Y-400616057D01*
X57641904Y-400616057D02*
X57594285Y-400568438D01*
X57594285Y-400568438D02*
X57499047Y-400520819D01*
X57499047Y-400520819D02*
X57308571Y-400520819D01*
X57308571Y-400520819D02*
X57213333Y-400568438D01*
X57213333Y-400568438D02*
X57165714Y-400616057D01*
X57165714Y-400616057D02*
X57118095Y-400711295D01*
X57118095Y-400711295D02*
X57118095Y-400949390D01*
X57118095Y-400949390D02*
X57165714Y-401044628D01*
X57165714Y-401044628D02*
X57213333Y-401092247D01*
X57213333Y-401092247D02*
X57308571Y-401139866D01*
X57308571Y-401139866D02*
X57499047Y-401139866D01*
X57499047Y-401139866D02*
X57594285Y-401092247D01*
X57594285Y-401092247D02*
X57641904Y-401044628D01*
X57641904Y-401044628D02*
X57689523Y-400949390D01*
X54070476Y-219863200D02*
X54213333Y-219910819D01*
X54213333Y-219910819D02*
X54451428Y-219910819D01*
X54451428Y-219910819D02*
X54546666Y-219863200D01*
X54546666Y-219863200D02*
X54594285Y-219815580D01*
X54594285Y-219815580D02*
X54641904Y-219720342D01*
X54641904Y-219720342D02*
X54641904Y-219625104D01*
X54641904Y-219625104D02*
X54594285Y-219529866D01*
X54594285Y-219529866D02*
X54546666Y-219482247D01*
X54546666Y-219482247D02*
X54451428Y-219434628D01*
X54451428Y-219434628D02*
X54260952Y-219387009D01*
X54260952Y-219387009D02*
X54165714Y-219339390D01*
X54165714Y-219339390D02*
X54118095Y-219291771D01*
X54118095Y-219291771D02*
X54070476Y-219196533D01*
X54070476Y-219196533D02*
X54070476Y-219101295D01*
X54070476Y-219101295D02*
X54118095Y-219006057D01*
X54118095Y-219006057D02*
X54165714Y-218958438D01*
X54165714Y-218958438D02*
X54260952Y-218910819D01*
X54260952Y-218910819D02*
X54499047Y-218910819D01*
X54499047Y-218910819D02*
X54641904Y-218958438D01*
X54975238Y-218910819D02*
X55213333Y-219910819D01*
X55213333Y-219910819D02*
X55403809Y-219196533D01*
X55403809Y-219196533D02*
X55594285Y-219910819D01*
X55594285Y-219910819D02*
X55832381Y-218910819D01*
X56737142Y-219910819D02*
X56165714Y-219910819D01*
X56451428Y-219910819D02*
X56451428Y-218910819D01*
X56451428Y-218910819D02*
X56356190Y-219053676D01*
X56356190Y-219053676D02*
X56260952Y-219148914D01*
X56260952Y-219148914D02*
X56165714Y-219196533D01*
X57356190Y-218910819D02*
X57451428Y-218910819D01*
X57451428Y-218910819D02*
X57546666Y-218958438D01*
X57546666Y-218958438D02*
X57594285Y-219006057D01*
X57594285Y-219006057D02*
X57641904Y-219101295D01*
X57641904Y-219101295D02*
X57689523Y-219291771D01*
X57689523Y-219291771D02*
X57689523Y-219529866D01*
X57689523Y-219529866D02*
X57641904Y-219720342D01*
X57641904Y-219720342D02*
X57594285Y-219815580D01*
X57594285Y-219815580D02*
X57546666Y-219863200D01*
X57546666Y-219863200D02*
X57451428Y-219910819D01*
X57451428Y-219910819D02*
X57356190Y-219910819D01*
X57356190Y-219910819D02*
X57260952Y-219863200D01*
X57260952Y-219863200D02*
X57213333Y-219815580D01*
X57213333Y-219815580D02*
X57165714Y-219720342D01*
X57165714Y-219720342D02*
X57118095Y-219529866D01*
X57118095Y-219529866D02*
X57118095Y-219291771D01*
X57118095Y-219291771D02*
X57165714Y-219101295D01*
X57165714Y-219101295D02*
X57213333Y-219006057D01*
X57213333Y-219006057D02*
X57260952Y-218958438D01*
X57260952Y-218958438D02*
X57356190Y-218910819D01*
X54070476Y-320193200D02*
X54213333Y-320240819D01*
X54213333Y-320240819D02*
X54451428Y-320240819D01*
X54451428Y-320240819D02*
X54546666Y-320193200D01*
X54546666Y-320193200D02*
X54594285Y-320145580D01*
X54594285Y-320145580D02*
X54641904Y-320050342D01*
X54641904Y-320050342D02*
X54641904Y-319955104D01*
X54641904Y-319955104D02*
X54594285Y-319859866D01*
X54594285Y-319859866D02*
X54546666Y-319812247D01*
X54546666Y-319812247D02*
X54451428Y-319764628D01*
X54451428Y-319764628D02*
X54260952Y-319717009D01*
X54260952Y-319717009D02*
X54165714Y-319669390D01*
X54165714Y-319669390D02*
X54118095Y-319621771D01*
X54118095Y-319621771D02*
X54070476Y-319526533D01*
X54070476Y-319526533D02*
X54070476Y-319431295D01*
X54070476Y-319431295D02*
X54118095Y-319336057D01*
X54118095Y-319336057D02*
X54165714Y-319288438D01*
X54165714Y-319288438D02*
X54260952Y-319240819D01*
X54260952Y-319240819D02*
X54499047Y-319240819D01*
X54499047Y-319240819D02*
X54641904Y-319288438D01*
X54975238Y-319240819D02*
X55213333Y-320240819D01*
X55213333Y-320240819D02*
X55403809Y-319526533D01*
X55403809Y-319526533D02*
X55594285Y-320240819D01*
X55594285Y-320240819D02*
X55832381Y-319240819D01*
X56737142Y-320240819D02*
X56165714Y-320240819D01*
X56451428Y-320240819D02*
X56451428Y-319240819D01*
X56451428Y-319240819D02*
X56356190Y-319383676D01*
X56356190Y-319383676D02*
X56260952Y-319478914D01*
X56260952Y-319478914D02*
X56165714Y-319526533D01*
X57641904Y-319240819D02*
X57165714Y-319240819D01*
X57165714Y-319240819D02*
X57118095Y-319717009D01*
X57118095Y-319717009D02*
X57165714Y-319669390D01*
X57165714Y-319669390D02*
X57260952Y-319621771D01*
X57260952Y-319621771D02*
X57499047Y-319621771D01*
X57499047Y-319621771D02*
X57594285Y-319669390D01*
X57594285Y-319669390D02*
X57641904Y-319717009D01*
X57641904Y-319717009D02*
X57689523Y-319812247D01*
X57689523Y-319812247D02*
X57689523Y-320050342D01*
X57689523Y-320050342D02*
X57641904Y-320145580D01*
X57641904Y-320145580D02*
X57594285Y-320193200D01*
X57594285Y-320193200D02*
X57499047Y-320240819D01*
X57499047Y-320240819D02*
X57260952Y-320240819D01*
X57260952Y-320240819D02*
X57165714Y-320193200D01*
X57165714Y-320193200D02*
X57118095Y-320145580D01*
X54070476Y-282093200D02*
X54213333Y-282140819D01*
X54213333Y-282140819D02*
X54451428Y-282140819D01*
X54451428Y-282140819D02*
X54546666Y-282093200D01*
X54546666Y-282093200D02*
X54594285Y-282045580D01*
X54594285Y-282045580D02*
X54641904Y-281950342D01*
X54641904Y-281950342D02*
X54641904Y-281855104D01*
X54641904Y-281855104D02*
X54594285Y-281759866D01*
X54594285Y-281759866D02*
X54546666Y-281712247D01*
X54546666Y-281712247D02*
X54451428Y-281664628D01*
X54451428Y-281664628D02*
X54260952Y-281617009D01*
X54260952Y-281617009D02*
X54165714Y-281569390D01*
X54165714Y-281569390D02*
X54118095Y-281521771D01*
X54118095Y-281521771D02*
X54070476Y-281426533D01*
X54070476Y-281426533D02*
X54070476Y-281331295D01*
X54070476Y-281331295D02*
X54118095Y-281236057D01*
X54118095Y-281236057D02*
X54165714Y-281188438D01*
X54165714Y-281188438D02*
X54260952Y-281140819D01*
X54260952Y-281140819D02*
X54499047Y-281140819D01*
X54499047Y-281140819D02*
X54641904Y-281188438D01*
X54975238Y-281140819D02*
X55213333Y-282140819D01*
X55213333Y-282140819D02*
X55403809Y-281426533D01*
X55403809Y-281426533D02*
X55594285Y-282140819D01*
X55594285Y-282140819D02*
X55832381Y-281140819D01*
X56737142Y-282140819D02*
X56165714Y-282140819D01*
X56451428Y-282140819D02*
X56451428Y-281140819D01*
X56451428Y-281140819D02*
X56356190Y-281283676D01*
X56356190Y-281283676D02*
X56260952Y-281378914D01*
X56260952Y-281378914D02*
X56165714Y-281426533D01*
X57070476Y-281140819D02*
X57689523Y-281140819D01*
X57689523Y-281140819D02*
X57356190Y-281521771D01*
X57356190Y-281521771D02*
X57499047Y-281521771D01*
X57499047Y-281521771D02*
X57594285Y-281569390D01*
X57594285Y-281569390D02*
X57641904Y-281617009D01*
X57641904Y-281617009D02*
X57689523Y-281712247D01*
X57689523Y-281712247D02*
X57689523Y-281950342D01*
X57689523Y-281950342D02*
X57641904Y-282045580D01*
X57641904Y-282045580D02*
X57594285Y-282093200D01*
X57594285Y-282093200D02*
X57499047Y-282140819D01*
X57499047Y-282140819D02*
X57213333Y-282140819D01*
X57213333Y-282140819D02*
X57118095Y-282093200D01*
X57118095Y-282093200D02*
X57070476Y-282045580D01*
X54546667Y-119533200D02*
X54689524Y-119580819D01*
X54689524Y-119580819D02*
X54927619Y-119580819D01*
X54927619Y-119580819D02*
X55022857Y-119533200D01*
X55022857Y-119533200D02*
X55070476Y-119485580D01*
X55070476Y-119485580D02*
X55118095Y-119390342D01*
X55118095Y-119390342D02*
X55118095Y-119295104D01*
X55118095Y-119295104D02*
X55070476Y-119199866D01*
X55070476Y-119199866D02*
X55022857Y-119152247D01*
X55022857Y-119152247D02*
X54927619Y-119104628D01*
X54927619Y-119104628D02*
X54737143Y-119057009D01*
X54737143Y-119057009D02*
X54641905Y-119009390D01*
X54641905Y-119009390D02*
X54594286Y-118961771D01*
X54594286Y-118961771D02*
X54546667Y-118866533D01*
X54546667Y-118866533D02*
X54546667Y-118771295D01*
X54546667Y-118771295D02*
X54594286Y-118676057D01*
X54594286Y-118676057D02*
X54641905Y-118628438D01*
X54641905Y-118628438D02*
X54737143Y-118580819D01*
X54737143Y-118580819D02*
X54975238Y-118580819D01*
X54975238Y-118580819D02*
X55118095Y-118628438D01*
X55451429Y-118580819D02*
X55689524Y-119580819D01*
X55689524Y-119580819D02*
X55880000Y-118866533D01*
X55880000Y-118866533D02*
X56070476Y-119580819D01*
X56070476Y-119580819D02*
X56308572Y-118580819D01*
X57165714Y-118580819D02*
X56689524Y-118580819D01*
X56689524Y-118580819D02*
X56641905Y-119057009D01*
X56641905Y-119057009D02*
X56689524Y-119009390D01*
X56689524Y-119009390D02*
X56784762Y-118961771D01*
X56784762Y-118961771D02*
X57022857Y-118961771D01*
X57022857Y-118961771D02*
X57118095Y-119009390D01*
X57118095Y-119009390D02*
X57165714Y-119057009D01*
X57165714Y-119057009D02*
X57213333Y-119152247D01*
X57213333Y-119152247D02*
X57213333Y-119390342D01*
X57213333Y-119390342D02*
X57165714Y-119485580D01*
X57165714Y-119485580D02*
X57118095Y-119533200D01*
X57118095Y-119533200D02*
X57022857Y-119580819D01*
X57022857Y-119580819D02*
X56784762Y-119580819D01*
X56784762Y-119580819D02*
X56689524Y-119533200D01*
X56689524Y-119533200D02*
X56641905Y-119485580D01*
X54546667Y-62383200D02*
X54689524Y-62430819D01*
X54689524Y-62430819D02*
X54927619Y-62430819D01*
X54927619Y-62430819D02*
X55022857Y-62383200D01*
X55022857Y-62383200D02*
X55070476Y-62335580D01*
X55070476Y-62335580D02*
X55118095Y-62240342D01*
X55118095Y-62240342D02*
X55118095Y-62145104D01*
X55118095Y-62145104D02*
X55070476Y-62049866D01*
X55070476Y-62049866D02*
X55022857Y-62002247D01*
X55022857Y-62002247D02*
X54927619Y-61954628D01*
X54927619Y-61954628D02*
X54737143Y-61907009D01*
X54737143Y-61907009D02*
X54641905Y-61859390D01*
X54641905Y-61859390D02*
X54594286Y-61811771D01*
X54594286Y-61811771D02*
X54546667Y-61716533D01*
X54546667Y-61716533D02*
X54546667Y-61621295D01*
X54546667Y-61621295D02*
X54594286Y-61526057D01*
X54594286Y-61526057D02*
X54641905Y-61478438D01*
X54641905Y-61478438D02*
X54737143Y-61430819D01*
X54737143Y-61430819D02*
X54975238Y-61430819D01*
X54975238Y-61430819D02*
X55118095Y-61478438D01*
X55451429Y-61430819D02*
X55689524Y-62430819D01*
X55689524Y-62430819D02*
X55880000Y-61716533D01*
X55880000Y-61716533D02*
X56070476Y-62430819D01*
X56070476Y-62430819D02*
X56308572Y-61430819D01*
X56641905Y-61526057D02*
X56689524Y-61478438D01*
X56689524Y-61478438D02*
X56784762Y-61430819D01*
X56784762Y-61430819D02*
X57022857Y-61430819D01*
X57022857Y-61430819D02*
X57118095Y-61478438D01*
X57118095Y-61478438D02*
X57165714Y-61526057D01*
X57165714Y-61526057D02*
X57213333Y-61621295D01*
X57213333Y-61621295D02*
X57213333Y-61716533D01*
X57213333Y-61716533D02*
X57165714Y-61859390D01*
X57165714Y-61859390D02*
X56594286Y-62430819D01*
X56594286Y-62430819D02*
X57213333Y-62430819D01*
X54070476Y-444653200D02*
X54213333Y-444700819D01*
X54213333Y-444700819D02*
X54451428Y-444700819D01*
X54451428Y-444700819D02*
X54546666Y-444653200D01*
X54546666Y-444653200D02*
X54594285Y-444605580D01*
X54594285Y-444605580D02*
X54641904Y-444510342D01*
X54641904Y-444510342D02*
X54641904Y-444415104D01*
X54641904Y-444415104D02*
X54594285Y-444319866D01*
X54594285Y-444319866D02*
X54546666Y-444272247D01*
X54546666Y-444272247D02*
X54451428Y-444224628D01*
X54451428Y-444224628D02*
X54260952Y-444177009D01*
X54260952Y-444177009D02*
X54165714Y-444129390D01*
X54165714Y-444129390D02*
X54118095Y-444081771D01*
X54118095Y-444081771D02*
X54070476Y-443986533D01*
X54070476Y-443986533D02*
X54070476Y-443891295D01*
X54070476Y-443891295D02*
X54118095Y-443796057D01*
X54118095Y-443796057D02*
X54165714Y-443748438D01*
X54165714Y-443748438D02*
X54260952Y-443700819D01*
X54260952Y-443700819D02*
X54499047Y-443700819D01*
X54499047Y-443700819D02*
X54641904Y-443748438D01*
X54975238Y-443700819D02*
X55213333Y-444700819D01*
X55213333Y-444700819D02*
X55403809Y-443986533D01*
X55403809Y-443986533D02*
X55594285Y-444700819D01*
X55594285Y-444700819D02*
X55832381Y-443700819D01*
X56165714Y-443796057D02*
X56213333Y-443748438D01*
X56213333Y-443748438D02*
X56308571Y-443700819D01*
X56308571Y-443700819D02*
X56546666Y-443700819D01*
X56546666Y-443700819D02*
X56641904Y-443748438D01*
X56641904Y-443748438D02*
X56689523Y-443796057D01*
X56689523Y-443796057D02*
X56737142Y-443891295D01*
X56737142Y-443891295D02*
X56737142Y-443986533D01*
X56737142Y-443986533D02*
X56689523Y-444129390D01*
X56689523Y-444129390D02*
X56118095Y-444700819D01*
X56118095Y-444700819D02*
X56737142Y-444700819D01*
X57689523Y-444700819D02*
X57118095Y-444700819D01*
X57403809Y-444700819D02*
X57403809Y-443700819D01*
X57403809Y-443700819D02*
X57308571Y-443843676D01*
X57308571Y-443843676D02*
X57213333Y-443938914D01*
X57213333Y-443938914D02*
X57118095Y-443986533D01*
X54070476Y-363373200D02*
X54213333Y-363420819D01*
X54213333Y-363420819D02*
X54451428Y-363420819D01*
X54451428Y-363420819D02*
X54546666Y-363373200D01*
X54546666Y-363373200D02*
X54594285Y-363325580D01*
X54594285Y-363325580D02*
X54641904Y-363230342D01*
X54641904Y-363230342D02*
X54641904Y-363135104D01*
X54641904Y-363135104D02*
X54594285Y-363039866D01*
X54594285Y-363039866D02*
X54546666Y-362992247D01*
X54546666Y-362992247D02*
X54451428Y-362944628D01*
X54451428Y-362944628D02*
X54260952Y-362897009D01*
X54260952Y-362897009D02*
X54165714Y-362849390D01*
X54165714Y-362849390D02*
X54118095Y-362801771D01*
X54118095Y-362801771D02*
X54070476Y-362706533D01*
X54070476Y-362706533D02*
X54070476Y-362611295D01*
X54070476Y-362611295D02*
X54118095Y-362516057D01*
X54118095Y-362516057D02*
X54165714Y-362468438D01*
X54165714Y-362468438D02*
X54260952Y-362420819D01*
X54260952Y-362420819D02*
X54499047Y-362420819D01*
X54499047Y-362420819D02*
X54641904Y-362468438D01*
X54975238Y-362420819D02*
X55213333Y-363420819D01*
X55213333Y-363420819D02*
X55403809Y-362706533D01*
X55403809Y-362706533D02*
X55594285Y-363420819D01*
X55594285Y-363420819D02*
X55832381Y-362420819D01*
X56737142Y-363420819D02*
X56165714Y-363420819D01*
X56451428Y-363420819D02*
X56451428Y-362420819D01*
X56451428Y-362420819D02*
X56356190Y-362563676D01*
X56356190Y-362563676D02*
X56260952Y-362658914D01*
X56260952Y-362658914D02*
X56165714Y-362706533D01*
X57070476Y-362420819D02*
X57737142Y-362420819D01*
X57737142Y-362420819D02*
X57308571Y-363420819D01*
X54070476Y-420523200D02*
X54213333Y-420570819D01*
X54213333Y-420570819D02*
X54451428Y-420570819D01*
X54451428Y-420570819D02*
X54546666Y-420523200D01*
X54546666Y-420523200D02*
X54594285Y-420475580D01*
X54594285Y-420475580D02*
X54641904Y-420380342D01*
X54641904Y-420380342D02*
X54641904Y-420285104D01*
X54641904Y-420285104D02*
X54594285Y-420189866D01*
X54594285Y-420189866D02*
X54546666Y-420142247D01*
X54546666Y-420142247D02*
X54451428Y-420094628D01*
X54451428Y-420094628D02*
X54260952Y-420047009D01*
X54260952Y-420047009D02*
X54165714Y-419999390D01*
X54165714Y-419999390D02*
X54118095Y-419951771D01*
X54118095Y-419951771D02*
X54070476Y-419856533D01*
X54070476Y-419856533D02*
X54070476Y-419761295D01*
X54070476Y-419761295D02*
X54118095Y-419666057D01*
X54118095Y-419666057D02*
X54165714Y-419618438D01*
X54165714Y-419618438D02*
X54260952Y-419570819D01*
X54260952Y-419570819D02*
X54499047Y-419570819D01*
X54499047Y-419570819D02*
X54641904Y-419618438D01*
X54975238Y-419570819D02*
X55213333Y-420570819D01*
X55213333Y-420570819D02*
X55403809Y-419856533D01*
X55403809Y-419856533D02*
X55594285Y-420570819D01*
X55594285Y-420570819D02*
X55832381Y-419570819D01*
X56165714Y-419666057D02*
X56213333Y-419618438D01*
X56213333Y-419618438D02*
X56308571Y-419570819D01*
X56308571Y-419570819D02*
X56546666Y-419570819D01*
X56546666Y-419570819D02*
X56641904Y-419618438D01*
X56641904Y-419618438D02*
X56689523Y-419666057D01*
X56689523Y-419666057D02*
X56737142Y-419761295D01*
X56737142Y-419761295D02*
X56737142Y-419856533D01*
X56737142Y-419856533D02*
X56689523Y-419999390D01*
X56689523Y-419999390D02*
X56118095Y-420570819D01*
X56118095Y-420570819D02*
X56737142Y-420570819D01*
X57356190Y-419570819D02*
X57451428Y-419570819D01*
X57451428Y-419570819D02*
X57546666Y-419618438D01*
X57546666Y-419618438D02*
X57594285Y-419666057D01*
X57594285Y-419666057D02*
X57641904Y-419761295D01*
X57641904Y-419761295D02*
X57689523Y-419951771D01*
X57689523Y-419951771D02*
X57689523Y-420189866D01*
X57689523Y-420189866D02*
X57641904Y-420380342D01*
X57641904Y-420380342D02*
X57594285Y-420475580D01*
X57594285Y-420475580D02*
X57546666Y-420523200D01*
X57546666Y-420523200D02*
X57451428Y-420570819D01*
X57451428Y-420570819D02*
X57356190Y-420570819D01*
X57356190Y-420570819D02*
X57260952Y-420523200D01*
X57260952Y-420523200D02*
X57213333Y-420475580D01*
X57213333Y-420475580D02*
X57165714Y-420380342D01*
X57165714Y-420380342D02*
X57118095Y-420189866D01*
X57118095Y-420189866D02*
X57118095Y-419951771D01*
X57118095Y-419951771D02*
X57165714Y-419761295D01*
X57165714Y-419761295D02*
X57213333Y-419666057D01*
X57213333Y-419666057D02*
X57260952Y-419618438D01*
X57260952Y-419618438D02*
X57356190Y-419570819D01*
X54070476Y-520853200D02*
X54213333Y-520900819D01*
X54213333Y-520900819D02*
X54451428Y-520900819D01*
X54451428Y-520900819D02*
X54546666Y-520853200D01*
X54546666Y-520853200D02*
X54594285Y-520805580D01*
X54594285Y-520805580D02*
X54641904Y-520710342D01*
X54641904Y-520710342D02*
X54641904Y-520615104D01*
X54641904Y-520615104D02*
X54594285Y-520519866D01*
X54594285Y-520519866D02*
X54546666Y-520472247D01*
X54546666Y-520472247D02*
X54451428Y-520424628D01*
X54451428Y-520424628D02*
X54260952Y-520377009D01*
X54260952Y-520377009D02*
X54165714Y-520329390D01*
X54165714Y-520329390D02*
X54118095Y-520281771D01*
X54118095Y-520281771D02*
X54070476Y-520186533D01*
X54070476Y-520186533D02*
X54070476Y-520091295D01*
X54070476Y-520091295D02*
X54118095Y-519996057D01*
X54118095Y-519996057D02*
X54165714Y-519948438D01*
X54165714Y-519948438D02*
X54260952Y-519900819D01*
X54260952Y-519900819D02*
X54499047Y-519900819D01*
X54499047Y-519900819D02*
X54641904Y-519948438D01*
X54975238Y-519900819D02*
X55213333Y-520900819D01*
X55213333Y-520900819D02*
X55403809Y-520186533D01*
X55403809Y-520186533D02*
X55594285Y-520900819D01*
X55594285Y-520900819D02*
X55832381Y-519900819D01*
X56165714Y-519996057D02*
X56213333Y-519948438D01*
X56213333Y-519948438D02*
X56308571Y-519900819D01*
X56308571Y-519900819D02*
X56546666Y-519900819D01*
X56546666Y-519900819D02*
X56641904Y-519948438D01*
X56641904Y-519948438D02*
X56689523Y-519996057D01*
X56689523Y-519996057D02*
X56737142Y-520091295D01*
X56737142Y-520091295D02*
X56737142Y-520186533D01*
X56737142Y-520186533D02*
X56689523Y-520329390D01*
X56689523Y-520329390D02*
X56118095Y-520900819D01*
X56118095Y-520900819D02*
X56737142Y-520900819D01*
X57641904Y-519900819D02*
X57165714Y-519900819D01*
X57165714Y-519900819D02*
X57118095Y-520377009D01*
X57118095Y-520377009D02*
X57165714Y-520329390D01*
X57165714Y-520329390D02*
X57260952Y-520281771D01*
X57260952Y-520281771D02*
X57499047Y-520281771D01*
X57499047Y-520281771D02*
X57594285Y-520329390D01*
X57594285Y-520329390D02*
X57641904Y-520377009D01*
X57641904Y-520377009D02*
X57689523Y-520472247D01*
X57689523Y-520472247D02*
X57689523Y-520710342D01*
X57689523Y-520710342D02*
X57641904Y-520805580D01*
X57641904Y-520805580D02*
X57594285Y-520853200D01*
X57594285Y-520853200D02*
X57499047Y-520900819D01*
X57499047Y-520900819D02*
X57260952Y-520900819D01*
X57260952Y-520900819D02*
X57165714Y-520853200D01*
X57165714Y-520853200D02*
X57118095Y-520805580D01*
D11*
X48895000Y-100965000D02*
X62865000Y-100965000D01*
X48895000Y-114935000D02*
X48895000Y-100965000D01*
X62865000Y-100965000D02*
X62865000Y-114935000D01*
X62865000Y-114935000D02*
X48895000Y-114935000D01*
X48895000Y-344805000D02*
X62865000Y-344805000D01*
X48895000Y-358775000D02*
X48895000Y-344805000D01*
X62865000Y-344805000D02*
X62865000Y-358775000D01*
X62865000Y-358775000D02*
X48895000Y-358775000D01*
X48895000Y-43815000D02*
X62865000Y-43815000D01*
X48895000Y-57785000D02*
X48895000Y-43815000D01*
X62865000Y-43815000D02*
X62865000Y-57785000D01*
X62865000Y-57785000D02*
X48895000Y-57785000D01*
X48895000Y-263525000D02*
X62865000Y-263525000D01*
X48895000Y-277495000D02*
X48895000Y-263525000D01*
X62865000Y-263525000D02*
X62865000Y-277495000D01*
X62865000Y-277495000D02*
X48895000Y-277495000D01*
X48895000Y-81915000D02*
X62865000Y-81915000D01*
X48895000Y-95885000D02*
X48895000Y-81915000D01*
X62865000Y-81915000D02*
X62865000Y-95885000D01*
X62865000Y-95885000D02*
X48895000Y-95885000D01*
X48895000Y-144145000D02*
X62865000Y-144145000D01*
X48895000Y-158115000D02*
X48895000Y-144145000D01*
X62865000Y-144145000D02*
X62865000Y-158115000D01*
X62865000Y-158115000D02*
X48895000Y-158115000D01*
X48895000Y-244475000D02*
X62865000Y-244475000D01*
X48895000Y-258445000D02*
X48895000Y-244475000D01*
X62865000Y-244475000D02*
X62865000Y-258445000D01*
X62865000Y-258445000D02*
X48895000Y-258445000D01*
X48895000Y-483235000D02*
X62865000Y-483235000D01*
X48895000Y-497205000D02*
X48895000Y-483235000D01*
X62865000Y-483235000D02*
X62865000Y-497205000D01*
X62865000Y-497205000D02*
X48895000Y-497205000D01*
X48895000Y-163195000D02*
X62865000Y-163195000D01*
X48895000Y-177165000D02*
X48895000Y-163195000D01*
X62865000Y-163195000D02*
X62865000Y-177165000D01*
X62865000Y-177165000D02*
X48895000Y-177165000D01*
X48895000Y-464185000D02*
X62865000Y-464185000D01*
X48895000Y-478155000D02*
X48895000Y-464185000D01*
X62865000Y-464185000D02*
X62865000Y-478155000D01*
X62865000Y-478155000D02*
X48895000Y-478155000D01*
X48895000Y-201295000D02*
X62865000Y-201295000D01*
X48895000Y-215265000D02*
X48895000Y-201295000D01*
X62865000Y-201295000D02*
X62865000Y-215265000D01*
X62865000Y-215265000D02*
X48895000Y-215265000D01*
X48895000Y-182245000D02*
X62865000Y-182245000D01*
X48895000Y-196215000D02*
X48895000Y-182245000D01*
X62865000Y-182245000D02*
X62865000Y-196215000D01*
X62865000Y-196215000D02*
X48895000Y-196215000D01*
X48895000Y-382905000D02*
X62865000Y-382905000D01*
X48895000Y-396875000D02*
X48895000Y-382905000D01*
X62865000Y-382905000D02*
X62865000Y-396875000D01*
X62865000Y-396875000D02*
X48895000Y-396875000D01*
X48895000Y-502285000D02*
X62865000Y-502285000D01*
X48895000Y-516255000D02*
X48895000Y-502285000D01*
X62865000Y-502285000D02*
X62865000Y-516255000D01*
X62865000Y-516255000D02*
X48895000Y-516255000D01*
X48895000Y-301625000D02*
X62865000Y-301625000D01*
X48895000Y-315595000D02*
X48895000Y-301625000D01*
X62865000Y-301625000D02*
X62865000Y-315595000D01*
X62865000Y-315595000D02*
X48895000Y-315595000D01*
X48895000Y-401955000D02*
X62865000Y-401955000D01*
X48895000Y-415925000D02*
X48895000Y-401955000D01*
X62865000Y-401955000D02*
X62865000Y-415925000D01*
X62865000Y-415925000D02*
X48895000Y-415925000D01*
X48895000Y-220345000D02*
X62865000Y-220345000D01*
X48895000Y-234315000D02*
X48895000Y-220345000D01*
X62865000Y-220345000D02*
X62865000Y-234315000D01*
X62865000Y-234315000D02*
X48895000Y-234315000D01*
X48895000Y-320675000D02*
X62865000Y-320675000D01*
X48895000Y-334645000D02*
X48895000Y-320675000D01*
X62865000Y-320675000D02*
X62865000Y-334645000D01*
X62865000Y-334645000D02*
X48895000Y-334645000D01*
X48895000Y-282575000D02*
X62865000Y-282575000D01*
X48895000Y-296545000D02*
X48895000Y-282575000D01*
X62865000Y-282575000D02*
X62865000Y-296545000D01*
X62865000Y-296545000D02*
X48895000Y-296545000D01*
X48895000Y-120015000D02*
X62865000Y-120015000D01*
X48895000Y-133985000D02*
X48895000Y-120015000D01*
X62865000Y-120015000D02*
X62865000Y-133985000D01*
X62865000Y-133985000D02*
X48895000Y-133985000D01*
X48895000Y-62865000D02*
X62865000Y-62865000D01*
X48895000Y-76835000D02*
X48895000Y-62865000D01*
X62865000Y-62865000D02*
X62865000Y-76835000D01*
X62865000Y-76835000D02*
X48895000Y-76835000D01*
X48895000Y-445135000D02*
X62865000Y-445135000D01*
X48895000Y-459105000D02*
X48895000Y-445135000D01*
X62865000Y-445135000D02*
X62865000Y-459105000D01*
X62865000Y-459105000D02*
X48895000Y-459105000D01*
X48895000Y-363855000D02*
X62865000Y-363855000D01*
X48895000Y-377825000D02*
X48895000Y-363855000D01*
X62865000Y-363855000D02*
X62865000Y-377825000D01*
X62865000Y-377825000D02*
X48895000Y-377825000D01*
X48895000Y-421005000D02*
X62865000Y-421005000D01*
X48895000Y-434975000D02*
X48895000Y-421005000D01*
X62865000Y-421005000D02*
X62865000Y-434975000D01*
X62865000Y-434975000D02*
X48895000Y-434975000D01*
X48895000Y-521335000D02*
X62865000Y-521335000D01*
X48895000Y-535305000D02*
X48895000Y-521335000D01*
X62865000Y-521335000D02*
X62865000Y-535305000D01*
X62865000Y-535305000D02*
X48895000Y-535305000D01*
%LPC*%
D12*
X50800000Y-107950000D03*
D13*
X55880000Y-107950000D03*
D12*
X60960000Y-107950000D03*
D14*
X58420000Y-102870000D03*
X52070000Y-105410000D03*
D12*
X50800000Y-351790000D03*
D13*
X55880000Y-351790000D03*
D12*
X60960000Y-351790000D03*
D14*
X58420000Y-346710000D03*
X52070000Y-349250000D03*
D12*
X50800000Y-50800000D03*
D13*
X55880000Y-50800000D03*
D12*
X60960000Y-50800000D03*
D14*
X58420000Y-45720000D03*
X52070000Y-48260000D03*
D15*
X55880000Y-139065000D03*
X55880000Y-440055000D03*
D12*
X50800000Y-270510000D03*
D13*
X55880000Y-270510000D03*
D12*
X60960000Y-270510000D03*
D14*
X58420000Y-265430000D03*
X52070000Y-267970000D03*
D12*
X50800000Y-88900000D03*
D13*
X55880000Y-88900000D03*
D12*
X60960000Y-88900000D03*
D14*
X58420000Y-83820000D03*
X52070000Y-86360000D03*
D12*
X50800000Y-151130000D03*
D13*
X55880000Y-151130000D03*
D12*
X60960000Y-151130000D03*
D14*
X58420000Y-146050000D03*
X52070000Y-148590000D03*
D12*
X50800000Y-251460000D03*
D13*
X55880000Y-251460000D03*
D12*
X60960000Y-251460000D03*
D14*
X58420000Y-246380000D03*
X52070000Y-248920000D03*
D12*
X50800000Y-490220000D03*
D13*
X55880000Y-490220000D03*
D12*
X60960000Y-490220000D03*
D14*
X58420000Y-485140000D03*
X52070000Y-487680000D03*
D12*
X50800000Y-170180000D03*
D13*
X55880000Y-170180000D03*
D12*
X60960000Y-170180000D03*
D14*
X58420000Y-165100000D03*
X52070000Y-167640000D03*
D15*
X55880000Y-339725000D03*
D12*
X50800000Y-471170000D03*
D13*
X55880000Y-471170000D03*
D12*
X60960000Y-471170000D03*
D14*
X58420000Y-466090000D03*
X52070000Y-468630000D03*
D12*
X50800000Y-208280000D03*
D13*
X55880000Y-208280000D03*
D12*
X60960000Y-208280000D03*
D14*
X58420000Y-203200000D03*
X52070000Y-205740000D03*
D12*
X50800000Y-189230000D03*
D13*
X55880000Y-189230000D03*
D12*
X60960000Y-189230000D03*
D14*
X58420000Y-184150000D03*
X52070000Y-186690000D03*
D12*
X50800000Y-389890000D03*
D13*
X55880000Y-389890000D03*
D12*
X60960000Y-389890000D03*
D14*
X58420000Y-384810000D03*
X52070000Y-387350000D03*
D12*
X50800000Y-509270000D03*
D13*
X55880000Y-509270000D03*
D12*
X60960000Y-509270000D03*
D14*
X58420000Y-504190000D03*
X52070000Y-506730000D03*
D12*
X50800000Y-308610000D03*
D13*
X55880000Y-308610000D03*
D12*
X60960000Y-308610000D03*
D14*
X58420000Y-303530000D03*
X52070000Y-306070000D03*
D12*
X50800000Y-408940000D03*
D13*
X55880000Y-408940000D03*
D12*
X60960000Y-408940000D03*
D14*
X58420000Y-403860000D03*
X52070000Y-406400000D03*
D12*
X50800000Y-227330000D03*
D13*
X55880000Y-227330000D03*
D12*
X60960000Y-227330000D03*
D14*
X58420000Y-222250000D03*
X52070000Y-224790000D03*
D12*
X50800000Y-327660000D03*
D13*
X55880000Y-327660000D03*
D12*
X60960000Y-327660000D03*
D14*
X58420000Y-322580000D03*
X52070000Y-325120000D03*
D12*
X50800000Y-289560000D03*
D13*
X55880000Y-289560000D03*
D12*
X60960000Y-289560000D03*
D14*
X58420000Y-284480000D03*
X52070000Y-287020000D03*
D12*
X50800000Y-127000000D03*
D13*
X55880000Y-127000000D03*
D12*
X60960000Y-127000000D03*
D14*
X58420000Y-121920000D03*
X52070000Y-124460000D03*
D12*
X50800000Y-69850000D03*
D13*
X55880000Y-69850000D03*
D12*
X60960000Y-69850000D03*
D14*
X58420000Y-64770000D03*
X52070000Y-67310000D03*
D12*
X50800000Y-452120000D03*
D13*
X55880000Y-452120000D03*
D12*
X60960000Y-452120000D03*
D14*
X58420000Y-447040000D03*
X52070000Y-449580000D03*
D12*
X50800000Y-370840000D03*
D13*
X55880000Y-370840000D03*
D12*
X60960000Y-370840000D03*
D14*
X58420000Y-365760000D03*
X52070000Y-368300000D03*
D12*
X50800000Y-427990000D03*
D13*
X55880000Y-427990000D03*
D12*
X60960000Y-427990000D03*
D14*
X58420000Y-422910000D03*
X52070000Y-425450000D03*
D12*
X50800000Y-528320000D03*
D13*
X55880000Y-528320000D03*
D12*
X60960000Y-528320000D03*
D14*
X58420000Y-523240000D03*
X52070000Y-525780000D03*
D16*
X46990000Y-41910000D03*
D17*
X46990000Y-44450000D03*
X46990000Y-46990000D03*
X46990000Y-49530000D03*
X46990000Y-52070000D03*
X46990000Y-54610000D03*
X46990000Y-57150000D03*
X46990000Y-59690000D03*
X46990000Y-62230000D03*
X46990000Y-64770000D03*
X46990000Y-67310000D03*
X46990000Y-69850000D03*
X46990000Y-72390000D03*
X46990000Y-74930000D03*
X46990000Y-77470000D03*
X46990000Y-80010000D03*
X46990000Y-82550000D03*
X46990000Y-85090000D03*
X46990000Y-87630000D03*
X46990000Y-90170000D03*
D16*
X62992000Y-235458000D03*
D17*
X62992000Y-237998000D03*
X62992000Y-240538000D03*
X62992000Y-243078000D03*
D16*
X64770000Y-41910000D03*
D17*
X64770000Y-44450000D03*
X64770000Y-46990000D03*
X64770000Y-49530000D03*
X64770000Y-52070000D03*
X64770000Y-54610000D03*
X64770000Y-57150000D03*
X64770000Y-59690000D03*
X64770000Y-62230000D03*
X64770000Y-64770000D03*
X64770000Y-67310000D03*
X64770000Y-69850000D03*
X64770000Y-72390000D03*
X64770000Y-74930000D03*
X64770000Y-77470000D03*
X64770000Y-80010000D03*
X64770000Y-82550000D03*
X64770000Y-85090000D03*
X64770000Y-87630000D03*
X64770000Y-90170000D03*
%LPD*%
M02*
