M48
; DRILL file {KiCad 8.0.9-8.0.9-0~ubuntu20.04.1} date 2025-06-05T20:46:04+0100
; FORMAT={-:-/ absolute / metric / decimal}
; #@! TF.CreationDate,2025-06-05T20:46:04+01:00
; #@! TF.GenerationSoftware,Kicad,Pcbnew,8.0.9-8.0.9-0~ubuntu20.04.1
; #@! TF.FileFunction,NonPlated,1,2,NPTH
FMAT,2
METRIC
; #@! TA.AperFunction,NonPlated,NPTH,ComponentDrill
T1C1.700
; #@! TA.AperFunction,NonPlated,NPTH,ComponentDrill
T2C4.000
%
G90
G05
T1
X50.8Y-50.8
X50.8Y-69.85
X50.8Y-88.9
X50.8Y-107.95
X50.8Y-127.0
X50.8Y-151.13
X50.8Y-170.18
X50.8Y-189.23
X50.8Y-208.28
X50.8Y-227.33
X50.8Y-251.46
X50.8Y-270.51
X50.8Y-289.56
X50.8Y-308.61
X50.8Y-327.66
X50.8Y-351.79
X50.8Y-370.84
X50.8Y-389.89
X50.8Y-408.94
X50.8Y-427.99
X50.8Y-452.12
X50.8Y-471.17
X50.8Y-490.22
X50.8Y-509.27
X50.8Y-528.32
X60.96Y-50.8
X60.96Y-69.85
X60.96Y-88.9
X60.96Y-107.95
X60.96Y-127.0
X60.96Y-151.13
X60.96Y-170.18
X60.96Y-189.23
X60.96Y-208.28
X60.96Y-227.33
X60.96Y-251.46
X60.96Y-270.51
X60.96Y-289.56
X60.96Y-308.61
X60.96Y-327.66
X60.96Y-351.79
X60.96Y-370.84
X60.96Y-389.89
X60.96Y-408.94
X60.96Y-427.99
X60.96Y-452.12
X60.96Y-471.17
X60.96Y-490.22
X60.96Y-509.27
X60.96Y-528.32
T2
X55.88Y-50.8
X55.88Y-69.85
X55.88Y-88.9
X55.88Y-107.95
X55.88Y-127.0
X55.88Y-151.13
X55.88Y-170.18
X55.88Y-189.23
X55.88Y-208.28
X55.88Y-227.33
X55.88Y-251.46
X55.88Y-270.51
X55.88Y-289.56
X55.88Y-308.61
X55.88Y-327.66
X55.88Y-351.79
X55.88Y-370.84
X55.88Y-389.89
X55.88Y-408.94
X55.88Y-427.99
X55.88Y-452.12
X55.88Y-471.17
X55.88Y-490.22
X55.88Y-509.27
X55.88Y-528.32
M30
