%TF.GenerationSoftware,KiCad,Pcbnew,8.0.9-8.0.9-0~ubuntu20.04.1*%
%TF.CreationDate,2025-06-05T20:21:06+01:00*%
%TF.ProjectId,keyboard-pcb-rpi-pico-1x25,6b657962-6f61-4726-942d-7063622d7270,rev?*%
%TF.SameCoordinates,Original*%
%TF.FileFunction,Drillmap*%
%TF.FilePolarity,Positive*%
%FSLAX45Y45*%
G04 Gerber Fmt 4.5, Leading zero omitted, Abs format (unit mm)*
G04 Created by KiCad (PCBNEW 8.0.9-8.0.9-0~ubuntu20.04.1) date 2025-06-05 20:21:06*
%MOMM*%
%LPD*%
G01*
G04 APERTURE LIST*
%ADD10C,0.050000*%
%ADD11C,0.200000*%
%ADD12C,0.170000*%
%ADD13C,0.400000*%
G04 APERTURE END LIST*
D10*
X5341620Y-51701300D02*
X5341620Y-52057700D01*
D11*
X4318000Y-3937000D02*
X6858000Y-3937000D01*
X6858000Y-53848000D01*
X4318000Y-53848000D01*
X4318000Y-3937000D01*
D10*
X5316620Y-51676300D02*
G75*
G02*
X5341620Y-51701300I0J-25000D01*
G01*
X4935220Y-51701300D02*
G75*
G02*
X4960220Y-51676300I25000J0D01*
G01*
X5316620Y-52082700D02*
X4960220Y-52082700D01*
X4960220Y-52082700D02*
G75*
G02*
X4935220Y-52057700I0J25000D01*
G01*
X5341620Y-52057700D02*
G75*
G02*
X5316620Y-52082700I-25000J0D01*
G01*
X4960220Y-51676300D02*
X5316620Y-51676300D01*
X4935220Y-52057700D02*
X4935220Y-51701300D01*
D11*
D12*
X4995000Y-4995000D02*
X5165000Y-5165000D01*
X5165000Y-4995000D02*
X4995000Y-5165000D01*
X4995000Y-6900000D02*
X5165000Y-7070000D01*
X5165000Y-6900000D02*
X4995000Y-7070000D01*
X4995000Y-8805000D02*
X5165000Y-8975000D01*
X5165000Y-8805000D02*
X4995000Y-8975000D01*
X4995000Y-10710000D02*
X5165000Y-10880000D01*
X5165000Y-10710000D02*
X4995000Y-10880000D01*
X4995000Y-12615000D02*
X5165000Y-12785000D01*
X5165000Y-12615000D02*
X4995000Y-12785000D01*
X4995000Y-15028000D02*
X5165000Y-15198000D01*
X5165000Y-15028000D02*
X4995000Y-15198000D01*
X4995000Y-16933000D02*
X5165000Y-17103000D01*
X5165000Y-16933000D02*
X4995000Y-17103000D01*
X4995000Y-18838000D02*
X5165000Y-19008000D01*
X5165000Y-18838000D02*
X4995000Y-19008000D01*
X4995000Y-20743000D02*
X5165000Y-20913000D01*
X5165000Y-20743000D02*
X4995000Y-20913000D01*
X4995000Y-22648000D02*
X5165000Y-22818000D01*
X5165000Y-22648000D02*
X4995000Y-22818000D01*
X4995000Y-25061000D02*
X5165000Y-25231000D01*
X5165000Y-25061000D02*
X4995000Y-25231000D01*
X4995000Y-26966000D02*
X5165000Y-27136000D01*
X5165000Y-26966000D02*
X4995000Y-27136000D01*
X4995000Y-28871000D02*
X5165000Y-29041000D01*
X5165000Y-28871000D02*
X4995000Y-29041000D01*
X4995000Y-30776000D02*
X5165000Y-30946000D01*
X5165000Y-30776000D02*
X4995000Y-30946000D01*
X4995000Y-32681000D02*
X5165000Y-32851000D01*
X5165000Y-32681000D02*
X4995000Y-32851000D01*
X4995000Y-35094000D02*
X5165000Y-35264000D01*
X5165000Y-35094000D02*
X4995000Y-35264000D01*
X4995000Y-36999000D02*
X5165000Y-37169000D01*
X5165000Y-36999000D02*
X4995000Y-37169000D01*
X4995000Y-38904000D02*
X5165000Y-39074000D01*
X5165000Y-38904000D02*
X4995000Y-39074000D01*
X4995000Y-40809000D02*
X5165000Y-40979000D01*
X5165000Y-40809000D02*
X4995000Y-40979000D01*
X4995000Y-42714000D02*
X5165000Y-42884000D01*
X5165000Y-42714000D02*
X4995000Y-42884000D01*
X4995000Y-45127000D02*
X5165000Y-45297000D01*
X5165000Y-45127000D02*
X4995000Y-45297000D01*
X4995000Y-47032000D02*
X5165000Y-47202000D01*
X5165000Y-47032000D02*
X4995000Y-47202000D01*
X4995000Y-48937000D02*
X5165000Y-49107000D01*
X5165000Y-48937000D02*
X4995000Y-49107000D01*
X4995000Y-50842000D02*
X5165000Y-51012000D01*
X5165000Y-50842000D02*
X4995000Y-51012000D01*
X4995000Y-52747000D02*
X5165000Y-52917000D01*
X5165000Y-52747000D02*
X4995000Y-52917000D01*
X6011000Y-4995000D02*
X6181000Y-5165000D01*
X6181000Y-4995000D02*
X6011000Y-5165000D01*
X6011000Y-6900000D02*
X6181000Y-7070000D01*
X6181000Y-6900000D02*
X6011000Y-7070000D01*
X6011000Y-8805000D02*
X6181000Y-8975000D01*
X6181000Y-8805000D02*
X6011000Y-8975000D01*
X6011000Y-10710000D02*
X6181000Y-10880000D01*
X6181000Y-10710000D02*
X6011000Y-10880000D01*
X6011000Y-12615000D02*
X6181000Y-12785000D01*
X6181000Y-12615000D02*
X6011000Y-12785000D01*
X6011000Y-15028000D02*
X6181000Y-15198000D01*
X6181000Y-15028000D02*
X6011000Y-15198000D01*
X6011000Y-16933000D02*
X6181000Y-17103000D01*
X6181000Y-16933000D02*
X6011000Y-17103000D01*
X6011000Y-18838000D02*
X6181000Y-19008000D01*
X6181000Y-18838000D02*
X6011000Y-19008000D01*
X6011000Y-20743000D02*
X6181000Y-20913000D01*
X6181000Y-20743000D02*
X6011000Y-20913000D01*
X6011000Y-22648000D02*
X6181000Y-22818000D01*
X6181000Y-22648000D02*
X6011000Y-22818000D01*
X6011000Y-25061000D02*
X6181000Y-25231000D01*
X6181000Y-25061000D02*
X6011000Y-25231000D01*
X6011000Y-26966000D02*
X6181000Y-27136000D01*
X6181000Y-26966000D02*
X6011000Y-27136000D01*
X6011000Y-28871000D02*
X6181000Y-29041000D01*
X6181000Y-28871000D02*
X6011000Y-29041000D01*
X6011000Y-30776000D02*
X6181000Y-30946000D01*
X6181000Y-30776000D02*
X6011000Y-30946000D01*
X6011000Y-32681000D02*
X6181000Y-32851000D01*
X6181000Y-32681000D02*
X6011000Y-32851000D01*
X6011000Y-35094000D02*
X6181000Y-35264000D01*
X6181000Y-35094000D02*
X6011000Y-35264000D01*
X6011000Y-36999000D02*
X6181000Y-37169000D01*
X6181000Y-36999000D02*
X6011000Y-37169000D01*
X6011000Y-38904000D02*
X6181000Y-39074000D01*
X6181000Y-38904000D02*
X6011000Y-39074000D01*
X6011000Y-40809000D02*
X6181000Y-40979000D01*
X6181000Y-40809000D02*
X6011000Y-40979000D01*
X6011000Y-42714000D02*
X6181000Y-42884000D01*
X6181000Y-42714000D02*
X6011000Y-42884000D01*
X6011000Y-45127000D02*
X6181000Y-45297000D01*
X6181000Y-45127000D02*
X6011000Y-45297000D01*
X6011000Y-47032000D02*
X6181000Y-47202000D01*
X6181000Y-47032000D02*
X6011000Y-47202000D01*
X6011000Y-48937000D02*
X6181000Y-49107000D01*
X6181000Y-48937000D02*
X6011000Y-49107000D01*
X6011000Y-50842000D02*
X6181000Y-51012000D01*
X6181000Y-50842000D02*
X6011000Y-51012000D01*
X6011000Y-52747000D02*
X6181000Y-52917000D01*
X6181000Y-52747000D02*
X6011000Y-52917000D01*
D13*
X5788000Y-5080000D02*
G75*
G02*
X5388000Y-5080000I-200000J0D01*
G01*
X5388000Y-5080000D02*
G75*
G02*
X5788000Y-5080000I200000J0D01*
G01*
X5788000Y-6985000D02*
G75*
G02*
X5388000Y-6985000I-200000J0D01*
G01*
X5388000Y-6985000D02*
G75*
G02*
X5788000Y-6985000I200000J0D01*
G01*
X5788000Y-8890000D02*
G75*
G02*
X5388000Y-8890000I-200000J0D01*
G01*
X5388000Y-8890000D02*
G75*
G02*
X5788000Y-8890000I200000J0D01*
G01*
X5788000Y-10795000D02*
G75*
G02*
X5388000Y-10795000I-200000J0D01*
G01*
X5388000Y-10795000D02*
G75*
G02*
X5788000Y-10795000I200000J0D01*
G01*
X5788000Y-12700000D02*
G75*
G02*
X5388000Y-12700000I-200000J0D01*
G01*
X5388000Y-12700000D02*
G75*
G02*
X5788000Y-12700000I200000J0D01*
G01*
X5788000Y-15113000D02*
G75*
G02*
X5388000Y-15113000I-200000J0D01*
G01*
X5388000Y-15113000D02*
G75*
G02*
X5788000Y-15113000I200000J0D01*
G01*
X5788000Y-17018000D02*
G75*
G02*
X5388000Y-17018000I-200000J0D01*
G01*
X5388000Y-17018000D02*
G75*
G02*
X5788000Y-17018000I200000J0D01*
G01*
X5788000Y-18923000D02*
G75*
G02*
X5388000Y-18923000I-200000J0D01*
G01*
X5388000Y-18923000D02*
G75*
G02*
X5788000Y-18923000I200000J0D01*
G01*
X5788000Y-20828000D02*
G75*
G02*
X5388000Y-20828000I-200000J0D01*
G01*
X5388000Y-20828000D02*
G75*
G02*
X5788000Y-20828000I200000J0D01*
G01*
X5788000Y-22733000D02*
G75*
G02*
X5388000Y-22733000I-200000J0D01*
G01*
X5388000Y-22733000D02*
G75*
G02*
X5788000Y-22733000I200000J0D01*
G01*
X5788000Y-25146000D02*
G75*
G02*
X5388000Y-25146000I-200000J0D01*
G01*
X5388000Y-25146000D02*
G75*
G02*
X5788000Y-25146000I200000J0D01*
G01*
X5788000Y-27051000D02*
G75*
G02*
X5388000Y-27051000I-200000J0D01*
G01*
X5388000Y-27051000D02*
G75*
G02*
X5788000Y-27051000I200000J0D01*
G01*
X5788000Y-28956000D02*
G75*
G02*
X5388000Y-28956000I-200000J0D01*
G01*
X5388000Y-28956000D02*
G75*
G02*
X5788000Y-28956000I200000J0D01*
G01*
X5788000Y-30861000D02*
G75*
G02*
X5388000Y-30861000I-200000J0D01*
G01*
X5388000Y-30861000D02*
G75*
G02*
X5788000Y-30861000I200000J0D01*
G01*
X5788000Y-32766000D02*
G75*
G02*
X5388000Y-32766000I-200000J0D01*
G01*
X5388000Y-32766000D02*
G75*
G02*
X5788000Y-32766000I200000J0D01*
G01*
X5788000Y-35179000D02*
G75*
G02*
X5388000Y-35179000I-200000J0D01*
G01*
X5388000Y-35179000D02*
G75*
G02*
X5788000Y-35179000I200000J0D01*
G01*
X5788000Y-37084000D02*
G75*
G02*
X5388000Y-37084000I-200000J0D01*
G01*
X5388000Y-37084000D02*
G75*
G02*
X5788000Y-37084000I200000J0D01*
G01*
X5788000Y-38989000D02*
G75*
G02*
X5388000Y-38989000I-200000J0D01*
G01*
X5388000Y-38989000D02*
G75*
G02*
X5788000Y-38989000I200000J0D01*
G01*
X5788000Y-40894000D02*
G75*
G02*
X5388000Y-40894000I-200000J0D01*
G01*
X5388000Y-40894000D02*
G75*
G02*
X5788000Y-40894000I200000J0D01*
G01*
X5788000Y-42799000D02*
G75*
G02*
X5388000Y-42799000I-200000J0D01*
G01*
X5388000Y-42799000D02*
G75*
G02*
X5788000Y-42799000I200000J0D01*
G01*
X5788000Y-45212000D02*
G75*
G02*
X5388000Y-45212000I-200000J0D01*
G01*
X5388000Y-45212000D02*
G75*
G02*
X5788000Y-45212000I200000J0D01*
G01*
X5788000Y-47117000D02*
G75*
G02*
X5388000Y-47117000I-200000J0D01*
G01*
X5388000Y-47117000D02*
G75*
G02*
X5788000Y-47117000I200000J0D01*
G01*
X5788000Y-49022000D02*
G75*
G02*
X5388000Y-49022000I-200000J0D01*
G01*
X5388000Y-49022000D02*
G75*
G02*
X5788000Y-49022000I200000J0D01*
G01*
X5788000Y-50927000D02*
G75*
G02*
X5388000Y-50927000I-200000J0D01*
G01*
X5388000Y-50927000D02*
G75*
G02*
X5788000Y-50927000I200000J0D01*
G01*
X5788000Y-52832000D02*
G75*
G02*
X5388000Y-52832000I-200000J0D01*
G01*
X5388000Y-52832000D02*
G75*
G02*
X5788000Y-52832000I200000J0D01*
G01*
D11*
X4568777Y-54169484D02*
X4568777Y-53969484D01*
X4568777Y-53969484D02*
X4616396Y-53969484D01*
X4616396Y-53969484D02*
X4644967Y-53979008D01*
X4644967Y-53979008D02*
X4664015Y-53998055D01*
X4664015Y-53998055D02*
X4673539Y-54017103D01*
X4673539Y-54017103D02*
X4683063Y-54055198D01*
X4683063Y-54055198D02*
X4683063Y-54083769D01*
X4683063Y-54083769D02*
X4673539Y-54121865D01*
X4673539Y-54121865D02*
X4664015Y-54140912D01*
X4664015Y-54140912D02*
X4644967Y-54159960D01*
X4644967Y-54159960D02*
X4616396Y-54169484D01*
X4616396Y-54169484D02*
X4568777Y-54169484D01*
X4768777Y-54169484D02*
X4768777Y-54036150D01*
X4768777Y-54074246D02*
X4778301Y-54055198D01*
X4778301Y-54055198D02*
X4787824Y-54045674D01*
X4787824Y-54045674D02*
X4806872Y-54036150D01*
X4806872Y-54036150D02*
X4825920Y-54036150D01*
X4892586Y-54169484D02*
X4892586Y-54036150D01*
X4892586Y-53969484D02*
X4883063Y-53979008D01*
X4883063Y-53979008D02*
X4892586Y-53988531D01*
X4892586Y-53988531D02*
X4902110Y-53979008D01*
X4902110Y-53979008D02*
X4892586Y-53969484D01*
X4892586Y-53969484D02*
X4892586Y-53988531D01*
X5016396Y-54169484D02*
X4997348Y-54159960D01*
X4997348Y-54159960D02*
X4987824Y-54140912D01*
X4987824Y-54140912D02*
X4987824Y-53969484D01*
X5121158Y-54169484D02*
X5102110Y-54159960D01*
X5102110Y-54159960D02*
X5092586Y-54140912D01*
X5092586Y-54140912D02*
X5092586Y-53969484D01*
X5349729Y-54169484D02*
X5349729Y-53969484D01*
X5349729Y-53969484D02*
X5416396Y-54112341D01*
X5416396Y-54112341D02*
X5483063Y-53969484D01*
X5483063Y-53969484D02*
X5483063Y-54169484D01*
X5664015Y-54169484D02*
X5664015Y-54064722D01*
X5664015Y-54064722D02*
X5654491Y-54045674D01*
X5654491Y-54045674D02*
X5635443Y-54036150D01*
X5635443Y-54036150D02*
X5597348Y-54036150D01*
X5597348Y-54036150D02*
X5578301Y-54045674D01*
X5664015Y-54159960D02*
X5644967Y-54169484D01*
X5644967Y-54169484D02*
X5597348Y-54169484D01*
X5597348Y-54169484D02*
X5578301Y-54159960D01*
X5578301Y-54159960D02*
X5568777Y-54140912D01*
X5568777Y-54140912D02*
X5568777Y-54121865D01*
X5568777Y-54121865D02*
X5578301Y-54102817D01*
X5578301Y-54102817D02*
X5597348Y-54093293D01*
X5597348Y-54093293D02*
X5644967Y-54093293D01*
X5644967Y-54093293D02*
X5664015Y-54083769D01*
X5759253Y-54036150D02*
X5759253Y-54236150D01*
X5759253Y-54045674D02*
X5778301Y-54036150D01*
X5778301Y-54036150D02*
X5816396Y-54036150D01*
X5816396Y-54036150D02*
X5835443Y-54045674D01*
X5835443Y-54045674D02*
X5844967Y-54055198D01*
X5844967Y-54055198D02*
X5854491Y-54074246D01*
X5854491Y-54074246D02*
X5854491Y-54131388D01*
X5854491Y-54131388D02*
X5844967Y-54150436D01*
X5844967Y-54150436D02*
X5835443Y-54159960D01*
X5835443Y-54159960D02*
X5816396Y-54169484D01*
X5816396Y-54169484D02*
X5778301Y-54169484D01*
X5778301Y-54169484D02*
X5759253Y-54159960D01*
X5940205Y-54150436D02*
X5949729Y-54159960D01*
X5949729Y-54159960D02*
X5940205Y-54169484D01*
X5940205Y-54169484D02*
X5930682Y-54159960D01*
X5930682Y-54159960D02*
X5940205Y-54150436D01*
X5940205Y-54150436D02*
X5940205Y-54169484D01*
X5940205Y-54045674D02*
X5949729Y-54055198D01*
X5949729Y-54055198D02*
X5940205Y-54064722D01*
X5940205Y-54064722D02*
X5930682Y-54055198D01*
X5930682Y-54055198D02*
X5940205Y-54045674D01*
X5940205Y-54045674D02*
X5940205Y-54064722D01*
D12*
X4138000Y-54413000D02*
X4308000Y-54583000D01*
X4308000Y-54413000D02*
X4138000Y-54583000D01*
D11*
X4673539Y-54589484D02*
X4559253Y-54589484D01*
X4616396Y-54589484D02*
X4616396Y-54389484D01*
X4616396Y-54389484D02*
X4597348Y-54418055D01*
X4597348Y-54418055D02*
X4578301Y-54437103D01*
X4578301Y-54437103D02*
X4559253Y-54446627D01*
X4759253Y-54570436D02*
X4768777Y-54579960D01*
X4768777Y-54579960D02*
X4759253Y-54589484D01*
X4759253Y-54589484D02*
X4749729Y-54579960D01*
X4749729Y-54579960D02*
X4759253Y-54570436D01*
X4759253Y-54570436D02*
X4759253Y-54589484D01*
X4835444Y-54389484D02*
X4968777Y-54389484D01*
X4968777Y-54389484D02*
X4883063Y-54589484D01*
X5083063Y-54389484D02*
X5102110Y-54389484D01*
X5102110Y-54389484D02*
X5121158Y-54399008D01*
X5121158Y-54399008D02*
X5130682Y-54408531D01*
X5130682Y-54408531D02*
X5140205Y-54427579D01*
X5140205Y-54427579D02*
X5149729Y-54465674D01*
X5149729Y-54465674D02*
X5149729Y-54513293D01*
X5149729Y-54513293D02*
X5140205Y-54551388D01*
X5140205Y-54551388D02*
X5130682Y-54570436D01*
X5130682Y-54570436D02*
X5121158Y-54579960D01*
X5121158Y-54579960D02*
X5102110Y-54589484D01*
X5102110Y-54589484D02*
X5083063Y-54589484D01*
X5083063Y-54589484D02*
X5064015Y-54579960D01*
X5064015Y-54579960D02*
X5054491Y-54570436D01*
X5054491Y-54570436D02*
X5044967Y-54551388D01*
X5044967Y-54551388D02*
X5035444Y-54513293D01*
X5035444Y-54513293D02*
X5035444Y-54465674D01*
X5035444Y-54465674D02*
X5044967Y-54427579D01*
X5044967Y-54427579D02*
X5054491Y-54408531D01*
X5054491Y-54408531D02*
X5064015Y-54399008D01*
X5064015Y-54399008D02*
X5083063Y-54389484D01*
X5273539Y-54389484D02*
X5292586Y-54389484D01*
X5292586Y-54389484D02*
X5311634Y-54399008D01*
X5311634Y-54399008D02*
X5321158Y-54408531D01*
X5321158Y-54408531D02*
X5330682Y-54427579D01*
X5330682Y-54427579D02*
X5340205Y-54465674D01*
X5340205Y-54465674D02*
X5340205Y-54513293D01*
X5340205Y-54513293D02*
X5330682Y-54551388D01*
X5330682Y-54551388D02*
X5321158Y-54570436D01*
X5321158Y-54570436D02*
X5311634Y-54579960D01*
X5311634Y-54579960D02*
X5292586Y-54589484D01*
X5292586Y-54589484D02*
X5273539Y-54589484D01*
X5273539Y-54589484D02*
X5254491Y-54579960D01*
X5254491Y-54579960D02*
X5244967Y-54570436D01*
X5244967Y-54570436D02*
X5235444Y-54551388D01*
X5235444Y-54551388D02*
X5225920Y-54513293D01*
X5225920Y-54513293D02*
X5225920Y-54465674D01*
X5225920Y-54465674D02*
X5235444Y-54427579D01*
X5235444Y-54427579D02*
X5244967Y-54408531D01*
X5244967Y-54408531D02*
X5254491Y-54399008D01*
X5254491Y-54399008D02*
X5273539Y-54389484D01*
X5425920Y-54589484D02*
X5425920Y-54456150D01*
X5425920Y-54475198D02*
X5435444Y-54465674D01*
X5435444Y-54465674D02*
X5454491Y-54456150D01*
X5454491Y-54456150D02*
X5483063Y-54456150D01*
X5483063Y-54456150D02*
X5502110Y-54465674D01*
X5502110Y-54465674D02*
X5511634Y-54484722D01*
X5511634Y-54484722D02*
X5511634Y-54589484D01*
X5511634Y-54484722D02*
X5521158Y-54465674D01*
X5521158Y-54465674D02*
X5540205Y-54456150D01*
X5540205Y-54456150D02*
X5568777Y-54456150D01*
X5568777Y-54456150D02*
X5587825Y-54465674D01*
X5587825Y-54465674D02*
X5597348Y-54484722D01*
X5597348Y-54484722D02*
X5597348Y-54589484D01*
X5692586Y-54589484D02*
X5692586Y-54456150D01*
X5692586Y-54475198D02*
X5702110Y-54465674D01*
X5702110Y-54465674D02*
X5721158Y-54456150D01*
X5721158Y-54456150D02*
X5749729Y-54456150D01*
X5749729Y-54456150D02*
X5768777Y-54465674D01*
X5768777Y-54465674D02*
X5778301Y-54484722D01*
X5778301Y-54484722D02*
X5778301Y-54589484D01*
X5778301Y-54484722D02*
X5787824Y-54465674D01*
X5787824Y-54465674D02*
X5806872Y-54456150D01*
X5806872Y-54456150D02*
X5835443Y-54456150D01*
X5835443Y-54456150D02*
X5854491Y-54465674D01*
X5854491Y-54465674D02*
X5864015Y-54484722D01*
X5864015Y-54484722D02*
X5864015Y-54589484D01*
X6254491Y-54379960D02*
X6083063Y-54637103D01*
X6511634Y-54389484D02*
X6530682Y-54389484D01*
X6530682Y-54389484D02*
X6549729Y-54399008D01*
X6549729Y-54399008D02*
X6559253Y-54408531D01*
X6559253Y-54408531D02*
X6568777Y-54427579D01*
X6568777Y-54427579D02*
X6578301Y-54465674D01*
X6578301Y-54465674D02*
X6578301Y-54513293D01*
X6578301Y-54513293D02*
X6568777Y-54551388D01*
X6568777Y-54551388D02*
X6559253Y-54570436D01*
X6559253Y-54570436D02*
X6549729Y-54579960D01*
X6549729Y-54579960D02*
X6530682Y-54589484D01*
X6530682Y-54589484D02*
X6511634Y-54589484D01*
X6511634Y-54589484D02*
X6492586Y-54579960D01*
X6492586Y-54579960D02*
X6483063Y-54570436D01*
X6483063Y-54570436D02*
X6473539Y-54551388D01*
X6473539Y-54551388D02*
X6464015Y-54513293D01*
X6464015Y-54513293D02*
X6464015Y-54465674D01*
X6464015Y-54465674D02*
X6473539Y-54427579D01*
X6473539Y-54427579D02*
X6483063Y-54408531D01*
X6483063Y-54408531D02*
X6492586Y-54399008D01*
X6492586Y-54399008D02*
X6511634Y-54389484D01*
X6664015Y-54570436D02*
X6673539Y-54579960D01*
X6673539Y-54579960D02*
X6664015Y-54589484D01*
X6664015Y-54589484D02*
X6654491Y-54579960D01*
X6654491Y-54579960D02*
X6664015Y-54570436D01*
X6664015Y-54570436D02*
X6664015Y-54589484D01*
X6797348Y-54389484D02*
X6816396Y-54389484D01*
X6816396Y-54389484D02*
X6835444Y-54399008D01*
X6835444Y-54399008D02*
X6844967Y-54408531D01*
X6844967Y-54408531D02*
X6854491Y-54427579D01*
X6854491Y-54427579D02*
X6864015Y-54465674D01*
X6864015Y-54465674D02*
X6864015Y-54513293D01*
X6864015Y-54513293D02*
X6854491Y-54551388D01*
X6854491Y-54551388D02*
X6844967Y-54570436D01*
X6844967Y-54570436D02*
X6835444Y-54579960D01*
X6835444Y-54579960D02*
X6816396Y-54589484D01*
X6816396Y-54589484D02*
X6797348Y-54589484D01*
X6797348Y-54589484D02*
X6778301Y-54579960D01*
X6778301Y-54579960D02*
X6768777Y-54570436D01*
X6768777Y-54570436D02*
X6759253Y-54551388D01*
X6759253Y-54551388D02*
X6749729Y-54513293D01*
X6749729Y-54513293D02*
X6749729Y-54465674D01*
X6749729Y-54465674D02*
X6759253Y-54427579D01*
X6759253Y-54427579D02*
X6768777Y-54408531D01*
X6768777Y-54408531D02*
X6778301Y-54399008D01*
X6778301Y-54399008D02*
X6797348Y-54389484D01*
X7035444Y-54389484D02*
X6997348Y-54389484D01*
X6997348Y-54389484D02*
X6978301Y-54399008D01*
X6978301Y-54399008D02*
X6968777Y-54408531D01*
X6968777Y-54408531D02*
X6949729Y-54437103D01*
X6949729Y-54437103D02*
X6940206Y-54475198D01*
X6940206Y-54475198D02*
X6940206Y-54551388D01*
X6940206Y-54551388D02*
X6949729Y-54570436D01*
X6949729Y-54570436D02*
X6959253Y-54579960D01*
X6959253Y-54579960D02*
X6978301Y-54589484D01*
X6978301Y-54589484D02*
X7016396Y-54589484D01*
X7016396Y-54589484D02*
X7035444Y-54579960D01*
X7035444Y-54579960D02*
X7044967Y-54570436D01*
X7044967Y-54570436D02*
X7054491Y-54551388D01*
X7054491Y-54551388D02*
X7054491Y-54503769D01*
X7054491Y-54503769D02*
X7044967Y-54484722D01*
X7044967Y-54484722D02*
X7035444Y-54475198D01*
X7035444Y-54475198D02*
X7016396Y-54465674D01*
X7016396Y-54465674D02*
X6978301Y-54465674D01*
X6978301Y-54465674D02*
X6959253Y-54475198D01*
X6959253Y-54475198D02*
X6949729Y-54484722D01*
X6949729Y-54484722D02*
X6940206Y-54503769D01*
X7225920Y-54389484D02*
X7187825Y-54389484D01*
X7187825Y-54389484D02*
X7168777Y-54399008D01*
X7168777Y-54399008D02*
X7159253Y-54408531D01*
X7159253Y-54408531D02*
X7140206Y-54437103D01*
X7140206Y-54437103D02*
X7130682Y-54475198D01*
X7130682Y-54475198D02*
X7130682Y-54551388D01*
X7130682Y-54551388D02*
X7140206Y-54570436D01*
X7140206Y-54570436D02*
X7149729Y-54579960D01*
X7149729Y-54579960D02*
X7168777Y-54589484D01*
X7168777Y-54589484D02*
X7206872Y-54589484D01*
X7206872Y-54589484D02*
X7225920Y-54579960D01*
X7225920Y-54579960D02*
X7235444Y-54570436D01*
X7235444Y-54570436D02*
X7244967Y-54551388D01*
X7244967Y-54551388D02*
X7244967Y-54503769D01*
X7244967Y-54503769D02*
X7235444Y-54484722D01*
X7235444Y-54484722D02*
X7225920Y-54475198D01*
X7225920Y-54475198D02*
X7206872Y-54465674D01*
X7206872Y-54465674D02*
X7168777Y-54465674D01*
X7168777Y-54465674D02*
X7149729Y-54475198D01*
X7149729Y-54475198D02*
X7140206Y-54484722D01*
X7140206Y-54484722D02*
X7130682Y-54503769D01*
X7340206Y-54589484D02*
X7378301Y-54589484D01*
X7378301Y-54589484D02*
X7397348Y-54579960D01*
X7397348Y-54579960D02*
X7406872Y-54570436D01*
X7406872Y-54570436D02*
X7425920Y-54541865D01*
X7425920Y-54541865D02*
X7435444Y-54503769D01*
X7435444Y-54503769D02*
X7435444Y-54427579D01*
X7435444Y-54427579D02*
X7425920Y-54408531D01*
X7425920Y-54408531D02*
X7416396Y-54399008D01*
X7416396Y-54399008D02*
X7397348Y-54389484D01*
X7397348Y-54389484D02*
X7359253Y-54389484D01*
X7359253Y-54389484D02*
X7340206Y-54399008D01*
X7340206Y-54399008D02*
X7330682Y-54408531D01*
X7330682Y-54408531D02*
X7321158Y-54427579D01*
X7321158Y-54427579D02*
X7321158Y-54475198D01*
X7321158Y-54475198D02*
X7330682Y-54494246D01*
X7330682Y-54494246D02*
X7340206Y-54503769D01*
X7340206Y-54503769D02*
X7359253Y-54513293D01*
X7359253Y-54513293D02*
X7397348Y-54513293D01*
X7397348Y-54513293D02*
X7416396Y-54503769D01*
X7416396Y-54503769D02*
X7425920Y-54494246D01*
X7425920Y-54494246D02*
X7435444Y-54475198D01*
X7511634Y-54389484D02*
X7511634Y-54427579D01*
X7587825Y-54389484D02*
X7587825Y-54427579D01*
X7883063Y-54665674D02*
X7873539Y-54656150D01*
X7873539Y-54656150D02*
X7854491Y-54627579D01*
X7854491Y-54627579D02*
X7844968Y-54608531D01*
X7844968Y-54608531D02*
X7835444Y-54579960D01*
X7835444Y-54579960D02*
X7825920Y-54532341D01*
X7825920Y-54532341D02*
X7825920Y-54494246D01*
X7825920Y-54494246D02*
X7835444Y-54446627D01*
X7835444Y-54446627D02*
X7844968Y-54418055D01*
X7844968Y-54418055D02*
X7854491Y-54399008D01*
X7854491Y-54399008D02*
X7873539Y-54370436D01*
X7873539Y-54370436D02*
X7883063Y-54360912D01*
X8054491Y-54389484D02*
X7959253Y-54389484D01*
X7959253Y-54389484D02*
X7949729Y-54484722D01*
X7949729Y-54484722D02*
X7959253Y-54475198D01*
X7959253Y-54475198D02*
X7978301Y-54465674D01*
X7978301Y-54465674D02*
X8025920Y-54465674D01*
X8025920Y-54465674D02*
X8044968Y-54475198D01*
X8044968Y-54475198D02*
X8054491Y-54484722D01*
X8054491Y-54484722D02*
X8064015Y-54503769D01*
X8064015Y-54503769D02*
X8064015Y-54551388D01*
X8064015Y-54551388D02*
X8054491Y-54570436D01*
X8054491Y-54570436D02*
X8044968Y-54579960D01*
X8044968Y-54579960D02*
X8025920Y-54589484D01*
X8025920Y-54589484D02*
X7978301Y-54589484D01*
X7978301Y-54589484D02*
X7959253Y-54579960D01*
X7959253Y-54579960D02*
X7949729Y-54570436D01*
X8187825Y-54389484D02*
X8206872Y-54389484D01*
X8206872Y-54389484D02*
X8225920Y-54399008D01*
X8225920Y-54399008D02*
X8235444Y-54408531D01*
X8235444Y-54408531D02*
X8244968Y-54427579D01*
X8244968Y-54427579D02*
X8254491Y-54465674D01*
X8254491Y-54465674D02*
X8254491Y-54513293D01*
X8254491Y-54513293D02*
X8244968Y-54551388D01*
X8244968Y-54551388D02*
X8235444Y-54570436D01*
X8235444Y-54570436D02*
X8225920Y-54579960D01*
X8225920Y-54579960D02*
X8206872Y-54589484D01*
X8206872Y-54589484D02*
X8187825Y-54589484D01*
X8187825Y-54589484D02*
X8168777Y-54579960D01*
X8168777Y-54579960D02*
X8159253Y-54570436D01*
X8159253Y-54570436D02*
X8149729Y-54551388D01*
X8149729Y-54551388D02*
X8140206Y-54513293D01*
X8140206Y-54513293D02*
X8140206Y-54465674D01*
X8140206Y-54465674D02*
X8149729Y-54427579D01*
X8149729Y-54427579D02*
X8159253Y-54408531D01*
X8159253Y-54408531D02*
X8168777Y-54399008D01*
X8168777Y-54399008D02*
X8187825Y-54389484D01*
X8492587Y-54589484D02*
X8492587Y-54389484D01*
X8578301Y-54589484D02*
X8578301Y-54484722D01*
X8578301Y-54484722D02*
X8568777Y-54465674D01*
X8568777Y-54465674D02*
X8549730Y-54456150D01*
X8549730Y-54456150D02*
X8521158Y-54456150D01*
X8521158Y-54456150D02*
X8502111Y-54465674D01*
X8502111Y-54465674D02*
X8492587Y-54475198D01*
X8702111Y-54589484D02*
X8683063Y-54579960D01*
X8683063Y-54579960D02*
X8673539Y-54570436D01*
X8673539Y-54570436D02*
X8664015Y-54551388D01*
X8664015Y-54551388D02*
X8664015Y-54494246D01*
X8664015Y-54494246D02*
X8673539Y-54475198D01*
X8673539Y-54475198D02*
X8683063Y-54465674D01*
X8683063Y-54465674D02*
X8702111Y-54456150D01*
X8702111Y-54456150D02*
X8730682Y-54456150D01*
X8730682Y-54456150D02*
X8749730Y-54465674D01*
X8749730Y-54465674D02*
X8759253Y-54475198D01*
X8759253Y-54475198D02*
X8768777Y-54494246D01*
X8768777Y-54494246D02*
X8768777Y-54551388D01*
X8768777Y-54551388D02*
X8759253Y-54570436D01*
X8759253Y-54570436D02*
X8749730Y-54579960D01*
X8749730Y-54579960D02*
X8730682Y-54589484D01*
X8730682Y-54589484D02*
X8702111Y-54589484D01*
X8883063Y-54589484D02*
X8864015Y-54579960D01*
X8864015Y-54579960D02*
X8854492Y-54560912D01*
X8854492Y-54560912D02*
X8854492Y-54389484D01*
X9035444Y-54579960D02*
X9016396Y-54589484D01*
X9016396Y-54589484D02*
X8978301Y-54589484D01*
X8978301Y-54589484D02*
X8959253Y-54579960D01*
X8959253Y-54579960D02*
X8949730Y-54560912D01*
X8949730Y-54560912D02*
X8949730Y-54484722D01*
X8949730Y-54484722D02*
X8959253Y-54465674D01*
X8959253Y-54465674D02*
X8978301Y-54456150D01*
X8978301Y-54456150D02*
X9016396Y-54456150D01*
X9016396Y-54456150D02*
X9035444Y-54465674D01*
X9035444Y-54465674D02*
X9044968Y-54484722D01*
X9044968Y-54484722D02*
X9044968Y-54503769D01*
X9044968Y-54503769D02*
X8949730Y-54522817D01*
X9121158Y-54579960D02*
X9140206Y-54589484D01*
X9140206Y-54589484D02*
X9178301Y-54589484D01*
X9178301Y-54589484D02*
X9197349Y-54579960D01*
X9197349Y-54579960D02*
X9206873Y-54560912D01*
X9206873Y-54560912D02*
X9206873Y-54551388D01*
X9206873Y-54551388D02*
X9197349Y-54532341D01*
X9197349Y-54532341D02*
X9178301Y-54522817D01*
X9178301Y-54522817D02*
X9149730Y-54522817D01*
X9149730Y-54522817D02*
X9130682Y-54513293D01*
X9130682Y-54513293D02*
X9121158Y-54494246D01*
X9121158Y-54494246D02*
X9121158Y-54484722D01*
X9121158Y-54484722D02*
X9130682Y-54465674D01*
X9130682Y-54465674D02*
X9149730Y-54456150D01*
X9149730Y-54456150D02*
X9178301Y-54456150D01*
X9178301Y-54456150D02*
X9197349Y-54465674D01*
X9273539Y-54665674D02*
X9283063Y-54656150D01*
X9283063Y-54656150D02*
X9302111Y-54627579D01*
X9302111Y-54627579D02*
X9311634Y-54608531D01*
X9311634Y-54608531D02*
X9321158Y-54579960D01*
X9321158Y-54579960D02*
X9330682Y-54532341D01*
X9330682Y-54532341D02*
X9330682Y-54494246D01*
X9330682Y-54494246D02*
X9321158Y-54446627D01*
X9321158Y-54446627D02*
X9311634Y-54418055D01*
X9311634Y-54418055D02*
X9302111Y-54399008D01*
X9302111Y-54399008D02*
X9283063Y-54370436D01*
X9283063Y-54370436D02*
X9273539Y-54360912D01*
X9635444Y-54665674D02*
X9625920Y-54656150D01*
X9625920Y-54656150D02*
X9606873Y-54627579D01*
X9606873Y-54627579D02*
X9597349Y-54608531D01*
X9597349Y-54608531D02*
X9587825Y-54579960D01*
X9587825Y-54579960D02*
X9578301Y-54532341D01*
X9578301Y-54532341D02*
X9578301Y-54494246D01*
X9578301Y-54494246D02*
X9587825Y-54446627D01*
X9587825Y-54446627D02*
X9597349Y-54418055D01*
X9597349Y-54418055D02*
X9606873Y-54399008D01*
X9606873Y-54399008D02*
X9625920Y-54370436D01*
X9625920Y-54370436D02*
X9635444Y-54360912D01*
X9711634Y-54456150D02*
X9711634Y-54589484D01*
X9711634Y-54475198D02*
X9721158Y-54465674D01*
X9721158Y-54465674D02*
X9740206Y-54456150D01*
X9740206Y-54456150D02*
X9768777Y-54456150D01*
X9768777Y-54456150D02*
X9787825Y-54465674D01*
X9787825Y-54465674D02*
X9797349Y-54484722D01*
X9797349Y-54484722D02*
X9797349Y-54589484D01*
X9921158Y-54589484D02*
X9902111Y-54579960D01*
X9902111Y-54579960D02*
X9892587Y-54570436D01*
X9892587Y-54570436D02*
X9883063Y-54551388D01*
X9883063Y-54551388D02*
X9883063Y-54494246D01*
X9883063Y-54494246D02*
X9892587Y-54475198D01*
X9892587Y-54475198D02*
X9902111Y-54465674D01*
X9902111Y-54465674D02*
X9921158Y-54456150D01*
X9921158Y-54456150D02*
X9949730Y-54456150D01*
X9949730Y-54456150D02*
X9968777Y-54465674D01*
X9968777Y-54465674D02*
X9978301Y-54475198D01*
X9978301Y-54475198D02*
X9987825Y-54494246D01*
X9987825Y-54494246D02*
X9987825Y-54551388D01*
X9987825Y-54551388D02*
X9978301Y-54570436D01*
X9978301Y-54570436D02*
X9968777Y-54579960D01*
X9968777Y-54579960D02*
X9949730Y-54589484D01*
X9949730Y-54589484D02*
X9921158Y-54589484D01*
X10044968Y-54456150D02*
X10121158Y-54456150D01*
X10073539Y-54389484D02*
X10073539Y-54560912D01*
X10073539Y-54560912D02*
X10083063Y-54579960D01*
X10083063Y-54579960D02*
X10102111Y-54589484D01*
X10102111Y-54589484D02*
X10121158Y-54589484D01*
X10340206Y-54456150D02*
X10340206Y-54656150D01*
X10340206Y-54465674D02*
X10359254Y-54456150D01*
X10359254Y-54456150D02*
X10397349Y-54456150D01*
X10397349Y-54456150D02*
X10416396Y-54465674D01*
X10416396Y-54465674D02*
X10425920Y-54475198D01*
X10425920Y-54475198D02*
X10435444Y-54494246D01*
X10435444Y-54494246D02*
X10435444Y-54551388D01*
X10435444Y-54551388D02*
X10425920Y-54570436D01*
X10425920Y-54570436D02*
X10416396Y-54579960D01*
X10416396Y-54579960D02*
X10397349Y-54589484D01*
X10397349Y-54589484D02*
X10359254Y-54589484D01*
X10359254Y-54589484D02*
X10340206Y-54579960D01*
X10549730Y-54589484D02*
X10530682Y-54579960D01*
X10530682Y-54579960D02*
X10521158Y-54560912D01*
X10521158Y-54560912D02*
X10521158Y-54389484D01*
X10711635Y-54589484D02*
X10711635Y-54484722D01*
X10711635Y-54484722D02*
X10702111Y-54465674D01*
X10702111Y-54465674D02*
X10683063Y-54456150D01*
X10683063Y-54456150D02*
X10644968Y-54456150D01*
X10644968Y-54456150D02*
X10625920Y-54465674D01*
X10711635Y-54579960D02*
X10692587Y-54589484D01*
X10692587Y-54589484D02*
X10644968Y-54589484D01*
X10644968Y-54589484D02*
X10625920Y-54579960D01*
X10625920Y-54579960D02*
X10616396Y-54560912D01*
X10616396Y-54560912D02*
X10616396Y-54541865D01*
X10616396Y-54541865D02*
X10625920Y-54522817D01*
X10625920Y-54522817D02*
X10644968Y-54513293D01*
X10644968Y-54513293D02*
X10692587Y-54513293D01*
X10692587Y-54513293D02*
X10711635Y-54503769D01*
X10778301Y-54456150D02*
X10854492Y-54456150D01*
X10806873Y-54389484D02*
X10806873Y-54560912D01*
X10806873Y-54560912D02*
X10816396Y-54579960D01*
X10816396Y-54579960D02*
X10835444Y-54589484D01*
X10835444Y-54589484D02*
X10854492Y-54589484D01*
X10997349Y-54579960D02*
X10978301Y-54589484D01*
X10978301Y-54589484D02*
X10940206Y-54589484D01*
X10940206Y-54589484D02*
X10921158Y-54579960D01*
X10921158Y-54579960D02*
X10911635Y-54560912D01*
X10911635Y-54560912D02*
X10911635Y-54484722D01*
X10911635Y-54484722D02*
X10921158Y-54465674D01*
X10921158Y-54465674D02*
X10940206Y-54456150D01*
X10940206Y-54456150D02*
X10978301Y-54456150D01*
X10978301Y-54456150D02*
X10997349Y-54465674D01*
X10997349Y-54465674D02*
X11006873Y-54484722D01*
X11006873Y-54484722D02*
X11006873Y-54503769D01*
X11006873Y-54503769D02*
X10911635Y-54522817D01*
X11178301Y-54589484D02*
X11178301Y-54389484D01*
X11178301Y-54579960D02*
X11159254Y-54589484D01*
X11159254Y-54589484D02*
X11121158Y-54589484D01*
X11121158Y-54589484D02*
X11102111Y-54579960D01*
X11102111Y-54579960D02*
X11092587Y-54570436D01*
X11092587Y-54570436D02*
X11083063Y-54551388D01*
X11083063Y-54551388D02*
X11083063Y-54494246D01*
X11083063Y-54494246D02*
X11092587Y-54475198D01*
X11092587Y-54475198D02*
X11102111Y-54465674D01*
X11102111Y-54465674D02*
X11121158Y-54456150D01*
X11121158Y-54456150D02*
X11159254Y-54456150D01*
X11159254Y-54456150D02*
X11178301Y-54465674D01*
X11254492Y-54665674D02*
X11264015Y-54656150D01*
X11264015Y-54656150D02*
X11283063Y-54627579D01*
X11283063Y-54627579D02*
X11292587Y-54608531D01*
X11292587Y-54608531D02*
X11302111Y-54579960D01*
X11302111Y-54579960D02*
X11311634Y-54532341D01*
X11311634Y-54532341D02*
X11311634Y-54494246D01*
X11311634Y-54494246D02*
X11302111Y-54446627D01*
X11302111Y-54446627D02*
X11292587Y-54418055D01*
X11292587Y-54418055D02*
X11283063Y-54399008D01*
X11283063Y-54399008D02*
X11264015Y-54370436D01*
X11264015Y-54370436D02*
X11254492Y-54360912D01*
X4308000Y-54788000D02*
G75*
G02*
X4108000Y-54788000I-100000J0D01*
G01*
X4108000Y-54788000D02*
G75*
G02*
X4308000Y-54788000I100000J0D01*
G01*
X4654491Y-54746150D02*
X4654491Y-54879484D01*
X4606872Y-54669960D02*
X4559253Y-54812817D01*
X4559253Y-54812817D02*
X4683063Y-54812817D01*
X4759253Y-54860436D02*
X4768777Y-54869960D01*
X4768777Y-54869960D02*
X4759253Y-54879484D01*
X4759253Y-54879484D02*
X4749729Y-54869960D01*
X4749729Y-54869960D02*
X4759253Y-54860436D01*
X4759253Y-54860436D02*
X4759253Y-54879484D01*
X4892586Y-54679484D02*
X4911634Y-54679484D01*
X4911634Y-54679484D02*
X4930682Y-54689008D01*
X4930682Y-54689008D02*
X4940205Y-54698531D01*
X4940205Y-54698531D02*
X4949729Y-54717579D01*
X4949729Y-54717579D02*
X4959253Y-54755674D01*
X4959253Y-54755674D02*
X4959253Y-54803293D01*
X4959253Y-54803293D02*
X4949729Y-54841388D01*
X4949729Y-54841388D02*
X4940205Y-54860436D01*
X4940205Y-54860436D02*
X4930682Y-54869960D01*
X4930682Y-54869960D02*
X4911634Y-54879484D01*
X4911634Y-54879484D02*
X4892586Y-54879484D01*
X4892586Y-54879484D02*
X4873539Y-54869960D01*
X4873539Y-54869960D02*
X4864015Y-54860436D01*
X4864015Y-54860436D02*
X4854491Y-54841388D01*
X4854491Y-54841388D02*
X4844967Y-54803293D01*
X4844967Y-54803293D02*
X4844967Y-54755674D01*
X4844967Y-54755674D02*
X4854491Y-54717579D01*
X4854491Y-54717579D02*
X4864015Y-54698531D01*
X4864015Y-54698531D02*
X4873539Y-54689008D01*
X4873539Y-54689008D02*
X4892586Y-54679484D01*
X5083063Y-54679484D02*
X5102110Y-54679484D01*
X5102110Y-54679484D02*
X5121158Y-54689008D01*
X5121158Y-54689008D02*
X5130682Y-54698531D01*
X5130682Y-54698531D02*
X5140205Y-54717579D01*
X5140205Y-54717579D02*
X5149729Y-54755674D01*
X5149729Y-54755674D02*
X5149729Y-54803293D01*
X5149729Y-54803293D02*
X5140205Y-54841388D01*
X5140205Y-54841388D02*
X5130682Y-54860436D01*
X5130682Y-54860436D02*
X5121158Y-54869960D01*
X5121158Y-54869960D02*
X5102110Y-54879484D01*
X5102110Y-54879484D02*
X5083063Y-54879484D01*
X5083063Y-54879484D02*
X5064015Y-54869960D01*
X5064015Y-54869960D02*
X5054491Y-54860436D01*
X5054491Y-54860436D02*
X5044967Y-54841388D01*
X5044967Y-54841388D02*
X5035444Y-54803293D01*
X5035444Y-54803293D02*
X5035444Y-54755674D01*
X5035444Y-54755674D02*
X5044967Y-54717579D01*
X5044967Y-54717579D02*
X5054491Y-54698531D01*
X5054491Y-54698531D02*
X5064015Y-54689008D01*
X5064015Y-54689008D02*
X5083063Y-54679484D01*
X5273539Y-54679484D02*
X5292586Y-54679484D01*
X5292586Y-54679484D02*
X5311634Y-54689008D01*
X5311634Y-54689008D02*
X5321158Y-54698531D01*
X5321158Y-54698531D02*
X5330682Y-54717579D01*
X5330682Y-54717579D02*
X5340205Y-54755674D01*
X5340205Y-54755674D02*
X5340205Y-54803293D01*
X5340205Y-54803293D02*
X5330682Y-54841388D01*
X5330682Y-54841388D02*
X5321158Y-54860436D01*
X5321158Y-54860436D02*
X5311634Y-54869960D01*
X5311634Y-54869960D02*
X5292586Y-54879484D01*
X5292586Y-54879484D02*
X5273539Y-54879484D01*
X5273539Y-54879484D02*
X5254491Y-54869960D01*
X5254491Y-54869960D02*
X5244967Y-54860436D01*
X5244967Y-54860436D02*
X5235444Y-54841388D01*
X5235444Y-54841388D02*
X5225920Y-54803293D01*
X5225920Y-54803293D02*
X5225920Y-54755674D01*
X5225920Y-54755674D02*
X5235444Y-54717579D01*
X5235444Y-54717579D02*
X5244967Y-54698531D01*
X5244967Y-54698531D02*
X5254491Y-54689008D01*
X5254491Y-54689008D02*
X5273539Y-54679484D01*
X5425920Y-54879484D02*
X5425920Y-54746150D01*
X5425920Y-54765198D02*
X5435444Y-54755674D01*
X5435444Y-54755674D02*
X5454491Y-54746150D01*
X5454491Y-54746150D02*
X5483063Y-54746150D01*
X5483063Y-54746150D02*
X5502110Y-54755674D01*
X5502110Y-54755674D02*
X5511634Y-54774722D01*
X5511634Y-54774722D02*
X5511634Y-54879484D01*
X5511634Y-54774722D02*
X5521158Y-54755674D01*
X5521158Y-54755674D02*
X5540205Y-54746150D01*
X5540205Y-54746150D02*
X5568777Y-54746150D01*
X5568777Y-54746150D02*
X5587825Y-54755674D01*
X5587825Y-54755674D02*
X5597348Y-54774722D01*
X5597348Y-54774722D02*
X5597348Y-54879484D01*
X5692586Y-54879484D02*
X5692586Y-54746150D01*
X5692586Y-54765198D02*
X5702110Y-54755674D01*
X5702110Y-54755674D02*
X5721158Y-54746150D01*
X5721158Y-54746150D02*
X5749729Y-54746150D01*
X5749729Y-54746150D02*
X5768777Y-54755674D01*
X5768777Y-54755674D02*
X5778301Y-54774722D01*
X5778301Y-54774722D02*
X5778301Y-54879484D01*
X5778301Y-54774722D02*
X5787824Y-54755674D01*
X5787824Y-54755674D02*
X5806872Y-54746150D01*
X5806872Y-54746150D02*
X5835443Y-54746150D01*
X5835443Y-54746150D02*
X5854491Y-54755674D01*
X5854491Y-54755674D02*
X5864015Y-54774722D01*
X5864015Y-54774722D02*
X5864015Y-54879484D01*
X6254491Y-54669960D02*
X6083063Y-54927103D01*
X6511634Y-54679484D02*
X6530682Y-54679484D01*
X6530682Y-54679484D02*
X6549729Y-54689008D01*
X6549729Y-54689008D02*
X6559253Y-54698531D01*
X6559253Y-54698531D02*
X6568777Y-54717579D01*
X6568777Y-54717579D02*
X6578301Y-54755674D01*
X6578301Y-54755674D02*
X6578301Y-54803293D01*
X6578301Y-54803293D02*
X6568777Y-54841388D01*
X6568777Y-54841388D02*
X6559253Y-54860436D01*
X6559253Y-54860436D02*
X6549729Y-54869960D01*
X6549729Y-54869960D02*
X6530682Y-54879484D01*
X6530682Y-54879484D02*
X6511634Y-54879484D01*
X6511634Y-54879484D02*
X6492586Y-54869960D01*
X6492586Y-54869960D02*
X6483063Y-54860436D01*
X6483063Y-54860436D02*
X6473539Y-54841388D01*
X6473539Y-54841388D02*
X6464015Y-54803293D01*
X6464015Y-54803293D02*
X6464015Y-54755674D01*
X6464015Y-54755674D02*
X6473539Y-54717579D01*
X6473539Y-54717579D02*
X6483063Y-54698531D01*
X6483063Y-54698531D02*
X6492586Y-54689008D01*
X6492586Y-54689008D02*
X6511634Y-54679484D01*
X6664015Y-54860436D02*
X6673539Y-54869960D01*
X6673539Y-54869960D02*
X6664015Y-54879484D01*
X6664015Y-54879484D02*
X6654491Y-54869960D01*
X6654491Y-54869960D02*
X6664015Y-54860436D01*
X6664015Y-54860436D02*
X6664015Y-54879484D01*
X6864015Y-54879484D02*
X6749729Y-54879484D01*
X6806872Y-54879484D02*
X6806872Y-54679484D01*
X6806872Y-54679484D02*
X6787825Y-54708055D01*
X6787825Y-54708055D02*
X6768777Y-54727103D01*
X6768777Y-54727103D02*
X6749729Y-54736627D01*
X7044967Y-54679484D02*
X6949729Y-54679484D01*
X6949729Y-54679484D02*
X6940206Y-54774722D01*
X6940206Y-54774722D02*
X6949729Y-54765198D01*
X6949729Y-54765198D02*
X6968777Y-54755674D01*
X6968777Y-54755674D02*
X7016396Y-54755674D01*
X7016396Y-54755674D02*
X7035444Y-54765198D01*
X7035444Y-54765198D02*
X7044967Y-54774722D01*
X7044967Y-54774722D02*
X7054491Y-54793769D01*
X7054491Y-54793769D02*
X7054491Y-54841388D01*
X7054491Y-54841388D02*
X7044967Y-54860436D01*
X7044967Y-54860436D02*
X7035444Y-54869960D01*
X7035444Y-54869960D02*
X7016396Y-54879484D01*
X7016396Y-54879484D02*
X6968777Y-54879484D01*
X6968777Y-54879484D02*
X6949729Y-54869960D01*
X6949729Y-54869960D02*
X6940206Y-54860436D01*
X7121158Y-54679484D02*
X7254491Y-54679484D01*
X7254491Y-54679484D02*
X7168777Y-54879484D01*
X7425920Y-54679484D02*
X7330682Y-54679484D01*
X7330682Y-54679484D02*
X7321158Y-54774722D01*
X7321158Y-54774722D02*
X7330682Y-54765198D01*
X7330682Y-54765198D02*
X7349729Y-54755674D01*
X7349729Y-54755674D02*
X7397348Y-54755674D01*
X7397348Y-54755674D02*
X7416396Y-54765198D01*
X7416396Y-54765198D02*
X7425920Y-54774722D01*
X7425920Y-54774722D02*
X7435444Y-54793769D01*
X7435444Y-54793769D02*
X7435444Y-54841388D01*
X7435444Y-54841388D02*
X7425920Y-54860436D01*
X7425920Y-54860436D02*
X7416396Y-54869960D01*
X7416396Y-54869960D02*
X7397348Y-54879484D01*
X7397348Y-54879484D02*
X7349729Y-54879484D01*
X7349729Y-54879484D02*
X7330682Y-54869960D01*
X7330682Y-54869960D02*
X7321158Y-54860436D01*
X7511634Y-54679484D02*
X7511634Y-54717579D01*
X7587825Y-54679484D02*
X7587825Y-54717579D01*
X7883063Y-54955674D02*
X7873539Y-54946150D01*
X7873539Y-54946150D02*
X7854491Y-54917579D01*
X7854491Y-54917579D02*
X7844968Y-54898531D01*
X7844968Y-54898531D02*
X7835444Y-54869960D01*
X7835444Y-54869960D02*
X7825920Y-54822341D01*
X7825920Y-54822341D02*
X7825920Y-54784246D01*
X7825920Y-54784246D02*
X7835444Y-54736627D01*
X7835444Y-54736627D02*
X7844968Y-54708055D01*
X7844968Y-54708055D02*
X7854491Y-54689008D01*
X7854491Y-54689008D02*
X7873539Y-54660436D01*
X7873539Y-54660436D02*
X7883063Y-54650912D01*
X7949729Y-54698531D02*
X7959253Y-54689008D01*
X7959253Y-54689008D02*
X7978301Y-54679484D01*
X7978301Y-54679484D02*
X8025920Y-54679484D01*
X8025920Y-54679484D02*
X8044968Y-54689008D01*
X8044968Y-54689008D02*
X8054491Y-54698531D01*
X8054491Y-54698531D02*
X8064015Y-54717579D01*
X8064015Y-54717579D02*
X8064015Y-54736627D01*
X8064015Y-54736627D02*
X8054491Y-54765198D01*
X8054491Y-54765198D02*
X7940206Y-54879484D01*
X7940206Y-54879484D02*
X8064015Y-54879484D01*
X8244968Y-54679484D02*
X8149729Y-54679484D01*
X8149729Y-54679484D02*
X8140206Y-54774722D01*
X8140206Y-54774722D02*
X8149729Y-54765198D01*
X8149729Y-54765198D02*
X8168777Y-54755674D01*
X8168777Y-54755674D02*
X8216396Y-54755674D01*
X8216396Y-54755674D02*
X8235444Y-54765198D01*
X8235444Y-54765198D02*
X8244968Y-54774722D01*
X8244968Y-54774722D02*
X8254491Y-54793769D01*
X8254491Y-54793769D02*
X8254491Y-54841388D01*
X8254491Y-54841388D02*
X8244968Y-54860436D01*
X8244968Y-54860436D02*
X8235444Y-54869960D01*
X8235444Y-54869960D02*
X8216396Y-54879484D01*
X8216396Y-54879484D02*
X8168777Y-54879484D01*
X8168777Y-54879484D02*
X8149729Y-54869960D01*
X8149729Y-54869960D02*
X8140206Y-54860436D01*
X8492587Y-54879484D02*
X8492587Y-54679484D01*
X8578301Y-54879484D02*
X8578301Y-54774722D01*
X8578301Y-54774722D02*
X8568777Y-54755674D01*
X8568777Y-54755674D02*
X8549730Y-54746150D01*
X8549730Y-54746150D02*
X8521158Y-54746150D01*
X8521158Y-54746150D02*
X8502111Y-54755674D01*
X8502111Y-54755674D02*
X8492587Y-54765198D01*
X8702111Y-54879484D02*
X8683063Y-54869960D01*
X8683063Y-54869960D02*
X8673539Y-54860436D01*
X8673539Y-54860436D02*
X8664015Y-54841388D01*
X8664015Y-54841388D02*
X8664015Y-54784246D01*
X8664015Y-54784246D02*
X8673539Y-54765198D01*
X8673539Y-54765198D02*
X8683063Y-54755674D01*
X8683063Y-54755674D02*
X8702111Y-54746150D01*
X8702111Y-54746150D02*
X8730682Y-54746150D01*
X8730682Y-54746150D02*
X8749730Y-54755674D01*
X8749730Y-54755674D02*
X8759253Y-54765198D01*
X8759253Y-54765198D02*
X8768777Y-54784246D01*
X8768777Y-54784246D02*
X8768777Y-54841388D01*
X8768777Y-54841388D02*
X8759253Y-54860436D01*
X8759253Y-54860436D02*
X8749730Y-54869960D01*
X8749730Y-54869960D02*
X8730682Y-54879484D01*
X8730682Y-54879484D02*
X8702111Y-54879484D01*
X8883063Y-54879484D02*
X8864015Y-54869960D01*
X8864015Y-54869960D02*
X8854492Y-54850912D01*
X8854492Y-54850912D02*
X8854492Y-54679484D01*
X9035444Y-54869960D02*
X9016396Y-54879484D01*
X9016396Y-54879484D02*
X8978301Y-54879484D01*
X8978301Y-54879484D02*
X8959253Y-54869960D01*
X8959253Y-54869960D02*
X8949730Y-54850912D01*
X8949730Y-54850912D02*
X8949730Y-54774722D01*
X8949730Y-54774722D02*
X8959253Y-54755674D01*
X8959253Y-54755674D02*
X8978301Y-54746150D01*
X8978301Y-54746150D02*
X9016396Y-54746150D01*
X9016396Y-54746150D02*
X9035444Y-54755674D01*
X9035444Y-54755674D02*
X9044968Y-54774722D01*
X9044968Y-54774722D02*
X9044968Y-54793769D01*
X9044968Y-54793769D02*
X8949730Y-54812817D01*
X9121158Y-54869960D02*
X9140206Y-54879484D01*
X9140206Y-54879484D02*
X9178301Y-54879484D01*
X9178301Y-54879484D02*
X9197349Y-54869960D01*
X9197349Y-54869960D02*
X9206873Y-54850912D01*
X9206873Y-54850912D02*
X9206873Y-54841388D01*
X9206873Y-54841388D02*
X9197349Y-54822341D01*
X9197349Y-54822341D02*
X9178301Y-54812817D01*
X9178301Y-54812817D02*
X9149730Y-54812817D01*
X9149730Y-54812817D02*
X9130682Y-54803293D01*
X9130682Y-54803293D02*
X9121158Y-54784246D01*
X9121158Y-54784246D02*
X9121158Y-54774722D01*
X9121158Y-54774722D02*
X9130682Y-54755674D01*
X9130682Y-54755674D02*
X9149730Y-54746150D01*
X9149730Y-54746150D02*
X9178301Y-54746150D01*
X9178301Y-54746150D02*
X9197349Y-54755674D01*
X9273539Y-54955674D02*
X9283063Y-54946150D01*
X9283063Y-54946150D02*
X9302111Y-54917579D01*
X9302111Y-54917579D02*
X9311634Y-54898531D01*
X9311634Y-54898531D02*
X9321158Y-54869960D01*
X9321158Y-54869960D02*
X9330682Y-54822341D01*
X9330682Y-54822341D02*
X9330682Y-54784246D01*
X9330682Y-54784246D02*
X9321158Y-54736627D01*
X9321158Y-54736627D02*
X9311634Y-54708055D01*
X9311634Y-54708055D02*
X9302111Y-54689008D01*
X9302111Y-54689008D02*
X9283063Y-54660436D01*
X9283063Y-54660436D02*
X9273539Y-54650912D01*
X9635444Y-54955674D02*
X9625920Y-54946150D01*
X9625920Y-54946150D02*
X9606873Y-54917579D01*
X9606873Y-54917579D02*
X9597349Y-54898531D01*
X9597349Y-54898531D02*
X9587825Y-54869960D01*
X9587825Y-54869960D02*
X9578301Y-54822341D01*
X9578301Y-54822341D02*
X9578301Y-54784246D01*
X9578301Y-54784246D02*
X9587825Y-54736627D01*
X9587825Y-54736627D02*
X9597349Y-54708055D01*
X9597349Y-54708055D02*
X9606873Y-54689008D01*
X9606873Y-54689008D02*
X9625920Y-54660436D01*
X9625920Y-54660436D02*
X9635444Y-54650912D01*
X9711634Y-54746150D02*
X9711634Y-54879484D01*
X9711634Y-54765198D02*
X9721158Y-54755674D01*
X9721158Y-54755674D02*
X9740206Y-54746150D01*
X9740206Y-54746150D02*
X9768777Y-54746150D01*
X9768777Y-54746150D02*
X9787825Y-54755674D01*
X9787825Y-54755674D02*
X9797349Y-54774722D01*
X9797349Y-54774722D02*
X9797349Y-54879484D01*
X9921158Y-54879484D02*
X9902111Y-54869960D01*
X9902111Y-54869960D02*
X9892587Y-54860436D01*
X9892587Y-54860436D02*
X9883063Y-54841388D01*
X9883063Y-54841388D02*
X9883063Y-54784246D01*
X9883063Y-54784246D02*
X9892587Y-54765198D01*
X9892587Y-54765198D02*
X9902111Y-54755674D01*
X9902111Y-54755674D02*
X9921158Y-54746150D01*
X9921158Y-54746150D02*
X9949730Y-54746150D01*
X9949730Y-54746150D02*
X9968777Y-54755674D01*
X9968777Y-54755674D02*
X9978301Y-54765198D01*
X9978301Y-54765198D02*
X9987825Y-54784246D01*
X9987825Y-54784246D02*
X9987825Y-54841388D01*
X9987825Y-54841388D02*
X9978301Y-54860436D01*
X9978301Y-54860436D02*
X9968777Y-54869960D01*
X9968777Y-54869960D02*
X9949730Y-54879484D01*
X9949730Y-54879484D02*
X9921158Y-54879484D01*
X10044968Y-54746150D02*
X10121158Y-54746150D01*
X10073539Y-54679484D02*
X10073539Y-54850912D01*
X10073539Y-54850912D02*
X10083063Y-54869960D01*
X10083063Y-54869960D02*
X10102111Y-54879484D01*
X10102111Y-54879484D02*
X10121158Y-54879484D01*
X10340206Y-54746150D02*
X10340206Y-54946150D01*
X10340206Y-54755674D02*
X10359254Y-54746150D01*
X10359254Y-54746150D02*
X10397349Y-54746150D01*
X10397349Y-54746150D02*
X10416396Y-54755674D01*
X10416396Y-54755674D02*
X10425920Y-54765198D01*
X10425920Y-54765198D02*
X10435444Y-54784246D01*
X10435444Y-54784246D02*
X10435444Y-54841388D01*
X10435444Y-54841388D02*
X10425920Y-54860436D01*
X10425920Y-54860436D02*
X10416396Y-54869960D01*
X10416396Y-54869960D02*
X10397349Y-54879484D01*
X10397349Y-54879484D02*
X10359254Y-54879484D01*
X10359254Y-54879484D02*
X10340206Y-54869960D01*
X10549730Y-54879484D02*
X10530682Y-54869960D01*
X10530682Y-54869960D02*
X10521158Y-54850912D01*
X10521158Y-54850912D02*
X10521158Y-54679484D01*
X10711635Y-54879484D02*
X10711635Y-54774722D01*
X10711635Y-54774722D02*
X10702111Y-54755674D01*
X10702111Y-54755674D02*
X10683063Y-54746150D01*
X10683063Y-54746150D02*
X10644968Y-54746150D01*
X10644968Y-54746150D02*
X10625920Y-54755674D01*
X10711635Y-54869960D02*
X10692587Y-54879484D01*
X10692587Y-54879484D02*
X10644968Y-54879484D01*
X10644968Y-54879484D02*
X10625920Y-54869960D01*
X10625920Y-54869960D02*
X10616396Y-54850912D01*
X10616396Y-54850912D02*
X10616396Y-54831865D01*
X10616396Y-54831865D02*
X10625920Y-54812817D01*
X10625920Y-54812817D02*
X10644968Y-54803293D01*
X10644968Y-54803293D02*
X10692587Y-54803293D01*
X10692587Y-54803293D02*
X10711635Y-54793769D01*
X10778301Y-54746150D02*
X10854492Y-54746150D01*
X10806873Y-54679484D02*
X10806873Y-54850912D01*
X10806873Y-54850912D02*
X10816396Y-54869960D01*
X10816396Y-54869960D02*
X10835444Y-54879484D01*
X10835444Y-54879484D02*
X10854492Y-54879484D01*
X10997349Y-54869960D02*
X10978301Y-54879484D01*
X10978301Y-54879484D02*
X10940206Y-54879484D01*
X10940206Y-54879484D02*
X10921158Y-54869960D01*
X10921158Y-54869960D02*
X10911635Y-54850912D01*
X10911635Y-54850912D02*
X10911635Y-54774722D01*
X10911635Y-54774722D02*
X10921158Y-54755674D01*
X10921158Y-54755674D02*
X10940206Y-54746150D01*
X10940206Y-54746150D02*
X10978301Y-54746150D01*
X10978301Y-54746150D02*
X10997349Y-54755674D01*
X10997349Y-54755674D02*
X11006873Y-54774722D01*
X11006873Y-54774722D02*
X11006873Y-54793769D01*
X11006873Y-54793769D02*
X10911635Y-54812817D01*
X11178301Y-54879484D02*
X11178301Y-54679484D01*
X11178301Y-54869960D02*
X11159254Y-54879484D01*
X11159254Y-54879484D02*
X11121158Y-54879484D01*
X11121158Y-54879484D02*
X11102111Y-54869960D01*
X11102111Y-54869960D02*
X11092587Y-54860436D01*
X11092587Y-54860436D02*
X11083063Y-54841388D01*
X11083063Y-54841388D02*
X11083063Y-54784246D01*
X11083063Y-54784246D02*
X11092587Y-54765198D01*
X11092587Y-54765198D02*
X11102111Y-54755674D01*
X11102111Y-54755674D02*
X11121158Y-54746150D01*
X11121158Y-54746150D02*
X11159254Y-54746150D01*
X11159254Y-54746150D02*
X11178301Y-54755674D01*
X11254492Y-54955674D02*
X11264015Y-54946150D01*
X11264015Y-54946150D02*
X11283063Y-54917579D01*
X11283063Y-54917579D02*
X11292587Y-54898531D01*
X11292587Y-54898531D02*
X11302111Y-54869960D01*
X11302111Y-54869960D02*
X11311634Y-54822341D01*
X11311634Y-54822341D02*
X11311634Y-54784246D01*
X11311634Y-54784246D02*
X11302111Y-54736627D01*
X11302111Y-54736627D02*
X11292587Y-54708055D01*
X11292587Y-54708055D02*
X11283063Y-54689008D01*
X11283063Y-54689008D02*
X11264015Y-54660436D01*
X11264015Y-54660436D02*
X11254492Y-54650912D01*
M02*
