%TF.GenerationSoftware,KiCad,Pcbnew,8.0.9-8.0.9-0~ubuntu20.04.1*%
%TF.CreationDate,2025-06-05T19:26:30+01:00*%
%TF.ProjectId,keyboard-pcb-rpi-pico-1x25,6b657962-6f61-4726-942d-7063622d7270,rev?*%
%TF.SameCoordinates,Original*%
%TF.FileFunction,Drillmap*%
%TF.FilePolarity,Positive*%
%FSLAX45Y45*%
G04 Gerber Fmt 4.5, Leading zero omitted, Abs format (unit mm)*
G04 Created by KiCad (PCBNEW 8.0.9-8.0.9-0~ubuntu20.04.1) date 2025-06-05 19:26:30*
%MOMM*%
%LPD*%
G01*
G04 APERTURE LIST*
%ADD10C,0.050000*%
%ADD11C,0.200000*%
%ADD12C,0.100000*%
%ADD13C,0.150000*%
%ADD14C,0.320000*%
G04 APERTURE END LIST*
D10*
X5341620Y-51701300D02*
X5341620Y-52057700D01*
D11*
X4445000Y-3937000D02*
X6731000Y-3937000D01*
X6731000Y-53848000D01*
X4445000Y-53848000D01*
X4445000Y-3937000D01*
D10*
X5316620Y-51676300D02*
G75*
G02*
X5341620Y-51701300I0J-25000D01*
G01*
X4935220Y-51701300D02*
G75*
G02*
X4960220Y-51676300I25000J0D01*
G01*
X5316620Y-52082700D02*
X4960220Y-52082700D01*
X4960220Y-52082700D02*
G75*
G02*
X4935220Y-52057700I0J25000D01*
G01*
X5341620Y-52057700D02*
G75*
G02*
X5316620Y-52082700I-25000J0D01*
G01*
X4960220Y-51676300D02*
X5316620Y-51676300D01*
X4935220Y-52057700D02*
X4935220Y-51701300D01*
D11*
D12*
X4963400Y-23530800D02*
X4993400Y-23560800D01*
X4993400Y-23530800D02*
X4963400Y-23560800D01*
X4963400Y-23784800D02*
X4993400Y-23814800D01*
X4993400Y-23784800D02*
X4963400Y-23814800D01*
X4963400Y-24038800D02*
X4993400Y-24068800D01*
X4993400Y-24038800D02*
X4963400Y-24068800D01*
X5979400Y-23530800D02*
X6009400Y-23560800D01*
X6009400Y-23530800D02*
X5979400Y-23560800D01*
X5979400Y-23784800D02*
X6009400Y-23814800D01*
X6009400Y-23784800D02*
X5979400Y-23814800D01*
X5979400Y-24038800D02*
X6009400Y-24068800D01*
X6009400Y-24038800D02*
X5979400Y-24068800D01*
X5054000Y-7353300D02*
G75*
G02*
X4979000Y-7353300I-37500J0D01*
G01*
X4979000Y-7353300D02*
G75*
G02*
X5054000Y-7353300I37500J0D01*
G01*
X5104800Y-8420100D02*
G75*
G02*
X5029800Y-8420100I-37500J0D01*
G01*
X5029800Y-8420100D02*
G75*
G02*
X5104800Y-8420100I37500J0D01*
G01*
X6209700Y-9359900D02*
G75*
G02*
X6134700Y-9359900I-37500J0D01*
G01*
X6134700Y-9359900D02*
G75*
G02*
X6209700Y-9359900I37500J0D01*
G01*
X4826000Y-4141000D02*
X4826000Y-4241000D01*
X4776000Y-4191000D02*
X4876000Y-4191000D01*
X4826000Y-4395000D02*
X4826000Y-4495000D01*
X4776000Y-4445000D02*
X4876000Y-4445000D01*
X4826000Y-4649000D02*
X4826000Y-4749000D01*
X4776000Y-4699000D02*
X4876000Y-4699000D01*
X4826000Y-4903000D02*
X4826000Y-5003000D01*
X4776000Y-4953000D02*
X4876000Y-4953000D01*
X4826000Y-5157000D02*
X4826000Y-5257000D01*
X4776000Y-5207000D02*
X4876000Y-5207000D01*
X4826000Y-5411000D02*
X4826000Y-5511000D01*
X4776000Y-5461000D02*
X4876000Y-5461000D01*
X4826000Y-5665000D02*
X4826000Y-5765000D01*
X4776000Y-5715000D02*
X4876000Y-5715000D01*
X4826000Y-5919000D02*
X4826000Y-6019000D01*
X4776000Y-5969000D02*
X4876000Y-5969000D01*
X4826000Y-6173000D02*
X4826000Y-6273000D01*
X4776000Y-6223000D02*
X4876000Y-6223000D01*
X4826000Y-6427000D02*
X4826000Y-6527000D01*
X4776000Y-6477000D02*
X4876000Y-6477000D01*
X4826000Y-6681000D02*
X4826000Y-6781000D01*
X4776000Y-6731000D02*
X4876000Y-6731000D01*
X4826000Y-6935000D02*
X4826000Y-7035000D01*
X4776000Y-6985000D02*
X4876000Y-6985000D01*
X4826000Y-7189000D02*
X4826000Y-7289000D01*
X4776000Y-7239000D02*
X4876000Y-7239000D01*
X4826000Y-7443000D02*
X4826000Y-7543000D01*
X4776000Y-7493000D02*
X4876000Y-7493000D01*
X4826000Y-7697000D02*
X4826000Y-7797000D01*
X4776000Y-7747000D02*
X4876000Y-7747000D01*
X4826000Y-7951000D02*
X4826000Y-8051000D01*
X4776000Y-8001000D02*
X4876000Y-8001000D01*
X4826000Y-8205000D02*
X4826000Y-8305000D01*
X4776000Y-8255000D02*
X4876000Y-8255000D01*
X4826000Y-8459000D02*
X4826000Y-8559000D01*
X4776000Y-8509000D02*
X4876000Y-8509000D01*
X4826000Y-8713000D02*
X4826000Y-8813000D01*
X4776000Y-8763000D02*
X4876000Y-8763000D01*
X4826000Y-8967000D02*
X4826000Y-9067000D01*
X4776000Y-9017000D02*
X4876000Y-9017000D01*
X6299200Y-23495800D02*
X6299200Y-23595800D01*
X6249200Y-23545800D02*
X6349200Y-23545800D01*
X6299200Y-23749800D02*
X6299200Y-23849800D01*
X6249200Y-23799800D02*
X6349200Y-23799800D01*
X6299200Y-24003800D02*
X6299200Y-24103800D01*
X6249200Y-24053800D02*
X6349200Y-24053800D01*
X6299200Y-24257800D02*
X6299200Y-24357800D01*
X6249200Y-24307800D02*
X6349200Y-24307800D01*
X6350000Y-4141000D02*
X6350000Y-4241000D01*
X6300000Y-4191000D02*
X6400000Y-4191000D01*
X6350000Y-4395000D02*
X6350000Y-4495000D01*
X6300000Y-4445000D02*
X6400000Y-4445000D01*
X6350000Y-4649000D02*
X6350000Y-4749000D01*
X6300000Y-4699000D02*
X6400000Y-4699000D01*
X6350000Y-4903000D02*
X6350000Y-5003000D01*
X6300000Y-4953000D02*
X6400000Y-4953000D01*
X6350000Y-5157000D02*
X6350000Y-5257000D01*
X6300000Y-5207000D02*
X6400000Y-5207000D01*
X6350000Y-5411000D02*
X6350000Y-5511000D01*
X6300000Y-5461000D02*
X6400000Y-5461000D01*
X6350000Y-5665000D02*
X6350000Y-5765000D01*
X6300000Y-5715000D02*
X6400000Y-5715000D01*
X6350000Y-5919000D02*
X6350000Y-6019000D01*
X6300000Y-5969000D02*
X6400000Y-5969000D01*
X6350000Y-6173000D02*
X6350000Y-6273000D01*
X6300000Y-6223000D02*
X6400000Y-6223000D01*
X6350000Y-6427000D02*
X6350000Y-6527000D01*
X6300000Y-6477000D02*
X6400000Y-6477000D01*
X6350000Y-6681000D02*
X6350000Y-6781000D01*
X6300000Y-6731000D02*
X6400000Y-6731000D01*
X6350000Y-6935000D02*
X6350000Y-7035000D01*
X6300000Y-6985000D02*
X6400000Y-6985000D01*
X6350000Y-7189000D02*
X6350000Y-7289000D01*
X6300000Y-7239000D02*
X6400000Y-7239000D01*
X6350000Y-7443000D02*
X6350000Y-7543000D01*
X6300000Y-7493000D02*
X6400000Y-7493000D01*
X6350000Y-7697000D02*
X6350000Y-7797000D01*
X6300000Y-7747000D02*
X6400000Y-7747000D01*
X6350000Y-7951000D02*
X6350000Y-8051000D01*
X6300000Y-8001000D02*
X6400000Y-8001000D01*
X6350000Y-8205000D02*
X6350000Y-8305000D01*
X6300000Y-8255000D02*
X6400000Y-8255000D01*
X6350000Y-8459000D02*
X6350000Y-8559000D01*
X6300000Y-8509000D02*
X6400000Y-8509000D01*
X6350000Y-8713000D02*
X6350000Y-8813000D01*
X6300000Y-8763000D02*
X6400000Y-8763000D01*
X6350000Y-8967000D02*
X6350000Y-9067000D01*
X6300000Y-9017000D02*
X6400000Y-9017000D01*
D13*
X5260034Y-4879034D02*
X5260034Y-4772967D01*
X5153967Y-4772967D01*
X5153967Y-4879034D01*
X5260034Y-4879034D01*
X5260034Y-6784033D02*
X5260034Y-6677966D01*
X5153967Y-6677966D01*
X5153967Y-6784033D01*
X5260034Y-6784033D01*
X5260034Y-8689034D02*
X5260034Y-8582967D01*
X5153967Y-8582967D01*
X5153967Y-8689034D01*
X5260034Y-8689034D01*
X5260034Y-10594034D02*
X5260034Y-10487967D01*
X5153967Y-10487967D01*
X5153967Y-10594034D01*
X5260034Y-10594034D01*
X5260034Y-12499033D02*
X5260034Y-12392966D01*
X5153967Y-12392966D01*
X5153967Y-12499033D01*
X5260034Y-12499033D01*
X5260034Y-14912033D02*
X5260034Y-14805966D01*
X5153967Y-14805966D01*
X5153967Y-14912033D01*
X5260034Y-14912033D01*
X5260034Y-16817034D02*
X5260034Y-16710966D01*
X5153967Y-16710966D01*
X5153967Y-16817034D01*
X5260034Y-16817034D01*
X5260034Y-18722034D02*
X5260034Y-18615967D01*
X5153967Y-18615967D01*
X5153967Y-18722034D01*
X5260034Y-18722034D01*
X5260034Y-20627034D02*
X5260034Y-20520967D01*
X5153967Y-20520967D01*
X5153967Y-20627034D01*
X5260034Y-20627034D01*
X5260034Y-22532033D02*
X5260034Y-22425966D01*
X5153967Y-22425966D01*
X5153967Y-22532033D01*
X5260034Y-22532033D01*
X5260034Y-24945033D02*
X5260034Y-24838966D01*
X5153967Y-24838966D01*
X5153967Y-24945033D01*
X5260034Y-24945033D01*
X5260034Y-26850033D02*
X5260034Y-26743966D01*
X5153967Y-26743966D01*
X5153967Y-26850033D01*
X5260034Y-26850033D01*
X5260034Y-28755033D02*
X5260034Y-28648966D01*
X5153967Y-28648966D01*
X5153967Y-28755033D01*
X5260034Y-28755033D01*
X5260034Y-30660033D02*
X5260034Y-30553966D01*
X5153967Y-30553966D01*
X5153967Y-30660033D01*
X5260034Y-30660033D01*
X5260034Y-32565033D02*
X5260034Y-32458966D01*
X5153967Y-32458966D01*
X5153967Y-32565033D01*
X5260034Y-32565033D01*
X5260034Y-34978034D02*
X5260034Y-34871967D01*
X5153967Y-34871967D01*
X5153967Y-34978034D01*
X5260034Y-34978034D01*
X5260034Y-36883034D02*
X5260034Y-36776967D01*
X5153967Y-36776967D01*
X5153967Y-36883034D01*
X5260034Y-36883034D01*
X5260034Y-38788034D02*
X5260034Y-38681967D01*
X5153967Y-38681967D01*
X5153967Y-38788034D01*
X5260034Y-38788034D01*
X5260034Y-40693034D02*
X5260034Y-40586967D01*
X5153967Y-40586967D01*
X5153967Y-40693034D01*
X5260034Y-40693034D01*
X5260034Y-42598034D02*
X5260034Y-42491967D01*
X5153967Y-42491967D01*
X5153967Y-42598034D01*
X5260034Y-42598034D01*
X5260034Y-45011033D02*
X5260034Y-44904966D01*
X5153967Y-44904966D01*
X5153967Y-45011033D01*
X5260034Y-45011033D01*
X5260034Y-46916033D02*
X5260034Y-46809966D01*
X5153967Y-46809966D01*
X5153967Y-46916033D01*
X5260034Y-46916033D01*
X5260034Y-48821033D02*
X5260034Y-48714966D01*
X5153967Y-48714966D01*
X5153967Y-48821033D01*
X5260034Y-48821033D01*
X5260034Y-50726033D02*
X5260034Y-50619966D01*
X5153967Y-50619966D01*
X5153967Y-50726033D01*
X5260034Y-50726033D01*
X5260034Y-52631033D02*
X5260034Y-52524966D01*
X5153967Y-52524966D01*
X5153967Y-52631033D01*
X5260034Y-52631033D01*
X5895033Y-4625034D02*
X5895033Y-4518967D01*
X5788966Y-4518967D01*
X5788966Y-4625034D01*
X5895033Y-4625034D01*
X5895033Y-6530033D02*
X5895033Y-6423966D01*
X5788966Y-6423966D01*
X5788966Y-6530033D01*
X5895033Y-6530033D01*
X5895033Y-8435034D02*
X5895033Y-8328966D01*
X5788966Y-8328966D01*
X5788966Y-8435034D01*
X5895033Y-8435034D01*
X5895033Y-10340034D02*
X5895033Y-10233967D01*
X5788966Y-10233967D01*
X5788966Y-10340034D01*
X5895033Y-10340034D01*
X5895033Y-12245033D02*
X5895033Y-12138966D01*
X5788966Y-12138966D01*
X5788966Y-12245033D01*
X5895033Y-12245033D01*
X5895033Y-14658033D02*
X5895033Y-14551966D01*
X5788966Y-14551966D01*
X5788966Y-14658033D01*
X5895033Y-14658033D01*
X5895033Y-16563033D02*
X5895033Y-16456966D01*
X5788966Y-16456966D01*
X5788966Y-16563033D01*
X5895033Y-16563033D01*
X5895033Y-18468034D02*
X5895033Y-18361967D01*
X5788966Y-18361967D01*
X5788966Y-18468034D01*
X5895033Y-18468034D01*
X5895033Y-20373034D02*
X5895033Y-20266967D01*
X5788966Y-20266967D01*
X5788966Y-20373034D01*
X5895033Y-20373034D01*
X5895033Y-22278034D02*
X5895033Y-22171967D01*
X5788966Y-22171967D01*
X5788966Y-22278034D01*
X5895033Y-22278034D01*
X5895033Y-24691033D02*
X5895033Y-24584966D01*
X5788966Y-24584966D01*
X5788966Y-24691033D01*
X5895033Y-24691033D01*
X5895033Y-26596033D02*
X5895033Y-26489966D01*
X5788966Y-26489966D01*
X5788966Y-26596033D01*
X5895033Y-26596033D01*
X5895033Y-28501033D02*
X5895033Y-28394966D01*
X5788966Y-28394966D01*
X5788966Y-28501033D01*
X5895033Y-28501033D01*
X5895033Y-30406033D02*
X5895033Y-30299966D01*
X5788966Y-30299966D01*
X5788966Y-30406033D01*
X5895033Y-30406033D01*
X5895033Y-32311033D02*
X5895033Y-32204966D01*
X5788966Y-32204966D01*
X5788966Y-32311033D01*
X5895033Y-32311033D01*
X5895033Y-34724034D02*
X5895033Y-34617967D01*
X5788966Y-34617967D01*
X5788966Y-34724034D01*
X5895033Y-34724034D01*
X5895033Y-36629034D02*
X5895033Y-36522967D01*
X5788966Y-36522967D01*
X5788966Y-36629034D01*
X5895033Y-36629034D01*
X5895033Y-38534034D02*
X5895033Y-38427967D01*
X5788966Y-38427967D01*
X5788966Y-38534034D01*
X5895033Y-38534034D01*
X5895033Y-40439034D02*
X5895033Y-40332967D01*
X5788966Y-40332967D01*
X5788966Y-40439034D01*
X5895033Y-40439034D01*
X5895033Y-42344034D02*
X5895033Y-42237967D01*
X5788966Y-42237967D01*
X5788966Y-42344034D01*
X5895033Y-42344034D01*
X5895033Y-44757033D02*
X5895033Y-44650967D01*
X5788966Y-44650967D01*
X5788966Y-44757033D01*
X5895033Y-44757033D01*
X5895033Y-46662033D02*
X5895033Y-46555966D01*
X5788966Y-46555966D01*
X5788966Y-46662033D01*
X5895033Y-46662033D01*
X5895033Y-48567033D02*
X5895033Y-48460966D01*
X5788966Y-48460966D01*
X5788966Y-48567033D01*
X5895033Y-48567033D01*
X5895033Y-50472033D02*
X5895033Y-50365966D01*
X5788966Y-50365966D01*
X5788966Y-50472033D01*
X5895033Y-50472033D01*
X5895033Y-52377033D02*
X5895033Y-52270966D01*
X5788966Y-52270966D01*
X5788966Y-52377033D01*
X5895033Y-52377033D01*
D14*
X5588000Y-14066500D02*
X5748000Y-13906500D01*
X5588000Y-13746500D01*
X5428000Y-13906500D01*
X5588000Y-14066500D01*
X5588000Y-34132500D02*
X5748000Y-33972500D01*
X5588000Y-33812500D01*
X5428000Y-33972500D01*
X5588000Y-34132500D01*
X5588000Y-44165500D02*
X5748000Y-44005500D01*
X5588000Y-43845500D01*
X5428000Y-44005500D01*
X5588000Y-44165500D01*
D11*
X4695777Y-54169484D02*
X4695777Y-53969484D01*
X4695777Y-53969484D02*
X4743396Y-53969484D01*
X4743396Y-53969484D02*
X4771967Y-53979008D01*
X4771967Y-53979008D02*
X4791015Y-53998055D01*
X4791015Y-53998055D02*
X4800539Y-54017103D01*
X4800539Y-54017103D02*
X4810063Y-54055198D01*
X4810063Y-54055198D02*
X4810063Y-54083769D01*
X4810063Y-54083769D02*
X4800539Y-54121865D01*
X4800539Y-54121865D02*
X4791015Y-54140912D01*
X4791015Y-54140912D02*
X4771967Y-54159960D01*
X4771967Y-54159960D02*
X4743396Y-54169484D01*
X4743396Y-54169484D02*
X4695777Y-54169484D01*
X4895777Y-54169484D02*
X4895777Y-54036150D01*
X4895777Y-54074246D02*
X4905301Y-54055198D01*
X4905301Y-54055198D02*
X4914824Y-54045674D01*
X4914824Y-54045674D02*
X4933872Y-54036150D01*
X4933872Y-54036150D02*
X4952920Y-54036150D01*
X5019586Y-54169484D02*
X5019586Y-54036150D01*
X5019586Y-53969484D02*
X5010063Y-53979008D01*
X5010063Y-53979008D02*
X5019586Y-53988531D01*
X5019586Y-53988531D02*
X5029110Y-53979008D01*
X5029110Y-53979008D02*
X5019586Y-53969484D01*
X5019586Y-53969484D02*
X5019586Y-53988531D01*
X5143396Y-54169484D02*
X5124348Y-54159960D01*
X5124348Y-54159960D02*
X5114824Y-54140912D01*
X5114824Y-54140912D02*
X5114824Y-53969484D01*
X5248158Y-54169484D02*
X5229110Y-54159960D01*
X5229110Y-54159960D02*
X5219586Y-54140912D01*
X5219586Y-54140912D02*
X5219586Y-53969484D01*
X5476729Y-54169484D02*
X5476729Y-53969484D01*
X5476729Y-53969484D02*
X5543396Y-54112341D01*
X5543396Y-54112341D02*
X5610062Y-53969484D01*
X5610062Y-53969484D02*
X5610062Y-54169484D01*
X5791015Y-54169484D02*
X5791015Y-54064722D01*
X5791015Y-54064722D02*
X5781491Y-54045674D01*
X5781491Y-54045674D02*
X5762443Y-54036150D01*
X5762443Y-54036150D02*
X5724348Y-54036150D01*
X5724348Y-54036150D02*
X5705301Y-54045674D01*
X5791015Y-54159960D02*
X5771967Y-54169484D01*
X5771967Y-54169484D02*
X5724348Y-54169484D01*
X5724348Y-54169484D02*
X5705301Y-54159960D01*
X5705301Y-54159960D02*
X5695777Y-54140912D01*
X5695777Y-54140912D02*
X5695777Y-54121865D01*
X5695777Y-54121865D02*
X5705301Y-54102817D01*
X5705301Y-54102817D02*
X5724348Y-54093293D01*
X5724348Y-54093293D02*
X5771967Y-54093293D01*
X5771967Y-54093293D02*
X5791015Y-54083769D01*
X5886253Y-54036150D02*
X5886253Y-54236150D01*
X5886253Y-54045674D02*
X5905301Y-54036150D01*
X5905301Y-54036150D02*
X5943396Y-54036150D01*
X5943396Y-54036150D02*
X5962443Y-54045674D01*
X5962443Y-54045674D02*
X5971967Y-54055198D01*
X5971967Y-54055198D02*
X5981491Y-54074246D01*
X5981491Y-54074246D02*
X5981491Y-54131388D01*
X5981491Y-54131388D02*
X5971967Y-54150436D01*
X5971967Y-54150436D02*
X5962443Y-54159960D01*
X5962443Y-54159960D02*
X5943396Y-54169484D01*
X5943396Y-54169484D02*
X5905301Y-54169484D01*
X5905301Y-54169484D02*
X5886253Y-54159960D01*
X6067205Y-54150436D02*
X6076729Y-54159960D01*
X6076729Y-54159960D02*
X6067205Y-54169484D01*
X6067205Y-54169484D02*
X6057682Y-54159960D01*
X6057682Y-54159960D02*
X6067205Y-54150436D01*
X6067205Y-54150436D02*
X6067205Y-54169484D01*
X6067205Y-54045674D02*
X6076729Y-54055198D01*
X6076729Y-54055198D02*
X6067205Y-54064722D01*
X6067205Y-54064722D02*
X6057682Y-54055198D01*
X6057682Y-54055198D02*
X6067205Y-54045674D01*
X6067205Y-54045674D02*
X6067205Y-54064722D01*
D12*
X4405000Y-54483000D02*
X4435000Y-54513000D01*
X4435000Y-54483000D02*
X4405000Y-54513000D01*
D11*
X4733872Y-54389484D02*
X4752920Y-54389484D01*
X4752920Y-54389484D02*
X4771967Y-54399008D01*
X4771967Y-54399008D02*
X4781491Y-54408531D01*
X4781491Y-54408531D02*
X4791015Y-54427579D01*
X4791015Y-54427579D02*
X4800539Y-54465674D01*
X4800539Y-54465674D02*
X4800539Y-54513293D01*
X4800539Y-54513293D02*
X4791015Y-54551388D01*
X4791015Y-54551388D02*
X4781491Y-54570436D01*
X4781491Y-54570436D02*
X4771967Y-54579960D01*
X4771967Y-54579960D02*
X4752920Y-54589484D01*
X4752920Y-54589484D02*
X4733872Y-54589484D01*
X4733872Y-54589484D02*
X4714824Y-54579960D01*
X4714824Y-54579960D02*
X4705301Y-54570436D01*
X4705301Y-54570436D02*
X4695777Y-54551388D01*
X4695777Y-54551388D02*
X4686253Y-54513293D01*
X4686253Y-54513293D02*
X4686253Y-54465674D01*
X4686253Y-54465674D02*
X4695777Y-54427579D01*
X4695777Y-54427579D02*
X4705301Y-54408531D01*
X4705301Y-54408531D02*
X4714824Y-54399008D01*
X4714824Y-54399008D02*
X4733872Y-54389484D01*
X4886253Y-54570436D02*
X4895777Y-54579960D01*
X4895777Y-54579960D02*
X4886253Y-54589484D01*
X4886253Y-54589484D02*
X4876729Y-54579960D01*
X4876729Y-54579960D02*
X4886253Y-54570436D01*
X4886253Y-54570436D02*
X4886253Y-54589484D01*
X4962444Y-54389484D02*
X5086253Y-54389484D01*
X5086253Y-54389484D02*
X5019586Y-54465674D01*
X5019586Y-54465674D02*
X5048158Y-54465674D01*
X5048158Y-54465674D02*
X5067205Y-54475198D01*
X5067205Y-54475198D02*
X5076729Y-54484722D01*
X5076729Y-54484722D02*
X5086253Y-54503769D01*
X5086253Y-54503769D02*
X5086253Y-54551388D01*
X5086253Y-54551388D02*
X5076729Y-54570436D01*
X5076729Y-54570436D02*
X5067205Y-54579960D01*
X5067205Y-54579960D02*
X5048158Y-54589484D01*
X5048158Y-54589484D02*
X4991015Y-54589484D01*
X4991015Y-54589484D02*
X4971967Y-54579960D01*
X4971967Y-54579960D02*
X4962444Y-54570436D01*
X5210063Y-54389484D02*
X5229110Y-54389484D01*
X5229110Y-54389484D02*
X5248158Y-54399008D01*
X5248158Y-54399008D02*
X5257682Y-54408531D01*
X5257682Y-54408531D02*
X5267205Y-54427579D01*
X5267205Y-54427579D02*
X5276729Y-54465674D01*
X5276729Y-54465674D02*
X5276729Y-54513293D01*
X5276729Y-54513293D02*
X5267205Y-54551388D01*
X5267205Y-54551388D02*
X5257682Y-54570436D01*
X5257682Y-54570436D02*
X5248158Y-54579960D01*
X5248158Y-54579960D02*
X5229110Y-54589484D01*
X5229110Y-54589484D02*
X5210063Y-54589484D01*
X5210063Y-54589484D02*
X5191015Y-54579960D01*
X5191015Y-54579960D02*
X5181491Y-54570436D01*
X5181491Y-54570436D02*
X5171967Y-54551388D01*
X5171967Y-54551388D02*
X5162444Y-54513293D01*
X5162444Y-54513293D02*
X5162444Y-54465674D01*
X5162444Y-54465674D02*
X5171967Y-54427579D01*
X5171967Y-54427579D02*
X5181491Y-54408531D01*
X5181491Y-54408531D02*
X5191015Y-54399008D01*
X5191015Y-54399008D02*
X5210063Y-54389484D01*
X5400539Y-54389484D02*
X5419586Y-54389484D01*
X5419586Y-54389484D02*
X5438634Y-54399008D01*
X5438634Y-54399008D02*
X5448158Y-54408531D01*
X5448158Y-54408531D02*
X5457682Y-54427579D01*
X5457682Y-54427579D02*
X5467205Y-54465674D01*
X5467205Y-54465674D02*
X5467205Y-54513293D01*
X5467205Y-54513293D02*
X5457682Y-54551388D01*
X5457682Y-54551388D02*
X5448158Y-54570436D01*
X5448158Y-54570436D02*
X5438634Y-54579960D01*
X5438634Y-54579960D02*
X5419586Y-54589484D01*
X5419586Y-54589484D02*
X5400539Y-54589484D01*
X5400539Y-54589484D02*
X5381491Y-54579960D01*
X5381491Y-54579960D02*
X5371967Y-54570436D01*
X5371967Y-54570436D02*
X5362444Y-54551388D01*
X5362444Y-54551388D02*
X5352920Y-54513293D01*
X5352920Y-54513293D02*
X5352920Y-54465674D01*
X5352920Y-54465674D02*
X5362444Y-54427579D01*
X5362444Y-54427579D02*
X5371967Y-54408531D01*
X5371967Y-54408531D02*
X5381491Y-54399008D01*
X5381491Y-54399008D02*
X5400539Y-54389484D01*
X5552920Y-54589484D02*
X5552920Y-54456150D01*
X5552920Y-54475198D02*
X5562444Y-54465674D01*
X5562444Y-54465674D02*
X5581491Y-54456150D01*
X5581491Y-54456150D02*
X5610063Y-54456150D01*
X5610063Y-54456150D02*
X5629110Y-54465674D01*
X5629110Y-54465674D02*
X5638634Y-54484722D01*
X5638634Y-54484722D02*
X5638634Y-54589484D01*
X5638634Y-54484722D02*
X5648158Y-54465674D01*
X5648158Y-54465674D02*
X5667205Y-54456150D01*
X5667205Y-54456150D02*
X5695777Y-54456150D01*
X5695777Y-54456150D02*
X5714824Y-54465674D01*
X5714824Y-54465674D02*
X5724348Y-54484722D01*
X5724348Y-54484722D02*
X5724348Y-54589484D01*
X5819586Y-54589484D02*
X5819586Y-54456150D01*
X5819586Y-54475198D02*
X5829110Y-54465674D01*
X5829110Y-54465674D02*
X5848158Y-54456150D01*
X5848158Y-54456150D02*
X5876729Y-54456150D01*
X5876729Y-54456150D02*
X5895777Y-54465674D01*
X5895777Y-54465674D02*
X5905301Y-54484722D01*
X5905301Y-54484722D02*
X5905301Y-54589484D01*
X5905301Y-54484722D02*
X5914824Y-54465674D01*
X5914824Y-54465674D02*
X5933872Y-54456150D01*
X5933872Y-54456150D02*
X5962443Y-54456150D01*
X5962443Y-54456150D02*
X5981491Y-54465674D01*
X5981491Y-54465674D02*
X5991015Y-54484722D01*
X5991015Y-54484722D02*
X5991015Y-54589484D01*
X6381491Y-54379960D02*
X6210063Y-54637103D01*
X6638634Y-54389484D02*
X6657682Y-54389484D01*
X6657682Y-54389484D02*
X6676729Y-54399008D01*
X6676729Y-54399008D02*
X6686253Y-54408531D01*
X6686253Y-54408531D02*
X6695777Y-54427579D01*
X6695777Y-54427579D02*
X6705301Y-54465674D01*
X6705301Y-54465674D02*
X6705301Y-54513293D01*
X6705301Y-54513293D02*
X6695777Y-54551388D01*
X6695777Y-54551388D02*
X6686253Y-54570436D01*
X6686253Y-54570436D02*
X6676729Y-54579960D01*
X6676729Y-54579960D02*
X6657682Y-54589484D01*
X6657682Y-54589484D02*
X6638634Y-54589484D01*
X6638634Y-54589484D02*
X6619586Y-54579960D01*
X6619586Y-54579960D02*
X6610063Y-54570436D01*
X6610063Y-54570436D02*
X6600539Y-54551388D01*
X6600539Y-54551388D02*
X6591015Y-54513293D01*
X6591015Y-54513293D02*
X6591015Y-54465674D01*
X6591015Y-54465674D02*
X6600539Y-54427579D01*
X6600539Y-54427579D02*
X6610063Y-54408531D01*
X6610063Y-54408531D02*
X6619586Y-54399008D01*
X6619586Y-54399008D02*
X6638634Y-54389484D01*
X6791015Y-54570436D02*
X6800539Y-54579960D01*
X6800539Y-54579960D02*
X6791015Y-54589484D01*
X6791015Y-54589484D02*
X6781491Y-54579960D01*
X6781491Y-54579960D02*
X6791015Y-54570436D01*
X6791015Y-54570436D02*
X6791015Y-54589484D01*
X6924348Y-54389484D02*
X6943396Y-54389484D01*
X6943396Y-54389484D02*
X6962444Y-54399008D01*
X6962444Y-54399008D02*
X6971967Y-54408531D01*
X6971967Y-54408531D02*
X6981491Y-54427579D01*
X6981491Y-54427579D02*
X6991015Y-54465674D01*
X6991015Y-54465674D02*
X6991015Y-54513293D01*
X6991015Y-54513293D02*
X6981491Y-54551388D01*
X6981491Y-54551388D02*
X6971967Y-54570436D01*
X6971967Y-54570436D02*
X6962444Y-54579960D01*
X6962444Y-54579960D02*
X6943396Y-54589484D01*
X6943396Y-54589484D02*
X6924348Y-54589484D01*
X6924348Y-54589484D02*
X6905301Y-54579960D01*
X6905301Y-54579960D02*
X6895777Y-54570436D01*
X6895777Y-54570436D02*
X6886253Y-54551388D01*
X6886253Y-54551388D02*
X6876729Y-54513293D01*
X6876729Y-54513293D02*
X6876729Y-54465674D01*
X6876729Y-54465674D02*
X6886253Y-54427579D01*
X6886253Y-54427579D02*
X6895777Y-54408531D01*
X6895777Y-54408531D02*
X6905301Y-54399008D01*
X6905301Y-54399008D02*
X6924348Y-54389484D01*
X7181491Y-54589484D02*
X7067206Y-54589484D01*
X7124348Y-54589484D02*
X7124348Y-54389484D01*
X7124348Y-54389484D02*
X7105301Y-54418055D01*
X7105301Y-54418055D02*
X7086253Y-54437103D01*
X7086253Y-54437103D02*
X7067206Y-54446627D01*
X7371967Y-54589484D02*
X7257682Y-54589484D01*
X7314825Y-54589484D02*
X7314825Y-54389484D01*
X7314825Y-54389484D02*
X7295777Y-54418055D01*
X7295777Y-54418055D02*
X7276729Y-54437103D01*
X7276729Y-54437103D02*
X7257682Y-54446627D01*
X7486253Y-54475198D02*
X7467206Y-54465674D01*
X7467206Y-54465674D02*
X7457682Y-54456150D01*
X7457682Y-54456150D02*
X7448158Y-54437103D01*
X7448158Y-54437103D02*
X7448158Y-54427579D01*
X7448158Y-54427579D02*
X7457682Y-54408531D01*
X7457682Y-54408531D02*
X7467206Y-54399008D01*
X7467206Y-54399008D02*
X7486253Y-54389484D01*
X7486253Y-54389484D02*
X7524348Y-54389484D01*
X7524348Y-54389484D02*
X7543396Y-54399008D01*
X7543396Y-54399008D02*
X7552920Y-54408531D01*
X7552920Y-54408531D02*
X7562444Y-54427579D01*
X7562444Y-54427579D02*
X7562444Y-54437103D01*
X7562444Y-54437103D02*
X7552920Y-54456150D01*
X7552920Y-54456150D02*
X7543396Y-54465674D01*
X7543396Y-54465674D02*
X7524348Y-54475198D01*
X7524348Y-54475198D02*
X7486253Y-54475198D01*
X7486253Y-54475198D02*
X7467206Y-54484722D01*
X7467206Y-54484722D02*
X7457682Y-54494246D01*
X7457682Y-54494246D02*
X7448158Y-54513293D01*
X7448158Y-54513293D02*
X7448158Y-54551388D01*
X7448158Y-54551388D02*
X7457682Y-54570436D01*
X7457682Y-54570436D02*
X7467206Y-54579960D01*
X7467206Y-54579960D02*
X7486253Y-54589484D01*
X7486253Y-54589484D02*
X7524348Y-54589484D01*
X7524348Y-54589484D02*
X7543396Y-54579960D01*
X7543396Y-54579960D02*
X7552920Y-54570436D01*
X7552920Y-54570436D02*
X7562444Y-54551388D01*
X7562444Y-54551388D02*
X7562444Y-54513293D01*
X7562444Y-54513293D02*
X7552920Y-54494246D01*
X7552920Y-54494246D02*
X7543396Y-54484722D01*
X7543396Y-54484722D02*
X7524348Y-54475198D01*
X7638634Y-54389484D02*
X7638634Y-54427579D01*
X7714825Y-54389484D02*
X7714825Y-54427579D01*
X8010063Y-54665674D02*
X8000539Y-54656150D01*
X8000539Y-54656150D02*
X7981491Y-54627579D01*
X7981491Y-54627579D02*
X7971968Y-54608531D01*
X7971968Y-54608531D02*
X7962444Y-54579960D01*
X7962444Y-54579960D02*
X7952920Y-54532341D01*
X7952920Y-54532341D02*
X7952920Y-54494246D01*
X7952920Y-54494246D02*
X7962444Y-54446627D01*
X7962444Y-54446627D02*
X7971968Y-54418055D01*
X7971968Y-54418055D02*
X7981491Y-54399008D01*
X7981491Y-54399008D02*
X8000539Y-54370436D01*
X8000539Y-54370436D02*
X8010063Y-54360912D01*
X8171968Y-54389484D02*
X8133872Y-54389484D01*
X8133872Y-54389484D02*
X8114825Y-54399008D01*
X8114825Y-54399008D02*
X8105301Y-54408531D01*
X8105301Y-54408531D02*
X8086253Y-54437103D01*
X8086253Y-54437103D02*
X8076729Y-54475198D01*
X8076729Y-54475198D02*
X8076729Y-54551388D01*
X8076729Y-54551388D02*
X8086253Y-54570436D01*
X8086253Y-54570436D02*
X8095777Y-54579960D01*
X8095777Y-54579960D02*
X8114825Y-54589484D01*
X8114825Y-54589484D02*
X8152920Y-54589484D01*
X8152920Y-54589484D02*
X8171968Y-54579960D01*
X8171968Y-54579960D02*
X8181491Y-54570436D01*
X8181491Y-54570436D02*
X8191015Y-54551388D01*
X8191015Y-54551388D02*
X8191015Y-54503769D01*
X8191015Y-54503769D02*
X8181491Y-54484722D01*
X8181491Y-54484722D02*
X8171968Y-54475198D01*
X8171968Y-54475198D02*
X8152920Y-54465674D01*
X8152920Y-54465674D02*
X8114825Y-54465674D01*
X8114825Y-54465674D02*
X8095777Y-54475198D01*
X8095777Y-54475198D02*
X8086253Y-54484722D01*
X8086253Y-54484722D02*
X8076729Y-54503769D01*
X8429111Y-54589484D02*
X8429111Y-54389484D01*
X8514825Y-54589484D02*
X8514825Y-54484722D01*
X8514825Y-54484722D02*
X8505301Y-54465674D01*
X8505301Y-54465674D02*
X8486253Y-54456150D01*
X8486253Y-54456150D02*
X8457682Y-54456150D01*
X8457682Y-54456150D02*
X8438634Y-54465674D01*
X8438634Y-54465674D02*
X8429111Y-54475198D01*
X8638634Y-54589484D02*
X8619587Y-54579960D01*
X8619587Y-54579960D02*
X8610063Y-54570436D01*
X8610063Y-54570436D02*
X8600539Y-54551388D01*
X8600539Y-54551388D02*
X8600539Y-54494246D01*
X8600539Y-54494246D02*
X8610063Y-54475198D01*
X8610063Y-54475198D02*
X8619587Y-54465674D01*
X8619587Y-54465674D02*
X8638634Y-54456150D01*
X8638634Y-54456150D02*
X8667206Y-54456150D01*
X8667206Y-54456150D02*
X8686253Y-54465674D01*
X8686253Y-54465674D02*
X8695777Y-54475198D01*
X8695777Y-54475198D02*
X8705301Y-54494246D01*
X8705301Y-54494246D02*
X8705301Y-54551388D01*
X8705301Y-54551388D02*
X8695777Y-54570436D01*
X8695777Y-54570436D02*
X8686253Y-54579960D01*
X8686253Y-54579960D02*
X8667206Y-54589484D01*
X8667206Y-54589484D02*
X8638634Y-54589484D01*
X8819587Y-54589484D02*
X8800539Y-54579960D01*
X8800539Y-54579960D02*
X8791015Y-54560912D01*
X8791015Y-54560912D02*
X8791015Y-54389484D01*
X8971968Y-54579960D02*
X8952920Y-54589484D01*
X8952920Y-54589484D02*
X8914825Y-54589484D01*
X8914825Y-54589484D02*
X8895777Y-54579960D01*
X8895777Y-54579960D02*
X8886253Y-54560912D01*
X8886253Y-54560912D02*
X8886253Y-54484722D01*
X8886253Y-54484722D02*
X8895777Y-54465674D01*
X8895777Y-54465674D02*
X8914825Y-54456150D01*
X8914825Y-54456150D02*
X8952920Y-54456150D01*
X8952920Y-54456150D02*
X8971968Y-54465674D01*
X8971968Y-54465674D02*
X8981492Y-54484722D01*
X8981492Y-54484722D02*
X8981492Y-54503769D01*
X8981492Y-54503769D02*
X8886253Y-54522817D01*
X9057682Y-54579960D02*
X9076730Y-54589484D01*
X9076730Y-54589484D02*
X9114825Y-54589484D01*
X9114825Y-54589484D02*
X9133873Y-54579960D01*
X9133873Y-54579960D02*
X9143396Y-54560912D01*
X9143396Y-54560912D02*
X9143396Y-54551388D01*
X9143396Y-54551388D02*
X9133873Y-54532341D01*
X9133873Y-54532341D02*
X9114825Y-54522817D01*
X9114825Y-54522817D02*
X9086253Y-54522817D01*
X9086253Y-54522817D02*
X9067206Y-54513293D01*
X9067206Y-54513293D02*
X9057682Y-54494246D01*
X9057682Y-54494246D02*
X9057682Y-54484722D01*
X9057682Y-54484722D02*
X9067206Y-54465674D01*
X9067206Y-54465674D02*
X9086253Y-54456150D01*
X9086253Y-54456150D02*
X9114825Y-54456150D01*
X9114825Y-54456150D02*
X9133873Y-54465674D01*
X9210063Y-54665674D02*
X9219587Y-54656150D01*
X9219587Y-54656150D02*
X9238634Y-54627579D01*
X9238634Y-54627579D02*
X9248158Y-54608531D01*
X9248158Y-54608531D02*
X9257682Y-54579960D01*
X9257682Y-54579960D02*
X9267206Y-54532341D01*
X9267206Y-54532341D02*
X9267206Y-54494246D01*
X9267206Y-54494246D02*
X9257682Y-54446627D01*
X9257682Y-54446627D02*
X9248158Y-54418055D01*
X9248158Y-54418055D02*
X9238634Y-54399008D01*
X9238634Y-54399008D02*
X9219587Y-54370436D01*
X9219587Y-54370436D02*
X9210063Y-54360912D01*
D12*
X4435000Y-54762000D02*
G75*
G02*
X4360000Y-54762000I-37500J0D01*
G01*
X4360000Y-54762000D02*
G75*
G02*
X4435000Y-54762000I37500J0D01*
G01*
D11*
X4733872Y-54653484D02*
X4752920Y-54653484D01*
X4752920Y-54653484D02*
X4771967Y-54663008D01*
X4771967Y-54663008D02*
X4781491Y-54672531D01*
X4781491Y-54672531D02*
X4791015Y-54691579D01*
X4791015Y-54691579D02*
X4800539Y-54729674D01*
X4800539Y-54729674D02*
X4800539Y-54777293D01*
X4800539Y-54777293D02*
X4791015Y-54815388D01*
X4791015Y-54815388D02*
X4781491Y-54834436D01*
X4781491Y-54834436D02*
X4771967Y-54843960D01*
X4771967Y-54843960D02*
X4752920Y-54853484D01*
X4752920Y-54853484D02*
X4733872Y-54853484D01*
X4733872Y-54853484D02*
X4714824Y-54843960D01*
X4714824Y-54843960D02*
X4705301Y-54834436D01*
X4705301Y-54834436D02*
X4695777Y-54815388D01*
X4695777Y-54815388D02*
X4686253Y-54777293D01*
X4686253Y-54777293D02*
X4686253Y-54729674D01*
X4686253Y-54729674D02*
X4695777Y-54691579D01*
X4695777Y-54691579D02*
X4705301Y-54672531D01*
X4705301Y-54672531D02*
X4714824Y-54663008D01*
X4714824Y-54663008D02*
X4733872Y-54653484D01*
X4886253Y-54834436D02*
X4895777Y-54843960D01*
X4895777Y-54843960D02*
X4886253Y-54853484D01*
X4886253Y-54853484D02*
X4876729Y-54843960D01*
X4876729Y-54843960D02*
X4886253Y-54834436D01*
X4886253Y-54834436D02*
X4886253Y-54853484D01*
X4962444Y-54653484D02*
X5095777Y-54653484D01*
X5095777Y-54653484D02*
X5010063Y-54853484D01*
X5267205Y-54653484D02*
X5171967Y-54653484D01*
X5171967Y-54653484D02*
X5162444Y-54748722D01*
X5162444Y-54748722D02*
X5171967Y-54739198D01*
X5171967Y-54739198D02*
X5191015Y-54729674D01*
X5191015Y-54729674D02*
X5238634Y-54729674D01*
X5238634Y-54729674D02*
X5257682Y-54739198D01*
X5257682Y-54739198D02*
X5267205Y-54748722D01*
X5267205Y-54748722D02*
X5276729Y-54767769D01*
X5276729Y-54767769D02*
X5276729Y-54815388D01*
X5276729Y-54815388D02*
X5267205Y-54834436D01*
X5267205Y-54834436D02*
X5257682Y-54843960D01*
X5257682Y-54843960D02*
X5238634Y-54853484D01*
X5238634Y-54853484D02*
X5191015Y-54853484D01*
X5191015Y-54853484D02*
X5171967Y-54843960D01*
X5171967Y-54843960D02*
X5162444Y-54834436D01*
X5400539Y-54653484D02*
X5419586Y-54653484D01*
X5419586Y-54653484D02*
X5438634Y-54663008D01*
X5438634Y-54663008D02*
X5448158Y-54672531D01*
X5448158Y-54672531D02*
X5457682Y-54691579D01*
X5457682Y-54691579D02*
X5467205Y-54729674D01*
X5467205Y-54729674D02*
X5467205Y-54777293D01*
X5467205Y-54777293D02*
X5457682Y-54815388D01*
X5457682Y-54815388D02*
X5448158Y-54834436D01*
X5448158Y-54834436D02*
X5438634Y-54843960D01*
X5438634Y-54843960D02*
X5419586Y-54853484D01*
X5419586Y-54853484D02*
X5400539Y-54853484D01*
X5400539Y-54853484D02*
X5381491Y-54843960D01*
X5381491Y-54843960D02*
X5371967Y-54834436D01*
X5371967Y-54834436D02*
X5362444Y-54815388D01*
X5362444Y-54815388D02*
X5352920Y-54777293D01*
X5352920Y-54777293D02*
X5352920Y-54729674D01*
X5352920Y-54729674D02*
X5362444Y-54691579D01*
X5362444Y-54691579D02*
X5371967Y-54672531D01*
X5371967Y-54672531D02*
X5381491Y-54663008D01*
X5381491Y-54663008D02*
X5400539Y-54653484D01*
X5552920Y-54853484D02*
X5552920Y-54720150D01*
X5552920Y-54739198D02*
X5562444Y-54729674D01*
X5562444Y-54729674D02*
X5581491Y-54720150D01*
X5581491Y-54720150D02*
X5610063Y-54720150D01*
X5610063Y-54720150D02*
X5629110Y-54729674D01*
X5629110Y-54729674D02*
X5638634Y-54748722D01*
X5638634Y-54748722D02*
X5638634Y-54853484D01*
X5638634Y-54748722D02*
X5648158Y-54729674D01*
X5648158Y-54729674D02*
X5667205Y-54720150D01*
X5667205Y-54720150D02*
X5695777Y-54720150D01*
X5695777Y-54720150D02*
X5714824Y-54729674D01*
X5714824Y-54729674D02*
X5724348Y-54748722D01*
X5724348Y-54748722D02*
X5724348Y-54853484D01*
X5819586Y-54853484D02*
X5819586Y-54720150D01*
X5819586Y-54739198D02*
X5829110Y-54729674D01*
X5829110Y-54729674D02*
X5848158Y-54720150D01*
X5848158Y-54720150D02*
X5876729Y-54720150D01*
X5876729Y-54720150D02*
X5895777Y-54729674D01*
X5895777Y-54729674D02*
X5905301Y-54748722D01*
X5905301Y-54748722D02*
X5905301Y-54853484D01*
X5905301Y-54748722D02*
X5914824Y-54729674D01*
X5914824Y-54729674D02*
X5933872Y-54720150D01*
X5933872Y-54720150D02*
X5962443Y-54720150D01*
X5962443Y-54720150D02*
X5981491Y-54729674D01*
X5981491Y-54729674D02*
X5991015Y-54748722D01*
X5991015Y-54748722D02*
X5991015Y-54853484D01*
X6381491Y-54643960D02*
X6210063Y-54901103D01*
X6638634Y-54653484D02*
X6657682Y-54653484D01*
X6657682Y-54653484D02*
X6676729Y-54663008D01*
X6676729Y-54663008D02*
X6686253Y-54672531D01*
X6686253Y-54672531D02*
X6695777Y-54691579D01*
X6695777Y-54691579D02*
X6705301Y-54729674D01*
X6705301Y-54729674D02*
X6705301Y-54777293D01*
X6705301Y-54777293D02*
X6695777Y-54815388D01*
X6695777Y-54815388D02*
X6686253Y-54834436D01*
X6686253Y-54834436D02*
X6676729Y-54843960D01*
X6676729Y-54843960D02*
X6657682Y-54853484D01*
X6657682Y-54853484D02*
X6638634Y-54853484D01*
X6638634Y-54853484D02*
X6619586Y-54843960D01*
X6619586Y-54843960D02*
X6610063Y-54834436D01*
X6610063Y-54834436D02*
X6600539Y-54815388D01*
X6600539Y-54815388D02*
X6591015Y-54777293D01*
X6591015Y-54777293D02*
X6591015Y-54729674D01*
X6591015Y-54729674D02*
X6600539Y-54691579D01*
X6600539Y-54691579D02*
X6610063Y-54672531D01*
X6610063Y-54672531D02*
X6619586Y-54663008D01*
X6619586Y-54663008D02*
X6638634Y-54653484D01*
X6791015Y-54834436D02*
X6800539Y-54843960D01*
X6800539Y-54843960D02*
X6791015Y-54853484D01*
X6791015Y-54853484D02*
X6781491Y-54843960D01*
X6781491Y-54843960D02*
X6791015Y-54834436D01*
X6791015Y-54834436D02*
X6791015Y-54853484D01*
X6924348Y-54653484D02*
X6943396Y-54653484D01*
X6943396Y-54653484D02*
X6962444Y-54663008D01*
X6962444Y-54663008D02*
X6971967Y-54672531D01*
X6971967Y-54672531D02*
X6981491Y-54691579D01*
X6981491Y-54691579D02*
X6991015Y-54729674D01*
X6991015Y-54729674D02*
X6991015Y-54777293D01*
X6991015Y-54777293D02*
X6981491Y-54815388D01*
X6981491Y-54815388D02*
X6971967Y-54834436D01*
X6971967Y-54834436D02*
X6962444Y-54843960D01*
X6962444Y-54843960D02*
X6943396Y-54853484D01*
X6943396Y-54853484D02*
X6924348Y-54853484D01*
X6924348Y-54853484D02*
X6905301Y-54843960D01*
X6905301Y-54843960D02*
X6895777Y-54834436D01*
X6895777Y-54834436D02*
X6886253Y-54815388D01*
X6886253Y-54815388D02*
X6876729Y-54777293D01*
X6876729Y-54777293D02*
X6876729Y-54729674D01*
X6876729Y-54729674D02*
X6886253Y-54691579D01*
X6886253Y-54691579D02*
X6895777Y-54672531D01*
X6895777Y-54672531D02*
X6905301Y-54663008D01*
X6905301Y-54663008D02*
X6924348Y-54653484D01*
X7067206Y-54672531D02*
X7076729Y-54663008D01*
X7076729Y-54663008D02*
X7095777Y-54653484D01*
X7095777Y-54653484D02*
X7143396Y-54653484D01*
X7143396Y-54653484D02*
X7162444Y-54663008D01*
X7162444Y-54663008D02*
X7171967Y-54672531D01*
X7171967Y-54672531D02*
X7181491Y-54691579D01*
X7181491Y-54691579D02*
X7181491Y-54710627D01*
X7181491Y-54710627D02*
X7171967Y-54739198D01*
X7171967Y-54739198D02*
X7057682Y-54853484D01*
X7057682Y-54853484D02*
X7181491Y-54853484D01*
X7276729Y-54853484D02*
X7314825Y-54853484D01*
X7314825Y-54853484D02*
X7333872Y-54843960D01*
X7333872Y-54843960D02*
X7343396Y-54834436D01*
X7343396Y-54834436D02*
X7362444Y-54805865D01*
X7362444Y-54805865D02*
X7371967Y-54767769D01*
X7371967Y-54767769D02*
X7371967Y-54691579D01*
X7371967Y-54691579D02*
X7362444Y-54672531D01*
X7362444Y-54672531D02*
X7352920Y-54663008D01*
X7352920Y-54663008D02*
X7333872Y-54653484D01*
X7333872Y-54653484D02*
X7295777Y-54653484D01*
X7295777Y-54653484D02*
X7276729Y-54663008D01*
X7276729Y-54663008D02*
X7267206Y-54672531D01*
X7267206Y-54672531D02*
X7257682Y-54691579D01*
X7257682Y-54691579D02*
X7257682Y-54739198D01*
X7257682Y-54739198D02*
X7267206Y-54758246D01*
X7267206Y-54758246D02*
X7276729Y-54767769D01*
X7276729Y-54767769D02*
X7295777Y-54777293D01*
X7295777Y-54777293D02*
X7333872Y-54777293D01*
X7333872Y-54777293D02*
X7352920Y-54767769D01*
X7352920Y-54767769D02*
X7362444Y-54758246D01*
X7362444Y-54758246D02*
X7371967Y-54739198D01*
X7552920Y-54653484D02*
X7457682Y-54653484D01*
X7457682Y-54653484D02*
X7448158Y-54748722D01*
X7448158Y-54748722D02*
X7457682Y-54739198D01*
X7457682Y-54739198D02*
X7476729Y-54729674D01*
X7476729Y-54729674D02*
X7524348Y-54729674D01*
X7524348Y-54729674D02*
X7543396Y-54739198D01*
X7543396Y-54739198D02*
X7552920Y-54748722D01*
X7552920Y-54748722D02*
X7562444Y-54767769D01*
X7562444Y-54767769D02*
X7562444Y-54815388D01*
X7562444Y-54815388D02*
X7552920Y-54834436D01*
X7552920Y-54834436D02*
X7543396Y-54843960D01*
X7543396Y-54843960D02*
X7524348Y-54853484D01*
X7524348Y-54853484D02*
X7476729Y-54853484D01*
X7476729Y-54853484D02*
X7457682Y-54843960D01*
X7457682Y-54843960D02*
X7448158Y-54834436D01*
X7638634Y-54653484D02*
X7638634Y-54691579D01*
X7714825Y-54653484D02*
X7714825Y-54691579D01*
X8010063Y-54929674D02*
X8000539Y-54920150D01*
X8000539Y-54920150D02*
X7981491Y-54891579D01*
X7981491Y-54891579D02*
X7971968Y-54872531D01*
X7971968Y-54872531D02*
X7962444Y-54843960D01*
X7962444Y-54843960D02*
X7952920Y-54796341D01*
X7952920Y-54796341D02*
X7952920Y-54758246D01*
X7952920Y-54758246D02*
X7962444Y-54710627D01*
X7962444Y-54710627D02*
X7971968Y-54682055D01*
X7971968Y-54682055D02*
X7981491Y-54663008D01*
X7981491Y-54663008D02*
X8000539Y-54634436D01*
X8000539Y-54634436D02*
X8010063Y-54624912D01*
X8067206Y-54653484D02*
X8191015Y-54653484D01*
X8191015Y-54653484D02*
X8124348Y-54729674D01*
X8124348Y-54729674D02*
X8152920Y-54729674D01*
X8152920Y-54729674D02*
X8171968Y-54739198D01*
X8171968Y-54739198D02*
X8181491Y-54748722D01*
X8181491Y-54748722D02*
X8191015Y-54767769D01*
X8191015Y-54767769D02*
X8191015Y-54815388D01*
X8191015Y-54815388D02*
X8181491Y-54834436D01*
X8181491Y-54834436D02*
X8171968Y-54843960D01*
X8171968Y-54843960D02*
X8152920Y-54853484D01*
X8152920Y-54853484D02*
X8095777Y-54853484D01*
X8095777Y-54853484D02*
X8076729Y-54843960D01*
X8076729Y-54843960D02*
X8067206Y-54834436D01*
X8429111Y-54853484D02*
X8429111Y-54653484D01*
X8514825Y-54853484D02*
X8514825Y-54748722D01*
X8514825Y-54748722D02*
X8505301Y-54729674D01*
X8505301Y-54729674D02*
X8486253Y-54720150D01*
X8486253Y-54720150D02*
X8457682Y-54720150D01*
X8457682Y-54720150D02*
X8438634Y-54729674D01*
X8438634Y-54729674D02*
X8429111Y-54739198D01*
X8638634Y-54853484D02*
X8619587Y-54843960D01*
X8619587Y-54843960D02*
X8610063Y-54834436D01*
X8610063Y-54834436D02*
X8600539Y-54815388D01*
X8600539Y-54815388D02*
X8600539Y-54758246D01*
X8600539Y-54758246D02*
X8610063Y-54739198D01*
X8610063Y-54739198D02*
X8619587Y-54729674D01*
X8619587Y-54729674D02*
X8638634Y-54720150D01*
X8638634Y-54720150D02*
X8667206Y-54720150D01*
X8667206Y-54720150D02*
X8686253Y-54729674D01*
X8686253Y-54729674D02*
X8695777Y-54739198D01*
X8695777Y-54739198D02*
X8705301Y-54758246D01*
X8705301Y-54758246D02*
X8705301Y-54815388D01*
X8705301Y-54815388D02*
X8695777Y-54834436D01*
X8695777Y-54834436D02*
X8686253Y-54843960D01*
X8686253Y-54843960D02*
X8667206Y-54853484D01*
X8667206Y-54853484D02*
X8638634Y-54853484D01*
X8819587Y-54853484D02*
X8800539Y-54843960D01*
X8800539Y-54843960D02*
X8791015Y-54824912D01*
X8791015Y-54824912D02*
X8791015Y-54653484D01*
X8971968Y-54843960D02*
X8952920Y-54853484D01*
X8952920Y-54853484D02*
X8914825Y-54853484D01*
X8914825Y-54853484D02*
X8895777Y-54843960D01*
X8895777Y-54843960D02*
X8886253Y-54824912D01*
X8886253Y-54824912D02*
X8886253Y-54748722D01*
X8886253Y-54748722D02*
X8895777Y-54729674D01*
X8895777Y-54729674D02*
X8914825Y-54720150D01*
X8914825Y-54720150D02*
X8952920Y-54720150D01*
X8952920Y-54720150D02*
X8971968Y-54729674D01*
X8971968Y-54729674D02*
X8981492Y-54748722D01*
X8981492Y-54748722D02*
X8981492Y-54767769D01*
X8981492Y-54767769D02*
X8886253Y-54786817D01*
X9057682Y-54843960D02*
X9076730Y-54853484D01*
X9076730Y-54853484D02*
X9114825Y-54853484D01*
X9114825Y-54853484D02*
X9133873Y-54843960D01*
X9133873Y-54843960D02*
X9143396Y-54824912D01*
X9143396Y-54824912D02*
X9143396Y-54815388D01*
X9143396Y-54815388D02*
X9133873Y-54796341D01*
X9133873Y-54796341D02*
X9114825Y-54786817D01*
X9114825Y-54786817D02*
X9086253Y-54786817D01*
X9086253Y-54786817D02*
X9067206Y-54777293D01*
X9067206Y-54777293D02*
X9057682Y-54758246D01*
X9057682Y-54758246D02*
X9057682Y-54748722D01*
X9057682Y-54748722D02*
X9067206Y-54729674D01*
X9067206Y-54729674D02*
X9086253Y-54720150D01*
X9086253Y-54720150D02*
X9114825Y-54720150D01*
X9114825Y-54720150D02*
X9133873Y-54729674D01*
X9210063Y-54929674D02*
X9219587Y-54920150D01*
X9219587Y-54920150D02*
X9238634Y-54891579D01*
X9238634Y-54891579D02*
X9248158Y-54872531D01*
X9248158Y-54872531D02*
X9257682Y-54843960D01*
X9257682Y-54843960D02*
X9267206Y-54796341D01*
X9267206Y-54796341D02*
X9267206Y-54758246D01*
X9267206Y-54758246D02*
X9257682Y-54710627D01*
X9257682Y-54710627D02*
X9248158Y-54682055D01*
X9248158Y-54682055D02*
X9238634Y-54663008D01*
X9238634Y-54663008D02*
X9219587Y-54634436D01*
X9219587Y-54634436D02*
X9210063Y-54624912D01*
D12*
X4385000Y-54976000D02*
X4385000Y-55076000D01*
X4335000Y-55026000D02*
X4435000Y-55026000D01*
D11*
X4800539Y-55117484D02*
X4686253Y-55117484D01*
X4743396Y-55117484D02*
X4743396Y-54917484D01*
X4743396Y-54917484D02*
X4724348Y-54946055D01*
X4724348Y-54946055D02*
X4705301Y-54965103D01*
X4705301Y-54965103D02*
X4686253Y-54974627D01*
X4886253Y-55098436D02*
X4895777Y-55107960D01*
X4895777Y-55107960D02*
X4886253Y-55117484D01*
X4886253Y-55117484D02*
X4876729Y-55107960D01*
X4876729Y-55107960D02*
X4886253Y-55098436D01*
X4886253Y-55098436D02*
X4886253Y-55117484D01*
X5019586Y-54917484D02*
X5038634Y-54917484D01*
X5038634Y-54917484D02*
X5057682Y-54927008D01*
X5057682Y-54927008D02*
X5067205Y-54936531D01*
X5067205Y-54936531D02*
X5076729Y-54955579D01*
X5076729Y-54955579D02*
X5086253Y-54993674D01*
X5086253Y-54993674D02*
X5086253Y-55041293D01*
X5086253Y-55041293D02*
X5076729Y-55079388D01*
X5076729Y-55079388D02*
X5067205Y-55098436D01*
X5067205Y-55098436D02*
X5057682Y-55107960D01*
X5057682Y-55107960D02*
X5038634Y-55117484D01*
X5038634Y-55117484D02*
X5019586Y-55117484D01*
X5019586Y-55117484D02*
X5000539Y-55107960D01*
X5000539Y-55107960D02*
X4991015Y-55098436D01*
X4991015Y-55098436D02*
X4981491Y-55079388D01*
X4981491Y-55079388D02*
X4971967Y-55041293D01*
X4971967Y-55041293D02*
X4971967Y-54993674D01*
X4971967Y-54993674D02*
X4981491Y-54955579D01*
X4981491Y-54955579D02*
X4991015Y-54936531D01*
X4991015Y-54936531D02*
X5000539Y-54927008D01*
X5000539Y-54927008D02*
X5019586Y-54917484D01*
X5210063Y-54917484D02*
X5229110Y-54917484D01*
X5229110Y-54917484D02*
X5248158Y-54927008D01*
X5248158Y-54927008D02*
X5257682Y-54936531D01*
X5257682Y-54936531D02*
X5267205Y-54955579D01*
X5267205Y-54955579D02*
X5276729Y-54993674D01*
X5276729Y-54993674D02*
X5276729Y-55041293D01*
X5276729Y-55041293D02*
X5267205Y-55079388D01*
X5267205Y-55079388D02*
X5257682Y-55098436D01*
X5257682Y-55098436D02*
X5248158Y-55107960D01*
X5248158Y-55107960D02*
X5229110Y-55117484D01*
X5229110Y-55117484D02*
X5210063Y-55117484D01*
X5210063Y-55117484D02*
X5191015Y-55107960D01*
X5191015Y-55107960D02*
X5181491Y-55098436D01*
X5181491Y-55098436D02*
X5171967Y-55079388D01*
X5171967Y-55079388D02*
X5162444Y-55041293D01*
X5162444Y-55041293D02*
X5162444Y-54993674D01*
X5162444Y-54993674D02*
X5171967Y-54955579D01*
X5171967Y-54955579D02*
X5181491Y-54936531D01*
X5181491Y-54936531D02*
X5191015Y-54927008D01*
X5191015Y-54927008D02*
X5210063Y-54917484D01*
X5400539Y-54917484D02*
X5419586Y-54917484D01*
X5419586Y-54917484D02*
X5438634Y-54927008D01*
X5438634Y-54927008D02*
X5448158Y-54936531D01*
X5448158Y-54936531D02*
X5457682Y-54955579D01*
X5457682Y-54955579D02*
X5467205Y-54993674D01*
X5467205Y-54993674D02*
X5467205Y-55041293D01*
X5467205Y-55041293D02*
X5457682Y-55079388D01*
X5457682Y-55079388D02*
X5448158Y-55098436D01*
X5448158Y-55098436D02*
X5438634Y-55107960D01*
X5438634Y-55107960D02*
X5419586Y-55117484D01*
X5419586Y-55117484D02*
X5400539Y-55117484D01*
X5400539Y-55117484D02*
X5381491Y-55107960D01*
X5381491Y-55107960D02*
X5371967Y-55098436D01*
X5371967Y-55098436D02*
X5362444Y-55079388D01*
X5362444Y-55079388D02*
X5352920Y-55041293D01*
X5352920Y-55041293D02*
X5352920Y-54993674D01*
X5352920Y-54993674D02*
X5362444Y-54955579D01*
X5362444Y-54955579D02*
X5371967Y-54936531D01*
X5371967Y-54936531D02*
X5381491Y-54927008D01*
X5381491Y-54927008D02*
X5400539Y-54917484D01*
X5552920Y-55117484D02*
X5552920Y-54984150D01*
X5552920Y-55003198D02*
X5562444Y-54993674D01*
X5562444Y-54993674D02*
X5581491Y-54984150D01*
X5581491Y-54984150D02*
X5610063Y-54984150D01*
X5610063Y-54984150D02*
X5629110Y-54993674D01*
X5629110Y-54993674D02*
X5638634Y-55012722D01*
X5638634Y-55012722D02*
X5638634Y-55117484D01*
X5638634Y-55012722D02*
X5648158Y-54993674D01*
X5648158Y-54993674D02*
X5667205Y-54984150D01*
X5667205Y-54984150D02*
X5695777Y-54984150D01*
X5695777Y-54984150D02*
X5714824Y-54993674D01*
X5714824Y-54993674D02*
X5724348Y-55012722D01*
X5724348Y-55012722D02*
X5724348Y-55117484D01*
X5819586Y-55117484D02*
X5819586Y-54984150D01*
X5819586Y-55003198D02*
X5829110Y-54993674D01*
X5829110Y-54993674D02*
X5848158Y-54984150D01*
X5848158Y-54984150D02*
X5876729Y-54984150D01*
X5876729Y-54984150D02*
X5895777Y-54993674D01*
X5895777Y-54993674D02*
X5905301Y-55012722D01*
X5905301Y-55012722D02*
X5905301Y-55117484D01*
X5905301Y-55012722D02*
X5914824Y-54993674D01*
X5914824Y-54993674D02*
X5933872Y-54984150D01*
X5933872Y-54984150D02*
X5962443Y-54984150D01*
X5962443Y-54984150D02*
X5981491Y-54993674D01*
X5981491Y-54993674D02*
X5991015Y-55012722D01*
X5991015Y-55012722D02*
X5991015Y-55117484D01*
X6381491Y-54907960D02*
X6210063Y-55165103D01*
X6638634Y-54917484D02*
X6657682Y-54917484D01*
X6657682Y-54917484D02*
X6676729Y-54927008D01*
X6676729Y-54927008D02*
X6686253Y-54936531D01*
X6686253Y-54936531D02*
X6695777Y-54955579D01*
X6695777Y-54955579D02*
X6705301Y-54993674D01*
X6705301Y-54993674D02*
X6705301Y-55041293D01*
X6705301Y-55041293D02*
X6695777Y-55079388D01*
X6695777Y-55079388D02*
X6686253Y-55098436D01*
X6686253Y-55098436D02*
X6676729Y-55107960D01*
X6676729Y-55107960D02*
X6657682Y-55117484D01*
X6657682Y-55117484D02*
X6638634Y-55117484D01*
X6638634Y-55117484D02*
X6619586Y-55107960D01*
X6619586Y-55107960D02*
X6610063Y-55098436D01*
X6610063Y-55098436D02*
X6600539Y-55079388D01*
X6600539Y-55079388D02*
X6591015Y-55041293D01*
X6591015Y-55041293D02*
X6591015Y-54993674D01*
X6591015Y-54993674D02*
X6600539Y-54955579D01*
X6600539Y-54955579D02*
X6610063Y-54936531D01*
X6610063Y-54936531D02*
X6619586Y-54927008D01*
X6619586Y-54927008D02*
X6638634Y-54917484D01*
X6791015Y-55098436D02*
X6800539Y-55107960D01*
X6800539Y-55107960D02*
X6791015Y-55117484D01*
X6791015Y-55117484D02*
X6781491Y-55107960D01*
X6781491Y-55107960D02*
X6791015Y-55098436D01*
X6791015Y-55098436D02*
X6791015Y-55117484D01*
X6924348Y-54917484D02*
X6943396Y-54917484D01*
X6943396Y-54917484D02*
X6962444Y-54927008D01*
X6962444Y-54927008D02*
X6971967Y-54936531D01*
X6971967Y-54936531D02*
X6981491Y-54955579D01*
X6981491Y-54955579D02*
X6991015Y-54993674D01*
X6991015Y-54993674D02*
X6991015Y-55041293D01*
X6991015Y-55041293D02*
X6981491Y-55079388D01*
X6981491Y-55079388D02*
X6971967Y-55098436D01*
X6971967Y-55098436D02*
X6962444Y-55107960D01*
X6962444Y-55107960D02*
X6943396Y-55117484D01*
X6943396Y-55117484D02*
X6924348Y-55117484D01*
X6924348Y-55117484D02*
X6905301Y-55107960D01*
X6905301Y-55107960D02*
X6895777Y-55098436D01*
X6895777Y-55098436D02*
X6886253Y-55079388D01*
X6886253Y-55079388D02*
X6876729Y-55041293D01*
X6876729Y-55041293D02*
X6876729Y-54993674D01*
X6876729Y-54993674D02*
X6886253Y-54955579D01*
X6886253Y-54955579D02*
X6895777Y-54936531D01*
X6895777Y-54936531D02*
X6905301Y-54927008D01*
X6905301Y-54927008D02*
X6924348Y-54917484D01*
X7057682Y-54917484D02*
X7181491Y-54917484D01*
X7181491Y-54917484D02*
X7114825Y-54993674D01*
X7114825Y-54993674D02*
X7143396Y-54993674D01*
X7143396Y-54993674D02*
X7162444Y-55003198D01*
X7162444Y-55003198D02*
X7171967Y-55012722D01*
X7171967Y-55012722D02*
X7181491Y-55031769D01*
X7181491Y-55031769D02*
X7181491Y-55079388D01*
X7181491Y-55079388D02*
X7171967Y-55098436D01*
X7171967Y-55098436D02*
X7162444Y-55107960D01*
X7162444Y-55107960D02*
X7143396Y-55117484D01*
X7143396Y-55117484D02*
X7086253Y-55117484D01*
X7086253Y-55117484D02*
X7067206Y-55107960D01*
X7067206Y-55107960D02*
X7057682Y-55098436D01*
X7276729Y-55117484D02*
X7314825Y-55117484D01*
X7314825Y-55117484D02*
X7333872Y-55107960D01*
X7333872Y-55107960D02*
X7343396Y-55098436D01*
X7343396Y-55098436D02*
X7362444Y-55069865D01*
X7362444Y-55069865D02*
X7371967Y-55031769D01*
X7371967Y-55031769D02*
X7371967Y-54955579D01*
X7371967Y-54955579D02*
X7362444Y-54936531D01*
X7362444Y-54936531D02*
X7352920Y-54927008D01*
X7352920Y-54927008D02*
X7333872Y-54917484D01*
X7333872Y-54917484D02*
X7295777Y-54917484D01*
X7295777Y-54917484D02*
X7276729Y-54927008D01*
X7276729Y-54927008D02*
X7267206Y-54936531D01*
X7267206Y-54936531D02*
X7257682Y-54955579D01*
X7257682Y-54955579D02*
X7257682Y-55003198D01*
X7257682Y-55003198D02*
X7267206Y-55022246D01*
X7267206Y-55022246D02*
X7276729Y-55031769D01*
X7276729Y-55031769D02*
X7295777Y-55041293D01*
X7295777Y-55041293D02*
X7333872Y-55041293D01*
X7333872Y-55041293D02*
X7352920Y-55031769D01*
X7352920Y-55031769D02*
X7362444Y-55022246D01*
X7362444Y-55022246D02*
X7371967Y-55003198D01*
X7543396Y-54984150D02*
X7543396Y-55117484D01*
X7495777Y-54907960D02*
X7448158Y-55050817D01*
X7448158Y-55050817D02*
X7571967Y-55050817D01*
X7638634Y-54917484D02*
X7638634Y-54955579D01*
X7714825Y-54917484D02*
X7714825Y-54955579D01*
X8010063Y-55193674D02*
X8000539Y-55184150D01*
X8000539Y-55184150D02*
X7981491Y-55155579D01*
X7981491Y-55155579D02*
X7971968Y-55136531D01*
X7971968Y-55136531D02*
X7962444Y-55107960D01*
X7962444Y-55107960D02*
X7952920Y-55060341D01*
X7952920Y-55060341D02*
X7952920Y-55022246D01*
X7952920Y-55022246D02*
X7962444Y-54974627D01*
X7962444Y-54974627D02*
X7971968Y-54946055D01*
X7971968Y-54946055D02*
X7981491Y-54927008D01*
X7981491Y-54927008D02*
X8000539Y-54898436D01*
X8000539Y-54898436D02*
X8010063Y-54888912D01*
X8171968Y-54984150D02*
X8171968Y-55117484D01*
X8124348Y-54907960D02*
X8076729Y-55050817D01*
X8076729Y-55050817D02*
X8200539Y-55050817D01*
X8362444Y-54984150D02*
X8362444Y-55117484D01*
X8314825Y-54907960D02*
X8267206Y-55050817D01*
X8267206Y-55050817D02*
X8391015Y-55050817D01*
X8619587Y-55117484D02*
X8619587Y-54917484D01*
X8705301Y-55117484D02*
X8705301Y-55012722D01*
X8705301Y-55012722D02*
X8695777Y-54993674D01*
X8695777Y-54993674D02*
X8676730Y-54984150D01*
X8676730Y-54984150D02*
X8648158Y-54984150D01*
X8648158Y-54984150D02*
X8629111Y-54993674D01*
X8629111Y-54993674D02*
X8619587Y-55003198D01*
X8829111Y-55117484D02*
X8810063Y-55107960D01*
X8810063Y-55107960D02*
X8800539Y-55098436D01*
X8800539Y-55098436D02*
X8791015Y-55079388D01*
X8791015Y-55079388D02*
X8791015Y-55022246D01*
X8791015Y-55022246D02*
X8800539Y-55003198D01*
X8800539Y-55003198D02*
X8810063Y-54993674D01*
X8810063Y-54993674D02*
X8829111Y-54984150D01*
X8829111Y-54984150D02*
X8857682Y-54984150D01*
X8857682Y-54984150D02*
X8876730Y-54993674D01*
X8876730Y-54993674D02*
X8886253Y-55003198D01*
X8886253Y-55003198D02*
X8895777Y-55022246D01*
X8895777Y-55022246D02*
X8895777Y-55079388D01*
X8895777Y-55079388D02*
X8886253Y-55098436D01*
X8886253Y-55098436D02*
X8876730Y-55107960D01*
X8876730Y-55107960D02*
X8857682Y-55117484D01*
X8857682Y-55117484D02*
X8829111Y-55117484D01*
X9010063Y-55117484D02*
X8991015Y-55107960D01*
X8991015Y-55107960D02*
X8981492Y-55088912D01*
X8981492Y-55088912D02*
X8981492Y-54917484D01*
X9162444Y-55107960D02*
X9143396Y-55117484D01*
X9143396Y-55117484D02*
X9105301Y-55117484D01*
X9105301Y-55117484D02*
X9086253Y-55107960D01*
X9086253Y-55107960D02*
X9076730Y-55088912D01*
X9076730Y-55088912D02*
X9076730Y-55012722D01*
X9076730Y-55012722D02*
X9086253Y-54993674D01*
X9086253Y-54993674D02*
X9105301Y-54984150D01*
X9105301Y-54984150D02*
X9143396Y-54984150D01*
X9143396Y-54984150D02*
X9162444Y-54993674D01*
X9162444Y-54993674D02*
X9171968Y-55012722D01*
X9171968Y-55012722D02*
X9171968Y-55031769D01*
X9171968Y-55031769D02*
X9076730Y-55050817D01*
X9248158Y-55107960D02*
X9267206Y-55117484D01*
X9267206Y-55117484D02*
X9305301Y-55117484D01*
X9305301Y-55117484D02*
X9324349Y-55107960D01*
X9324349Y-55107960D02*
X9333873Y-55088912D01*
X9333873Y-55088912D02*
X9333873Y-55079388D01*
X9333873Y-55079388D02*
X9324349Y-55060341D01*
X9324349Y-55060341D02*
X9305301Y-55050817D01*
X9305301Y-55050817D02*
X9276730Y-55050817D01*
X9276730Y-55050817D02*
X9257682Y-55041293D01*
X9257682Y-55041293D02*
X9248158Y-55022246D01*
X9248158Y-55022246D02*
X9248158Y-55012722D01*
X9248158Y-55012722D02*
X9257682Y-54993674D01*
X9257682Y-54993674D02*
X9276730Y-54984150D01*
X9276730Y-54984150D02*
X9305301Y-54984150D01*
X9305301Y-54984150D02*
X9324349Y-54993674D01*
X9400539Y-55193674D02*
X9410063Y-55184150D01*
X9410063Y-55184150D02*
X9429111Y-55155579D01*
X9429111Y-55155579D02*
X9438634Y-55136531D01*
X9438634Y-55136531D02*
X9448158Y-55107960D01*
X9448158Y-55107960D02*
X9457682Y-55060341D01*
X9457682Y-55060341D02*
X9457682Y-55022246D01*
X9457682Y-55022246D02*
X9448158Y-54974627D01*
X9448158Y-54974627D02*
X9438634Y-54946055D01*
X9438634Y-54946055D02*
X9429111Y-54927008D01*
X9429111Y-54927008D02*
X9410063Y-54898436D01*
X9410063Y-54898436D02*
X9400539Y-54888912D01*
D13*
X4413034Y-55343033D02*
X4413034Y-55236966D01*
X4306967Y-55236966D01*
X4306967Y-55343033D01*
X4413034Y-55343033D01*
D11*
X4800539Y-55381484D02*
X4686253Y-55381484D01*
X4743396Y-55381484D02*
X4743396Y-55181484D01*
X4743396Y-55181484D02*
X4724348Y-55210055D01*
X4724348Y-55210055D02*
X4705301Y-55229103D01*
X4705301Y-55229103D02*
X4686253Y-55238627D01*
X4886253Y-55362436D02*
X4895777Y-55371960D01*
X4895777Y-55371960D02*
X4886253Y-55381484D01*
X4886253Y-55381484D02*
X4876729Y-55371960D01*
X4876729Y-55371960D02*
X4886253Y-55362436D01*
X4886253Y-55362436D02*
X4886253Y-55381484D01*
X5076729Y-55181484D02*
X4981491Y-55181484D01*
X4981491Y-55181484D02*
X4971967Y-55276722D01*
X4971967Y-55276722D02*
X4981491Y-55267198D01*
X4981491Y-55267198D02*
X5000539Y-55257674D01*
X5000539Y-55257674D02*
X5048158Y-55257674D01*
X5048158Y-55257674D02*
X5067205Y-55267198D01*
X5067205Y-55267198D02*
X5076729Y-55276722D01*
X5076729Y-55276722D02*
X5086253Y-55295769D01*
X5086253Y-55295769D02*
X5086253Y-55343388D01*
X5086253Y-55343388D02*
X5076729Y-55362436D01*
X5076729Y-55362436D02*
X5067205Y-55371960D01*
X5067205Y-55371960D02*
X5048158Y-55381484D01*
X5048158Y-55381484D02*
X5000539Y-55381484D01*
X5000539Y-55381484D02*
X4981491Y-55371960D01*
X4981491Y-55371960D02*
X4971967Y-55362436D01*
X5210063Y-55181484D02*
X5229110Y-55181484D01*
X5229110Y-55181484D02*
X5248158Y-55191008D01*
X5248158Y-55191008D02*
X5257682Y-55200531D01*
X5257682Y-55200531D02*
X5267205Y-55219579D01*
X5267205Y-55219579D02*
X5276729Y-55257674D01*
X5276729Y-55257674D02*
X5276729Y-55305293D01*
X5276729Y-55305293D02*
X5267205Y-55343388D01*
X5267205Y-55343388D02*
X5257682Y-55362436D01*
X5257682Y-55362436D02*
X5248158Y-55371960D01*
X5248158Y-55371960D02*
X5229110Y-55381484D01*
X5229110Y-55381484D02*
X5210063Y-55381484D01*
X5210063Y-55381484D02*
X5191015Y-55371960D01*
X5191015Y-55371960D02*
X5181491Y-55362436D01*
X5181491Y-55362436D02*
X5171967Y-55343388D01*
X5171967Y-55343388D02*
X5162444Y-55305293D01*
X5162444Y-55305293D02*
X5162444Y-55257674D01*
X5162444Y-55257674D02*
X5171967Y-55219579D01*
X5171967Y-55219579D02*
X5181491Y-55200531D01*
X5181491Y-55200531D02*
X5191015Y-55191008D01*
X5191015Y-55191008D02*
X5210063Y-55181484D01*
X5400539Y-55181484D02*
X5419586Y-55181484D01*
X5419586Y-55181484D02*
X5438634Y-55191008D01*
X5438634Y-55191008D02*
X5448158Y-55200531D01*
X5448158Y-55200531D02*
X5457682Y-55219579D01*
X5457682Y-55219579D02*
X5467205Y-55257674D01*
X5467205Y-55257674D02*
X5467205Y-55305293D01*
X5467205Y-55305293D02*
X5457682Y-55343388D01*
X5457682Y-55343388D02*
X5448158Y-55362436D01*
X5448158Y-55362436D02*
X5438634Y-55371960D01*
X5438634Y-55371960D02*
X5419586Y-55381484D01*
X5419586Y-55381484D02*
X5400539Y-55381484D01*
X5400539Y-55381484D02*
X5381491Y-55371960D01*
X5381491Y-55371960D02*
X5371967Y-55362436D01*
X5371967Y-55362436D02*
X5362444Y-55343388D01*
X5362444Y-55343388D02*
X5352920Y-55305293D01*
X5352920Y-55305293D02*
X5352920Y-55257674D01*
X5352920Y-55257674D02*
X5362444Y-55219579D01*
X5362444Y-55219579D02*
X5371967Y-55200531D01*
X5371967Y-55200531D02*
X5381491Y-55191008D01*
X5381491Y-55191008D02*
X5400539Y-55181484D01*
X5552920Y-55381484D02*
X5552920Y-55248150D01*
X5552920Y-55267198D02*
X5562444Y-55257674D01*
X5562444Y-55257674D02*
X5581491Y-55248150D01*
X5581491Y-55248150D02*
X5610063Y-55248150D01*
X5610063Y-55248150D02*
X5629110Y-55257674D01*
X5629110Y-55257674D02*
X5638634Y-55276722D01*
X5638634Y-55276722D02*
X5638634Y-55381484D01*
X5638634Y-55276722D02*
X5648158Y-55257674D01*
X5648158Y-55257674D02*
X5667205Y-55248150D01*
X5667205Y-55248150D02*
X5695777Y-55248150D01*
X5695777Y-55248150D02*
X5714824Y-55257674D01*
X5714824Y-55257674D02*
X5724348Y-55276722D01*
X5724348Y-55276722D02*
X5724348Y-55381484D01*
X5819586Y-55381484D02*
X5819586Y-55248150D01*
X5819586Y-55267198D02*
X5829110Y-55257674D01*
X5829110Y-55257674D02*
X5848158Y-55248150D01*
X5848158Y-55248150D02*
X5876729Y-55248150D01*
X5876729Y-55248150D02*
X5895777Y-55257674D01*
X5895777Y-55257674D02*
X5905301Y-55276722D01*
X5905301Y-55276722D02*
X5905301Y-55381484D01*
X5905301Y-55276722D02*
X5914824Y-55257674D01*
X5914824Y-55257674D02*
X5933872Y-55248150D01*
X5933872Y-55248150D02*
X5962443Y-55248150D01*
X5962443Y-55248150D02*
X5981491Y-55257674D01*
X5981491Y-55257674D02*
X5991015Y-55276722D01*
X5991015Y-55276722D02*
X5991015Y-55381484D01*
X6381491Y-55171960D02*
X6210063Y-55429103D01*
X6638634Y-55181484D02*
X6657682Y-55181484D01*
X6657682Y-55181484D02*
X6676729Y-55191008D01*
X6676729Y-55191008D02*
X6686253Y-55200531D01*
X6686253Y-55200531D02*
X6695777Y-55219579D01*
X6695777Y-55219579D02*
X6705301Y-55257674D01*
X6705301Y-55257674D02*
X6705301Y-55305293D01*
X6705301Y-55305293D02*
X6695777Y-55343388D01*
X6695777Y-55343388D02*
X6686253Y-55362436D01*
X6686253Y-55362436D02*
X6676729Y-55371960D01*
X6676729Y-55371960D02*
X6657682Y-55381484D01*
X6657682Y-55381484D02*
X6638634Y-55381484D01*
X6638634Y-55381484D02*
X6619586Y-55371960D01*
X6619586Y-55371960D02*
X6610063Y-55362436D01*
X6610063Y-55362436D02*
X6600539Y-55343388D01*
X6600539Y-55343388D02*
X6591015Y-55305293D01*
X6591015Y-55305293D02*
X6591015Y-55257674D01*
X6591015Y-55257674D02*
X6600539Y-55219579D01*
X6600539Y-55219579D02*
X6610063Y-55200531D01*
X6610063Y-55200531D02*
X6619586Y-55191008D01*
X6619586Y-55191008D02*
X6638634Y-55181484D01*
X6791015Y-55362436D02*
X6800539Y-55371960D01*
X6800539Y-55371960D02*
X6791015Y-55381484D01*
X6791015Y-55381484D02*
X6781491Y-55371960D01*
X6781491Y-55371960D02*
X6791015Y-55362436D01*
X6791015Y-55362436D02*
X6791015Y-55381484D01*
X6924348Y-55181484D02*
X6943396Y-55181484D01*
X6943396Y-55181484D02*
X6962444Y-55191008D01*
X6962444Y-55191008D02*
X6971967Y-55200531D01*
X6971967Y-55200531D02*
X6981491Y-55219579D01*
X6981491Y-55219579D02*
X6991015Y-55257674D01*
X6991015Y-55257674D02*
X6991015Y-55305293D01*
X6991015Y-55305293D02*
X6981491Y-55343388D01*
X6981491Y-55343388D02*
X6971967Y-55362436D01*
X6971967Y-55362436D02*
X6962444Y-55371960D01*
X6962444Y-55371960D02*
X6943396Y-55381484D01*
X6943396Y-55381484D02*
X6924348Y-55381484D01*
X6924348Y-55381484D02*
X6905301Y-55371960D01*
X6905301Y-55371960D02*
X6895777Y-55362436D01*
X6895777Y-55362436D02*
X6886253Y-55343388D01*
X6886253Y-55343388D02*
X6876729Y-55305293D01*
X6876729Y-55305293D02*
X6876729Y-55257674D01*
X6876729Y-55257674D02*
X6886253Y-55219579D01*
X6886253Y-55219579D02*
X6895777Y-55200531D01*
X6895777Y-55200531D02*
X6905301Y-55191008D01*
X6905301Y-55191008D02*
X6924348Y-55181484D01*
X7171967Y-55181484D02*
X7076729Y-55181484D01*
X7076729Y-55181484D02*
X7067206Y-55276722D01*
X7067206Y-55276722D02*
X7076729Y-55267198D01*
X7076729Y-55267198D02*
X7095777Y-55257674D01*
X7095777Y-55257674D02*
X7143396Y-55257674D01*
X7143396Y-55257674D02*
X7162444Y-55267198D01*
X7162444Y-55267198D02*
X7171967Y-55276722D01*
X7171967Y-55276722D02*
X7181491Y-55295769D01*
X7181491Y-55295769D02*
X7181491Y-55343388D01*
X7181491Y-55343388D02*
X7171967Y-55362436D01*
X7171967Y-55362436D02*
X7162444Y-55371960D01*
X7162444Y-55371960D02*
X7143396Y-55381484D01*
X7143396Y-55381484D02*
X7095777Y-55381484D01*
X7095777Y-55381484D02*
X7076729Y-55371960D01*
X7076729Y-55371960D02*
X7067206Y-55362436D01*
X7276729Y-55381484D02*
X7314825Y-55381484D01*
X7314825Y-55381484D02*
X7333872Y-55371960D01*
X7333872Y-55371960D02*
X7343396Y-55362436D01*
X7343396Y-55362436D02*
X7362444Y-55333865D01*
X7362444Y-55333865D02*
X7371967Y-55295769D01*
X7371967Y-55295769D02*
X7371967Y-55219579D01*
X7371967Y-55219579D02*
X7362444Y-55200531D01*
X7362444Y-55200531D02*
X7352920Y-55191008D01*
X7352920Y-55191008D02*
X7333872Y-55181484D01*
X7333872Y-55181484D02*
X7295777Y-55181484D01*
X7295777Y-55181484D02*
X7276729Y-55191008D01*
X7276729Y-55191008D02*
X7267206Y-55200531D01*
X7267206Y-55200531D02*
X7257682Y-55219579D01*
X7257682Y-55219579D02*
X7257682Y-55267198D01*
X7257682Y-55267198D02*
X7267206Y-55286246D01*
X7267206Y-55286246D02*
X7276729Y-55295769D01*
X7276729Y-55295769D02*
X7295777Y-55305293D01*
X7295777Y-55305293D02*
X7333872Y-55305293D01*
X7333872Y-55305293D02*
X7352920Y-55295769D01*
X7352920Y-55295769D02*
X7362444Y-55286246D01*
X7362444Y-55286246D02*
X7371967Y-55267198D01*
X7562444Y-55381484D02*
X7448158Y-55381484D01*
X7505301Y-55381484D02*
X7505301Y-55181484D01*
X7505301Y-55181484D02*
X7486253Y-55210055D01*
X7486253Y-55210055D02*
X7467206Y-55229103D01*
X7467206Y-55229103D02*
X7448158Y-55238627D01*
X7638634Y-55181484D02*
X7638634Y-55219579D01*
X7714825Y-55181484D02*
X7714825Y-55219579D01*
X8010063Y-55457674D02*
X8000539Y-55448150D01*
X8000539Y-55448150D02*
X7981491Y-55419579D01*
X7981491Y-55419579D02*
X7971968Y-55400531D01*
X7971968Y-55400531D02*
X7962444Y-55371960D01*
X7962444Y-55371960D02*
X7952920Y-55324341D01*
X7952920Y-55324341D02*
X7952920Y-55286246D01*
X7952920Y-55286246D02*
X7962444Y-55238627D01*
X7962444Y-55238627D02*
X7971968Y-55210055D01*
X7971968Y-55210055D02*
X7981491Y-55191008D01*
X7981491Y-55191008D02*
X8000539Y-55162436D01*
X8000539Y-55162436D02*
X8010063Y-55152912D01*
X8181491Y-55181484D02*
X8086253Y-55181484D01*
X8086253Y-55181484D02*
X8076729Y-55276722D01*
X8076729Y-55276722D02*
X8086253Y-55267198D01*
X8086253Y-55267198D02*
X8105301Y-55257674D01*
X8105301Y-55257674D02*
X8152920Y-55257674D01*
X8152920Y-55257674D02*
X8171968Y-55267198D01*
X8171968Y-55267198D02*
X8181491Y-55276722D01*
X8181491Y-55276722D02*
X8191015Y-55295769D01*
X8191015Y-55295769D02*
X8191015Y-55343388D01*
X8191015Y-55343388D02*
X8181491Y-55362436D01*
X8181491Y-55362436D02*
X8171968Y-55371960D01*
X8171968Y-55371960D02*
X8152920Y-55381484D01*
X8152920Y-55381484D02*
X8105301Y-55381484D01*
X8105301Y-55381484D02*
X8086253Y-55371960D01*
X8086253Y-55371960D02*
X8076729Y-55362436D01*
X8314825Y-55181484D02*
X8333872Y-55181484D01*
X8333872Y-55181484D02*
X8352920Y-55191008D01*
X8352920Y-55191008D02*
X8362444Y-55200531D01*
X8362444Y-55200531D02*
X8371968Y-55219579D01*
X8371968Y-55219579D02*
X8381491Y-55257674D01*
X8381491Y-55257674D02*
X8381491Y-55305293D01*
X8381491Y-55305293D02*
X8371968Y-55343388D01*
X8371968Y-55343388D02*
X8362444Y-55362436D01*
X8362444Y-55362436D02*
X8352920Y-55371960D01*
X8352920Y-55371960D02*
X8333872Y-55381484D01*
X8333872Y-55381484D02*
X8314825Y-55381484D01*
X8314825Y-55381484D02*
X8295777Y-55371960D01*
X8295777Y-55371960D02*
X8286253Y-55362436D01*
X8286253Y-55362436D02*
X8276729Y-55343388D01*
X8276729Y-55343388D02*
X8267206Y-55305293D01*
X8267206Y-55305293D02*
X8267206Y-55257674D01*
X8267206Y-55257674D02*
X8276729Y-55219579D01*
X8276729Y-55219579D02*
X8286253Y-55200531D01*
X8286253Y-55200531D02*
X8295777Y-55191008D01*
X8295777Y-55191008D02*
X8314825Y-55181484D01*
X8619587Y-55381484D02*
X8619587Y-55181484D01*
X8705301Y-55381484D02*
X8705301Y-55276722D01*
X8705301Y-55276722D02*
X8695777Y-55257674D01*
X8695777Y-55257674D02*
X8676730Y-55248150D01*
X8676730Y-55248150D02*
X8648158Y-55248150D01*
X8648158Y-55248150D02*
X8629111Y-55257674D01*
X8629111Y-55257674D02*
X8619587Y-55267198D01*
X8829111Y-55381484D02*
X8810063Y-55371960D01*
X8810063Y-55371960D02*
X8800539Y-55362436D01*
X8800539Y-55362436D02*
X8791015Y-55343388D01*
X8791015Y-55343388D02*
X8791015Y-55286246D01*
X8791015Y-55286246D02*
X8800539Y-55267198D01*
X8800539Y-55267198D02*
X8810063Y-55257674D01*
X8810063Y-55257674D02*
X8829111Y-55248150D01*
X8829111Y-55248150D02*
X8857682Y-55248150D01*
X8857682Y-55248150D02*
X8876730Y-55257674D01*
X8876730Y-55257674D02*
X8886253Y-55267198D01*
X8886253Y-55267198D02*
X8895777Y-55286246D01*
X8895777Y-55286246D02*
X8895777Y-55343388D01*
X8895777Y-55343388D02*
X8886253Y-55362436D01*
X8886253Y-55362436D02*
X8876730Y-55371960D01*
X8876730Y-55371960D02*
X8857682Y-55381484D01*
X8857682Y-55381484D02*
X8829111Y-55381484D01*
X9010063Y-55381484D02*
X8991015Y-55371960D01*
X8991015Y-55371960D02*
X8981492Y-55352912D01*
X8981492Y-55352912D02*
X8981492Y-55181484D01*
X9162444Y-55371960D02*
X9143396Y-55381484D01*
X9143396Y-55381484D02*
X9105301Y-55381484D01*
X9105301Y-55381484D02*
X9086253Y-55371960D01*
X9086253Y-55371960D02*
X9076730Y-55352912D01*
X9076730Y-55352912D02*
X9076730Y-55276722D01*
X9076730Y-55276722D02*
X9086253Y-55257674D01*
X9086253Y-55257674D02*
X9105301Y-55248150D01*
X9105301Y-55248150D02*
X9143396Y-55248150D01*
X9143396Y-55248150D02*
X9162444Y-55257674D01*
X9162444Y-55257674D02*
X9171968Y-55276722D01*
X9171968Y-55276722D02*
X9171968Y-55295769D01*
X9171968Y-55295769D02*
X9076730Y-55314817D01*
X9248158Y-55371960D02*
X9267206Y-55381484D01*
X9267206Y-55381484D02*
X9305301Y-55381484D01*
X9305301Y-55381484D02*
X9324349Y-55371960D01*
X9324349Y-55371960D02*
X9333873Y-55352912D01*
X9333873Y-55352912D02*
X9333873Y-55343388D01*
X9333873Y-55343388D02*
X9324349Y-55324341D01*
X9324349Y-55324341D02*
X9305301Y-55314817D01*
X9305301Y-55314817D02*
X9276730Y-55314817D01*
X9276730Y-55314817D02*
X9257682Y-55305293D01*
X9257682Y-55305293D02*
X9248158Y-55286246D01*
X9248158Y-55286246D02*
X9248158Y-55276722D01*
X9248158Y-55276722D02*
X9257682Y-55257674D01*
X9257682Y-55257674D02*
X9276730Y-55248150D01*
X9276730Y-55248150D02*
X9305301Y-55248150D01*
X9305301Y-55248150D02*
X9324349Y-55257674D01*
X9400539Y-55457674D02*
X9410063Y-55448150D01*
X9410063Y-55448150D02*
X9429111Y-55419579D01*
X9429111Y-55419579D02*
X9438634Y-55400531D01*
X9438634Y-55400531D02*
X9448158Y-55371960D01*
X9448158Y-55371960D02*
X9457682Y-55324341D01*
X9457682Y-55324341D02*
X9457682Y-55286246D01*
X9457682Y-55286246D02*
X9448158Y-55238627D01*
X9448158Y-55238627D02*
X9438634Y-55210055D01*
X9438634Y-55210055D02*
X9429111Y-55191008D01*
X9429111Y-55191008D02*
X9410063Y-55162436D01*
X9410063Y-55162436D02*
X9400539Y-55152912D01*
X4335000Y-55660000D02*
X4435000Y-55560000D01*
X4335000Y-55460000D01*
X4235000Y-55560000D01*
X4335000Y-55660000D01*
X4676729Y-55451484D02*
X4800539Y-55451484D01*
X4800539Y-55451484D02*
X4733872Y-55527674D01*
X4733872Y-55527674D02*
X4762444Y-55527674D01*
X4762444Y-55527674D02*
X4781491Y-55537198D01*
X4781491Y-55537198D02*
X4791015Y-55546722D01*
X4791015Y-55546722D02*
X4800539Y-55565769D01*
X4800539Y-55565769D02*
X4800539Y-55613388D01*
X4800539Y-55613388D02*
X4791015Y-55632436D01*
X4791015Y-55632436D02*
X4781491Y-55641960D01*
X4781491Y-55641960D02*
X4762444Y-55651484D01*
X4762444Y-55651484D02*
X4705301Y-55651484D01*
X4705301Y-55651484D02*
X4686253Y-55641960D01*
X4686253Y-55641960D02*
X4676729Y-55632436D01*
X4886253Y-55632436D02*
X4895777Y-55641960D01*
X4895777Y-55641960D02*
X4886253Y-55651484D01*
X4886253Y-55651484D02*
X4876729Y-55641960D01*
X4876729Y-55641960D02*
X4886253Y-55632436D01*
X4886253Y-55632436D02*
X4886253Y-55651484D01*
X4971967Y-55470531D02*
X4981491Y-55461008D01*
X4981491Y-55461008D02*
X5000539Y-55451484D01*
X5000539Y-55451484D02*
X5048158Y-55451484D01*
X5048158Y-55451484D02*
X5067205Y-55461008D01*
X5067205Y-55461008D02*
X5076729Y-55470531D01*
X5076729Y-55470531D02*
X5086253Y-55489579D01*
X5086253Y-55489579D02*
X5086253Y-55508627D01*
X5086253Y-55508627D02*
X5076729Y-55537198D01*
X5076729Y-55537198D02*
X4962444Y-55651484D01*
X4962444Y-55651484D02*
X5086253Y-55651484D01*
X5210063Y-55451484D02*
X5229110Y-55451484D01*
X5229110Y-55451484D02*
X5248158Y-55461008D01*
X5248158Y-55461008D02*
X5257682Y-55470531D01*
X5257682Y-55470531D02*
X5267205Y-55489579D01*
X5267205Y-55489579D02*
X5276729Y-55527674D01*
X5276729Y-55527674D02*
X5276729Y-55575293D01*
X5276729Y-55575293D02*
X5267205Y-55613388D01*
X5267205Y-55613388D02*
X5257682Y-55632436D01*
X5257682Y-55632436D02*
X5248158Y-55641960D01*
X5248158Y-55641960D02*
X5229110Y-55651484D01*
X5229110Y-55651484D02*
X5210063Y-55651484D01*
X5210063Y-55651484D02*
X5191015Y-55641960D01*
X5191015Y-55641960D02*
X5181491Y-55632436D01*
X5181491Y-55632436D02*
X5171967Y-55613388D01*
X5171967Y-55613388D02*
X5162444Y-55575293D01*
X5162444Y-55575293D02*
X5162444Y-55527674D01*
X5162444Y-55527674D02*
X5171967Y-55489579D01*
X5171967Y-55489579D02*
X5181491Y-55470531D01*
X5181491Y-55470531D02*
X5191015Y-55461008D01*
X5191015Y-55461008D02*
X5210063Y-55451484D01*
X5400539Y-55451484D02*
X5419586Y-55451484D01*
X5419586Y-55451484D02*
X5438634Y-55461008D01*
X5438634Y-55461008D02*
X5448158Y-55470531D01*
X5448158Y-55470531D02*
X5457682Y-55489579D01*
X5457682Y-55489579D02*
X5467205Y-55527674D01*
X5467205Y-55527674D02*
X5467205Y-55575293D01*
X5467205Y-55575293D02*
X5457682Y-55613388D01*
X5457682Y-55613388D02*
X5448158Y-55632436D01*
X5448158Y-55632436D02*
X5438634Y-55641960D01*
X5438634Y-55641960D02*
X5419586Y-55651484D01*
X5419586Y-55651484D02*
X5400539Y-55651484D01*
X5400539Y-55651484D02*
X5381491Y-55641960D01*
X5381491Y-55641960D02*
X5371967Y-55632436D01*
X5371967Y-55632436D02*
X5362444Y-55613388D01*
X5362444Y-55613388D02*
X5352920Y-55575293D01*
X5352920Y-55575293D02*
X5352920Y-55527674D01*
X5352920Y-55527674D02*
X5362444Y-55489579D01*
X5362444Y-55489579D02*
X5371967Y-55470531D01*
X5371967Y-55470531D02*
X5381491Y-55461008D01*
X5381491Y-55461008D02*
X5400539Y-55451484D01*
X5552920Y-55651484D02*
X5552920Y-55518150D01*
X5552920Y-55537198D02*
X5562444Y-55527674D01*
X5562444Y-55527674D02*
X5581491Y-55518150D01*
X5581491Y-55518150D02*
X5610063Y-55518150D01*
X5610063Y-55518150D02*
X5629110Y-55527674D01*
X5629110Y-55527674D02*
X5638634Y-55546722D01*
X5638634Y-55546722D02*
X5638634Y-55651484D01*
X5638634Y-55546722D02*
X5648158Y-55527674D01*
X5648158Y-55527674D02*
X5667205Y-55518150D01*
X5667205Y-55518150D02*
X5695777Y-55518150D01*
X5695777Y-55518150D02*
X5714824Y-55527674D01*
X5714824Y-55527674D02*
X5724348Y-55546722D01*
X5724348Y-55546722D02*
X5724348Y-55651484D01*
X5819586Y-55651484D02*
X5819586Y-55518150D01*
X5819586Y-55537198D02*
X5829110Y-55527674D01*
X5829110Y-55527674D02*
X5848158Y-55518150D01*
X5848158Y-55518150D02*
X5876729Y-55518150D01*
X5876729Y-55518150D02*
X5895777Y-55527674D01*
X5895777Y-55527674D02*
X5905301Y-55546722D01*
X5905301Y-55546722D02*
X5905301Y-55651484D01*
X5905301Y-55546722D02*
X5914824Y-55527674D01*
X5914824Y-55527674D02*
X5933872Y-55518150D01*
X5933872Y-55518150D02*
X5962443Y-55518150D01*
X5962443Y-55518150D02*
X5981491Y-55527674D01*
X5981491Y-55527674D02*
X5991015Y-55546722D01*
X5991015Y-55546722D02*
X5991015Y-55651484D01*
X6381491Y-55441960D02*
X6210063Y-55699103D01*
X6638634Y-55451484D02*
X6657682Y-55451484D01*
X6657682Y-55451484D02*
X6676729Y-55461008D01*
X6676729Y-55461008D02*
X6686253Y-55470531D01*
X6686253Y-55470531D02*
X6695777Y-55489579D01*
X6695777Y-55489579D02*
X6705301Y-55527674D01*
X6705301Y-55527674D02*
X6705301Y-55575293D01*
X6705301Y-55575293D02*
X6695777Y-55613388D01*
X6695777Y-55613388D02*
X6686253Y-55632436D01*
X6686253Y-55632436D02*
X6676729Y-55641960D01*
X6676729Y-55641960D02*
X6657682Y-55651484D01*
X6657682Y-55651484D02*
X6638634Y-55651484D01*
X6638634Y-55651484D02*
X6619586Y-55641960D01*
X6619586Y-55641960D02*
X6610063Y-55632436D01*
X6610063Y-55632436D02*
X6600539Y-55613388D01*
X6600539Y-55613388D02*
X6591015Y-55575293D01*
X6591015Y-55575293D02*
X6591015Y-55527674D01*
X6591015Y-55527674D02*
X6600539Y-55489579D01*
X6600539Y-55489579D02*
X6610063Y-55470531D01*
X6610063Y-55470531D02*
X6619586Y-55461008D01*
X6619586Y-55461008D02*
X6638634Y-55451484D01*
X6791015Y-55632436D02*
X6800539Y-55641960D01*
X6800539Y-55641960D02*
X6791015Y-55651484D01*
X6791015Y-55651484D02*
X6781491Y-55641960D01*
X6781491Y-55641960D02*
X6791015Y-55632436D01*
X6791015Y-55632436D02*
X6791015Y-55651484D01*
X6991015Y-55651484D02*
X6876729Y-55651484D01*
X6933872Y-55651484D02*
X6933872Y-55451484D01*
X6933872Y-55451484D02*
X6914825Y-55480055D01*
X6914825Y-55480055D02*
X6895777Y-55499103D01*
X6895777Y-55499103D02*
X6876729Y-55508627D01*
X7067206Y-55470531D02*
X7076729Y-55461008D01*
X7076729Y-55461008D02*
X7095777Y-55451484D01*
X7095777Y-55451484D02*
X7143396Y-55451484D01*
X7143396Y-55451484D02*
X7162444Y-55461008D01*
X7162444Y-55461008D02*
X7171967Y-55470531D01*
X7171967Y-55470531D02*
X7181491Y-55489579D01*
X7181491Y-55489579D02*
X7181491Y-55508627D01*
X7181491Y-55508627D02*
X7171967Y-55537198D01*
X7171967Y-55537198D02*
X7057682Y-55651484D01*
X7057682Y-55651484D02*
X7181491Y-55651484D01*
X7352920Y-55451484D02*
X7314825Y-55451484D01*
X7314825Y-55451484D02*
X7295777Y-55461008D01*
X7295777Y-55461008D02*
X7286253Y-55470531D01*
X7286253Y-55470531D02*
X7267206Y-55499103D01*
X7267206Y-55499103D02*
X7257682Y-55537198D01*
X7257682Y-55537198D02*
X7257682Y-55613388D01*
X7257682Y-55613388D02*
X7267206Y-55632436D01*
X7267206Y-55632436D02*
X7276729Y-55641960D01*
X7276729Y-55641960D02*
X7295777Y-55651484D01*
X7295777Y-55651484D02*
X7333872Y-55651484D01*
X7333872Y-55651484D02*
X7352920Y-55641960D01*
X7352920Y-55641960D02*
X7362444Y-55632436D01*
X7362444Y-55632436D02*
X7371967Y-55613388D01*
X7371967Y-55613388D02*
X7371967Y-55565769D01*
X7371967Y-55565769D02*
X7362444Y-55546722D01*
X7362444Y-55546722D02*
X7352920Y-55537198D01*
X7352920Y-55537198D02*
X7333872Y-55527674D01*
X7333872Y-55527674D02*
X7295777Y-55527674D01*
X7295777Y-55527674D02*
X7276729Y-55537198D01*
X7276729Y-55537198D02*
X7267206Y-55546722D01*
X7267206Y-55546722D02*
X7257682Y-55565769D01*
X7495777Y-55451484D02*
X7514825Y-55451484D01*
X7514825Y-55451484D02*
X7533872Y-55461008D01*
X7533872Y-55461008D02*
X7543396Y-55470531D01*
X7543396Y-55470531D02*
X7552920Y-55489579D01*
X7552920Y-55489579D02*
X7562444Y-55527674D01*
X7562444Y-55527674D02*
X7562444Y-55575293D01*
X7562444Y-55575293D02*
X7552920Y-55613388D01*
X7552920Y-55613388D02*
X7543396Y-55632436D01*
X7543396Y-55632436D02*
X7533872Y-55641960D01*
X7533872Y-55641960D02*
X7514825Y-55651484D01*
X7514825Y-55651484D02*
X7495777Y-55651484D01*
X7495777Y-55651484D02*
X7476729Y-55641960D01*
X7476729Y-55641960D02*
X7467206Y-55632436D01*
X7467206Y-55632436D02*
X7457682Y-55613388D01*
X7457682Y-55613388D02*
X7448158Y-55575293D01*
X7448158Y-55575293D02*
X7448158Y-55527674D01*
X7448158Y-55527674D02*
X7457682Y-55489579D01*
X7457682Y-55489579D02*
X7467206Y-55470531D01*
X7467206Y-55470531D02*
X7476729Y-55461008D01*
X7476729Y-55461008D02*
X7495777Y-55451484D01*
X7638634Y-55451484D02*
X7638634Y-55489579D01*
X7714825Y-55451484D02*
X7714825Y-55489579D01*
X8010063Y-55727674D02*
X8000539Y-55718150D01*
X8000539Y-55718150D02*
X7981491Y-55689579D01*
X7981491Y-55689579D02*
X7971968Y-55670531D01*
X7971968Y-55670531D02*
X7962444Y-55641960D01*
X7962444Y-55641960D02*
X7952920Y-55594341D01*
X7952920Y-55594341D02*
X7952920Y-55556246D01*
X7952920Y-55556246D02*
X7962444Y-55508627D01*
X7962444Y-55508627D02*
X7971968Y-55480055D01*
X7971968Y-55480055D02*
X7981491Y-55461008D01*
X7981491Y-55461008D02*
X8000539Y-55432436D01*
X8000539Y-55432436D02*
X8010063Y-55422912D01*
X8067206Y-55451484D02*
X8191015Y-55451484D01*
X8191015Y-55451484D02*
X8124348Y-55527674D01*
X8124348Y-55527674D02*
X8152920Y-55527674D01*
X8152920Y-55527674D02*
X8171968Y-55537198D01*
X8171968Y-55537198D02*
X8181491Y-55546722D01*
X8181491Y-55546722D02*
X8191015Y-55565769D01*
X8191015Y-55565769D02*
X8191015Y-55613388D01*
X8191015Y-55613388D02*
X8181491Y-55632436D01*
X8181491Y-55632436D02*
X8171968Y-55641960D01*
X8171968Y-55641960D02*
X8152920Y-55651484D01*
X8152920Y-55651484D02*
X8095777Y-55651484D01*
X8095777Y-55651484D02*
X8076729Y-55641960D01*
X8076729Y-55641960D02*
X8067206Y-55632436D01*
X8429111Y-55651484D02*
X8429111Y-55451484D01*
X8514825Y-55651484D02*
X8514825Y-55546722D01*
X8514825Y-55546722D02*
X8505301Y-55527674D01*
X8505301Y-55527674D02*
X8486253Y-55518150D01*
X8486253Y-55518150D02*
X8457682Y-55518150D01*
X8457682Y-55518150D02*
X8438634Y-55527674D01*
X8438634Y-55527674D02*
X8429111Y-55537198D01*
X8638634Y-55651484D02*
X8619587Y-55641960D01*
X8619587Y-55641960D02*
X8610063Y-55632436D01*
X8610063Y-55632436D02*
X8600539Y-55613388D01*
X8600539Y-55613388D02*
X8600539Y-55556246D01*
X8600539Y-55556246D02*
X8610063Y-55537198D01*
X8610063Y-55537198D02*
X8619587Y-55527674D01*
X8619587Y-55527674D02*
X8638634Y-55518150D01*
X8638634Y-55518150D02*
X8667206Y-55518150D01*
X8667206Y-55518150D02*
X8686253Y-55527674D01*
X8686253Y-55527674D02*
X8695777Y-55537198D01*
X8695777Y-55537198D02*
X8705301Y-55556246D01*
X8705301Y-55556246D02*
X8705301Y-55613388D01*
X8705301Y-55613388D02*
X8695777Y-55632436D01*
X8695777Y-55632436D02*
X8686253Y-55641960D01*
X8686253Y-55641960D02*
X8667206Y-55651484D01*
X8667206Y-55651484D02*
X8638634Y-55651484D01*
X8819587Y-55651484D02*
X8800539Y-55641960D01*
X8800539Y-55641960D02*
X8791015Y-55622912D01*
X8791015Y-55622912D02*
X8791015Y-55451484D01*
X8971968Y-55641960D02*
X8952920Y-55651484D01*
X8952920Y-55651484D02*
X8914825Y-55651484D01*
X8914825Y-55651484D02*
X8895777Y-55641960D01*
X8895777Y-55641960D02*
X8886253Y-55622912D01*
X8886253Y-55622912D02*
X8886253Y-55546722D01*
X8886253Y-55546722D02*
X8895777Y-55527674D01*
X8895777Y-55527674D02*
X8914825Y-55518150D01*
X8914825Y-55518150D02*
X8952920Y-55518150D01*
X8952920Y-55518150D02*
X8971968Y-55527674D01*
X8971968Y-55527674D02*
X8981492Y-55546722D01*
X8981492Y-55546722D02*
X8981492Y-55565769D01*
X8981492Y-55565769D02*
X8886253Y-55584817D01*
X9057682Y-55641960D02*
X9076730Y-55651484D01*
X9076730Y-55651484D02*
X9114825Y-55651484D01*
X9114825Y-55651484D02*
X9133873Y-55641960D01*
X9133873Y-55641960D02*
X9143396Y-55622912D01*
X9143396Y-55622912D02*
X9143396Y-55613388D01*
X9143396Y-55613388D02*
X9133873Y-55594341D01*
X9133873Y-55594341D02*
X9114825Y-55584817D01*
X9114825Y-55584817D02*
X9086253Y-55584817D01*
X9086253Y-55584817D02*
X9067206Y-55575293D01*
X9067206Y-55575293D02*
X9057682Y-55556246D01*
X9057682Y-55556246D02*
X9057682Y-55546722D01*
X9057682Y-55546722D02*
X9067206Y-55527674D01*
X9067206Y-55527674D02*
X9086253Y-55518150D01*
X9086253Y-55518150D02*
X9114825Y-55518150D01*
X9114825Y-55518150D02*
X9133873Y-55527674D01*
X9210063Y-55727674D02*
X9219587Y-55718150D01*
X9219587Y-55718150D02*
X9238634Y-55689579D01*
X9238634Y-55689579D02*
X9248158Y-55670531D01*
X9248158Y-55670531D02*
X9257682Y-55641960D01*
X9257682Y-55641960D02*
X9267206Y-55594341D01*
X9267206Y-55594341D02*
X9267206Y-55556246D01*
X9267206Y-55556246D02*
X9257682Y-55508627D01*
X9257682Y-55508627D02*
X9248158Y-55480055D01*
X9248158Y-55480055D02*
X9238634Y-55461008D01*
X9238634Y-55461008D02*
X9219587Y-55432436D01*
X9219587Y-55432436D02*
X9210063Y-55422912D01*
M02*
