M48
; DRILL file {KiCad 8.0.9-8.0.9-0~ubuntu20.04.1} date 2025-06-05T19:26:29+0100
; FORMAT={-:-/ absolute / metric / decimal}
; #@! TF.CreationDate,2025-06-05T19:26:29+01:00
; #@! TF.GenerationSoftware,Kicad,Pcbnew,8.0.9-8.0.9-0~ubuntu20.04.1
; #@! TF.FileFunction,Plated,1,2,PTH
FMAT,2
METRIC
; #@! TA.AperFunction,Plated,PTH,ViaDrill
T1C0.300
; #@! TA.AperFunction,Plated,PTH,ViaDrill
T2C0.750
; #@! TA.AperFunction,Plated,PTH,ComponentDrill
T3C1.000
; #@! TA.AperFunction,Plated,PTH,ComponentDrill
T4C1.500
; #@! TA.AperFunction,Plated,PTH,ComponentDrill
T5C3.200
%
G90
G05
T1
X49.784Y-235.458
X49.784Y-237.998
X49.784Y-240.538
X59.944Y-235.458
X59.944Y-237.998
X59.944Y-240.538
T2
X50.165Y-73.533
X50.673Y-84.201
X61.722Y-93.599
T3
X48.26Y-41.91
X48.26Y-44.45
X48.26Y-46.99
X48.26Y-49.53
X48.26Y-52.07
X48.26Y-54.61
X48.26Y-57.15
X48.26Y-59.69
X48.26Y-62.23
X48.26Y-64.77
X48.26Y-67.31
X48.26Y-69.85
X48.26Y-72.39
X48.26Y-74.93
X48.26Y-77.47
X48.26Y-80.01
X48.26Y-82.55
X48.26Y-85.09
X48.26Y-87.63
X48.26Y-90.17
X62.992Y-235.458
X62.992Y-237.998
X62.992Y-240.538
X62.992Y-243.078
X63.5Y-41.91
X63.5Y-44.45
X63.5Y-46.99
X63.5Y-49.53
X63.5Y-52.07
X63.5Y-54.61
X63.5Y-57.15
X63.5Y-59.69
X63.5Y-62.23
X63.5Y-64.77
X63.5Y-67.31
X63.5Y-69.85
X63.5Y-72.39
X63.5Y-74.93
X63.5Y-77.47
X63.5Y-80.01
X63.5Y-82.55
X63.5Y-85.09
X63.5Y-87.63
X63.5Y-90.17
T4
X52.07Y-48.26
X52.07Y-67.31
X52.07Y-86.36
X52.07Y-105.41
X52.07Y-124.46
X52.07Y-148.59
X52.07Y-167.64
X52.07Y-186.69
X52.07Y-205.74
X52.07Y-224.79
X52.07Y-248.92
X52.07Y-267.97
X52.07Y-287.02
X52.07Y-306.07
X52.07Y-325.12
X52.07Y-349.25
X52.07Y-368.3
X52.07Y-387.35
X52.07Y-406.4
X52.07Y-425.45
X52.07Y-449.58
X52.07Y-468.63
X52.07Y-487.68
X52.07Y-506.73
X52.07Y-525.78
X58.42Y-45.72
X58.42Y-64.77
X58.42Y-83.82
X58.42Y-102.87
X58.42Y-121.92
X58.42Y-146.05
X58.42Y-165.1
X58.42Y-184.15
X58.42Y-203.2
X58.42Y-222.25
X58.42Y-246.38
X58.42Y-265.43
X58.42Y-284.48
X58.42Y-303.53
X58.42Y-322.58
X58.42Y-346.71
X58.42Y-365.76
X58.42Y-384.81
X58.42Y-403.86
X58.42Y-422.91
X58.42Y-447.04
X58.42Y-466.09
X58.42Y-485.14
X58.42Y-504.19
X58.42Y-523.24
T5
X55.88Y-139.065
X55.88Y-339.725
X55.88Y-440.055
M30
